<?xml version="1.0" encoding="utf-8" standalone="no"?>
<!DOCTYPE svg PUBLIC "-//W3C//DTD SVG 1.1//EN"
  "http://www.w3.org/Graphics/SVG/1.1/DTD/svg11.dtd">
<svg xmlns:xlink="http://www.w3.org/1999/xlink" width="460.8pt" height="345.6pt" viewBox="0 0 460.8 345.6" xmlns="http://www.w3.org/2000/svg" version="1.1">
 <metadata>
  <rdf:RDF xmlns:dc="http://purl.org/dc/elements/1.1/" xmlns:cc="http://creativecommons.org/ns#" xmlns:rdf="http://www.w3.org/1999/02/22-rdf-syntax-ns#">
   <cc:Work>
    <dc:type rdf:resource="http://purl.org/dc/dcmitype/StillImage"/>
    <dc:date>2023-09-05T17:23:58.105674</dc:date>
    <dc:format>image/svg+xml</dc:format>
    <dc:creator>
     <cc:Agent>
      <dc:title>Matplotlib v3.6.2, https://matplotlib.org/</dc:title>
     </cc:Agent>
    </dc:creator>
   </cc:Work>
  </rdf:RDF>
 </metadata>
 <defs>
  <style type="text/css">*{stroke-linejoin: round; stroke-linecap: butt}</style>
 </defs>
 <g id="figure_1">
  <g id="patch_1">
   <path d="M 0 345.6 
L 460.8 345.6 
L 460.8 0 
L 0 0 
z
" style="fill: #ffffff"/>
  </g>
  <g id="axes_1">
   <g id="patch_2">
    <path d="M 227.959269 176.424156 
C 229.219413 176.424156 230.428114 175.923495 231.31917 175.032439 
C 232.210227 174.141383 232.710887 172.932682 232.710887 171.672538 
C 232.710887 170.412394 232.210227 169.203693 231.31917 168.312637 
C 230.428114 167.421581 229.219413 166.92092 227.959269 166.92092 
C 226.699126 166.92092 225.490425 167.421581 224.599368 168.312637 
C 223.708312 169.203693 223.207652 170.412394 223.207652 171.672538 
C 223.207652 172.932682 223.708312 174.141383 224.599368 175.032439 
C 225.490425 175.923495 226.699126 176.424156 227.959269 176.424156 
L 227.959269 176.424156 
z
" clip-path="url(#p1dc3bbe9d1)" style="fill: none; stroke: #0000ff; stroke-linejoin: miter"/>
   </g>
   <g id="patch_3">
    <path d="M 227.959269 159.793494 
C 228.589341 159.793494 229.193692 159.543164 229.63922 159.097635 
C 230.084748 158.652107 230.335078 158.047757 230.335078 157.417685 
C 230.335078 156.787613 230.084748 156.183263 229.63922 155.737734 
C 229.193692 155.292206 228.589341 155.041876 227.959269 155.041876 
C 227.329198 155.041876 226.724847 155.292206 226.279319 155.737734 
C 225.833791 156.183263 225.583461 156.787613 225.583461 157.417685 
C 225.583461 158.047757 225.833791 158.652107 226.279319 159.097635 
C 226.724847 159.543164 227.329198 159.793494 227.959269 159.793494 
L 227.959269 159.793494 
z
" clip-path="url(#p1dc3bbe9d1)" style="fill: none; stroke: #008000; stroke-linejoin: miter"/>
   </g>
   <g id="line2d_1">
    <path d="M 258.358925 276.008846 
L 252.111561 277.561831 
L 245.967208 278.746553 
L 240.045272 279.566149 
L 234.515322 280.042317 
L 229.570782 280.239055 
L 225.360376 280.286353 
L 221.901966 280.376056 
L 219.049794 280.712762 
L 216.54467 281.449698 
L 214.094406 282.652448 
L 211.431615 284.297275 
L 208.341529 286.287113 
L 204.672439 288.471554 
L 200.338766 290.665577 
L 195.321143 292.665957 
L 189.6649 294.265519 
L 183.476992 295.265688 
L 176.920402 295.488 
L 170.203688 294.78541 
L 163.561928 293.053951 
L 157.226107 290.244054 
L 151.384023 286.368379 
L 146.146608 281.500911 
L 141.538623 275.76297 
L 137.520265 269.297785 
L 134.024484 262.242651 
L 130.987414 254.709573 
L 128.361404 246.779375 
L 126.114419 238.506517 
L 124.224061 229.92862 
L 122.671872 221.076002 
L 121.439975 211.979274 
L 120.51006 202.67514 
L 119.864246 193.211772 
L 119.487551 183.656251 
L 119.372531 174.10902 
L 119.528087 164.736798 
L 119.995778 155.848509 
L 120.863731 148.020864 
L 122.187477 141.99141 
L 123.779551 137.862496 
L 125.312204 134.93283 
L 126.597025 132.527772 
L 127.592754 130.256236 
L 128.330671 127.906231 
L 128.870071 125.361219 
L 129.275268 122.559737 
L 129.602526 119.473753 
L 129.893074 116.093375 
L 130.172147 112.413572 
L 130.455543 108.422649 
L 130.765303 104.095266 
L 131.154157 99.395633 
L 131.732643 94.297828 
L 132.68368 88.825246 
L 134.243862 83.095524 
L 136.643457 77.337847 
L 140.03114 71.85294 
L 144.432303 66.928096 
L 149.76501 62.760959 
L 155.890125 59.43391 
L 162.657122 56.934712 
L 169.927574 55.194014 
L 177.579765 54.117576 
L 185.50418 53.606555 
L 193.597132 53.568 
L 201.756269 53.919562 
L 209.87981 54.591611 
L 217.87058 55.528656 
L 225.644867 56.69098 
L 233.143873 58.056478 
L 240.342636 59.621791 
L 247.25054 61.401215 
L 253.901261 63.422138 
L 260.336013 65.717072 
L 266.586916 68.313805 
L 272.665538 71.225955 
L 278.55809 74.445978 
L 284.226562 77.941836 
L 289.614617 81.657495 
L 294.657271 85.516467 
L 299.293445 89.427273 
L 303.480018 93.290075 
L 307.205371 97.004701 
L 310.499759 100.481148 
L 313.43939 103.653541 
L 316.14104 106.497025 
L 318.744945 109.04409 
L 321.38654 111.393643 
L 324.162753 113.704794 
L 327.104263 116.17102 
L 330.166672 118.97938 
L 333.246666 122.269074 
L 336.216622 126.105396 
L 338.962085 130.476671 
L 341.408094 135.309935 
L 343.529058 140.495397 
L 345.344601 145.91162 
L 346.906229 151.448063 
L 348.278493 157.023929 
L 349.517213 162.600996 
L 350.648186 168.186143 
L 351.651281 173.82069 
L 352.454274 179.559082 
L 352.93755 185.444584 
L 352.947469 191.490431 
L 352.315113 197.671789 
L 350.878266 203.930123 
L 348.506112 210.188455 
L 345.126102 216.37254 
L 340.748926 222.428874 
L 335.481275 228.328991 
L 329.513606 234.056545 
L 323.080141 239.587289 
L 316.406697 244.878473 
L 309.670204 249.874636 
L 302.9829 254.522499 
L 296.397605 258.783627 
L 289.923051 262.639144 
L 283.54062 266.087206 
L 277.218925 269.136664 
L 270.925991 271.800165 
L 264.639914 274.088752 
L 258.358925 276.008846 
" clip-path="url(#p1dc3bbe9d1)" style="fill: none; stroke: #1f77b4; stroke-width: 1.5; stroke-linecap: square"/>
   </g>
  </g>
 </g>
 <defs>
  <clipPath id="p1dc3bbe9d1">
   <rect x="107.693784" y="41.472" width="256.932432" height="266.112"/>
  </clipPath>
 </defs>
</svg>
