<?xml version="1.0" encoding="utf-8" standalone="no"?>
<!DOCTYPE svg PUBLIC "-//W3C//DTD SVG 1.1//EN"
  "http://www.w3.org/Graphics/SVG/1.1/DTD/svg11.dtd">
<svg xmlns:xlink="http://www.w3.org/1999/xlink" width="460.8pt" height="345.6pt" viewBox="0 0 460.8 345.6" xmlns="http://www.w3.org/2000/svg" version="1.1">
 <metadata>
  <rdf:RDF xmlns:dc="http://purl.org/dc/elements/1.1/" xmlns:cc="http://creativecommons.org/ns#" xmlns:rdf="http://www.w3.org/1999/02/22-rdf-syntax-ns#">
   <cc:Work>
    <dc:type rdf:resource="http://purl.org/dc/dcmitype/StillImage"/>
    <dc:date>2023-09-04T23:06:18.616518</dc:date>
    <dc:format>image/svg+xml</dc:format>
    <dc:creator>
     <cc:Agent>
      <dc:title>Matplotlib v3.6.2, https://matplotlib.org/</dc:title>
     </cc:Agent>
    </dc:creator>
   </cc:Work>
  </rdf:RDF>
 </metadata>
 <defs>
  <style type="text/css">*{stroke-linejoin: round; stroke-linecap: butt}</style>
 </defs>
 <g id="figure_1">
  <g id="patch_1">
   <path d="M 0 345.6 
L 460.8 345.6 
L 460.8 0 
L 0 0 
z
" style="fill: #ffffff"/>
  </g>
  <g id="axes_1">
   <g id="patch_2">
    <path d="M 232.973744 180.563948 
C 233.977215 180.563948 234.939721 180.165265 235.649283 179.455704 
C 236.358844 178.746142 236.757527 177.783635 236.757527 176.780164 
C 236.757527 175.776693 236.358844 174.814186 235.649283 174.104625 
C 234.939721 173.395064 233.977215 172.99638 232.973744 172.99638 
C 231.970272 172.99638 231.007766 173.395064 230.298204 174.104625 
C 229.588643 174.814186 229.18996 175.776693 229.18996 176.780164 
C 229.18996 177.783635 229.588643 178.746142 230.298204 179.455704 
C 231.007766 180.165265 231.970272 180.563948 232.973744 180.563948 
L 232.973744 180.563948 
z
" clip-path="url(#p41e2ba89fa)" style="fill: none; stroke: #0000ff; stroke-linejoin: miter"/>
   </g>
   <g id="patch_3">
    <path d="M 232.973744 167.320704 
C 233.475479 167.320704 233.956732 167.121363 234.311513 166.766582 
C 234.666294 166.411801 234.865635 165.930548 234.865635 165.428812 
C 234.865635 164.927077 234.666294 164.445823 234.311513 164.091043 
C 233.956732 163.736262 233.475479 163.53692 232.973744 163.53692 
C 232.472008 163.53692 231.990755 163.736262 231.635974 164.091043 
C 231.281193 164.445823 231.081852 164.927077 231.081852 165.428812 
C 231.081852 165.930548 231.281193 166.411801 231.635974 166.766582 
C 231.990755 167.121363 232.472008 167.320704 232.973744 167.320704 
L 232.973744 167.320704 
z
" clip-path="url(#p41e2ba89fa)" style="fill: none; stroke: #008000; stroke-linejoin: miter"/>
   </g>
   <g id="line2d_1">
    <path d="M 266.261738 290.754271 
L 259.987714 292.368635 
L 253.733624 293.635858 
L 247.568935 294.557431 
L 241.587492 295.14538 
L 235.893938 295.433552 
L 230.570877 295.488 
L 225.638004 295.404296 
L 221.034676 295.284449 
L 216.641277 295.206218 
L 212.317975 295.204387 
L 207.935156 295.268634 
L 203.389404 295.350918 
L 198.609956 295.375633 
L 193.560567 295.249537 
L 188.239222 294.870665 
L 182.676469 294.136225 
L 176.932382 292.949616 
L 171.091758 291.226792 
L 165.256863 288.902172 
L 159.537098 285.934096 
L 154.035894 282.309244 
L 148.837259 278.044526 
L 143.996562 273.184426 
L 139.539726 267.792777 
L 135.47075 261.940672 
L 131.782644 255.69481 
L 128.466113 249.110372 
L 125.513562 242.229681 
L 122.919398 235.084997 
L 120.678768 227.702909 
L 118.786301 220.108507 
L 117.235505 212.328727 
L 116.018933 204.395083 
L 115.129012 196.34658 
L 114.559545 188.234159 
L 114.308118 180.129191 
L 114.37992 172.140908 
L 114.792495 164.448983 
L 115.572432 157.33505 
L 116.714881 151.096546 
L 118.124168 145.769302 
L 119.661501 141.085575 
L 121.239252 136.749724 
L 122.831849 132.56698 
L 124.449507 128.426114 
L 126.11776 124.267173 
L 127.86537 120.06165 
L 129.717066 115.800702 
L 131.689491 111.4867 
L 133.790251 107.12604 
L 136.020677 102.72287 
L 138.383019 98.274822 
L 140.891908 93.773082 
L 143.587568 89.209747 
L 146.544424 84.593682 
L 149.866267 79.970255 
L 153.663172 75.432683 
L 158.01813 71.112134 
L 162.962256 67.147052 
L 168.472353 63.649019 
L 174.487196 60.683735 
L 180.928347 58.271513 
L 187.714858 56.399262 
L 194.769703 55.034423 
L 202.020573 54.135822 
L 209.398309 53.660573 
L 216.835341 53.568 
L 224.26555 53.82183 
L 231.62643 54.391668 
L 238.863666 55.254301 
L 245.936981 56.394966 
L 252.824556 57.808176 
L 259.523006 59.497339 
L 266.041899 61.472535 
L 272.394862 63.746461 
L 278.590812 66.329361 
L 284.62794 69.224108 
L 290.491227 72.422526 
L 296.153144 75.90356 
L 301.576849 79.63339 
L 306.721368 83.56715 
L 311.548158 87.651709 
L 316.028361 91.829156 
L 320.149697 96.041089 
L 323.921697 100.234142 
L 327.377759 104.367177 
L 330.572509 108.419777 
L 333.573433 112.400358 
L 336.447089 116.35069 
L 339.242601 120.343077 
L 341.977746 124.468134 
L 344.633646 128.815202 
L 347.161186 133.451821 
L 349.496629 138.4098 
L 351.579687 143.681936 
L 353.367338 149.228225 
L 354.840232 154.987343 
L 356.002064 160.889537 
L 356.873791 166.868859 
L 357.484422 172.873724 
L 357.859882 178.874278 
L 358.011882 184.864257 
L 357.929534 190.855925 
L 357.576001 196.869442 
L 356.890896 202.920632 
L 355.79737 209.011476 
L 354.21223 215.125982 
L 352.057874 221.232025 
L 349.275399 227.287979 
L 345.837989 233.251441 
L 341.761974 239.086012 
L 337.110689 244.762462 
L 331.98633 250.25397 
L 326.510066 255.529955 
L 320.797994 260.554247 
L 314.942934 265.28919 
L 309.007221 269.70229 
L 303.024842 273.771069 
L 297.00826 277.484174 
L 290.956198 280.839315 
L 284.860739 283.839637 
L 278.713533 286.490043 
L 272.511413 288.794432 
L 266.261738 290.754271 
" clip-path="url(#p41e2ba89fa)" style="fill: none; stroke: #1f77b4; stroke-width: 1.5; stroke-linecap: square"/>
   </g>
  </g>
 </g>
 <defs>
  <clipPath id="p41e2ba89fa">
   <rect x="102.12293" y="41.472" width="268.074141" height="266.112"/>
  </clipPath>
 </defs>
</svg>
