<?xml version="1.0" encoding="utf-8" standalone="no"?>
<!DOCTYPE svg PUBLIC "-//W3C//DTD SVG 1.1//EN"
  "http://www.w3.org/Graphics/SVG/1.1/DTD/svg11.dtd">
<svg xmlns:xlink="http://www.w3.org/1999/xlink" width="460.8pt" height="345.6pt" viewBox="0 0 460.8 345.6" xmlns="http://www.w3.org/2000/svg" version="1.1">
 <metadata>
  <rdf:RDF xmlns:dc="http://purl.org/dc/elements/1.1/" xmlns:cc="http://creativecommons.org/ns#" xmlns:rdf="http://www.w3.org/1999/02/22-rdf-syntax-ns#">
   <cc:Work>
    <dc:type rdf:resource="http://purl.org/dc/dcmitype/StillImage"/>
    <dc:date>2023-09-05T17:24:17.401684</dc:date>
    <dc:format>image/svg+xml</dc:format>
    <dc:creator>
     <cc:Agent>
      <dc:title>Matplotlib v3.6.2, https://matplotlib.org/</dc:title>
     </cc:Agent>
    </dc:creator>
   </cc:Work>
  </rdf:RDF>
 </metadata>
 <defs>
  <style type="text/css">*{stroke-linejoin: round; stroke-linecap: butt}</style>
 </defs>
 <g id="figure_1">
  <g id="patch_1">
   <path d="M 0 345.6 
L 460.8 345.6 
L 460.8 0 
L 0 0 
z
" style="fill: #ffffff"/>
  </g>
  <g id="axes_1">
   <g id="patch_2">
    <path d="M 235.939848 179.466596 
C 237.158029 179.466596 238.32648 178.982607 239.187864 178.121224 
C 240.049248 177.25984 240.533236 176.091388 240.533236 174.873207 
C 240.533236 173.655026 240.049248 172.486575 239.187864 171.625191 
C 238.32648 170.763807 237.158029 170.279819 235.939848 170.279819 
C 234.721667 170.279819 233.553216 170.763807 232.691832 171.625191 
C 231.830448 172.486575 231.346459 173.655026 231.346459 174.873207 
C 231.346459 176.091388 231.830448 177.25984 232.691832 178.121224 
C 233.553216 178.982607 234.721667 179.466596 235.939848 179.466596 
L 235.939848 179.466596 
z
" clip-path="url(#paab6c11e1f)" style="fill: none; stroke: #0000ff; stroke-linejoin: miter"/>
   </g>
   <g id="patch_3">
    <path d="M 235.939848 163.389736 
C 236.548938 163.389736 237.133164 163.147742 237.563856 162.71705 
C 237.994548 162.286358 238.236542 161.702132 238.236542 161.093042 
C 238.236542 160.483951 237.994548 159.899726 237.563856 159.469034 
C 237.133164 159.038342 236.548938 158.796348 235.939848 158.796348 
C 235.330757 158.796348 234.746532 159.038342 234.31584 159.469034 
C 233.885148 159.899726 233.643154 160.483951 233.643154 161.093042 
C 233.643154 161.702132 233.885148 162.286358 234.31584 162.71705 
C 234.746532 163.147742 235.330757 163.389736 235.939848 163.389736 
L 235.939848 163.389736 
z
" clip-path="url(#paab6c11e1f)" style="fill: none; stroke: #008000; stroke-linejoin: miter"/>
   </g>
   <g id="line2d_1">
    <path d="M 281.494889 276.053397 
L 278.924546 279.106264 
L 276.021417 282.313129 
L 272.646015 285.551166 
L 268.688164 288.636172 
L 264.08992 291.344408 
L 258.867071 293.463485 
L 253.110724 294.855835 
L 246.957592 295.488 
L 240.548374 295.405994 
L 234.002235 294.690615 
L 227.411884 293.426779 
L 220.848462 291.69122 
L 214.367649 289.549999 
L 208.01397 287.059041 
L 201.823075 284.264682 
L 195.822591 281.203301 
L 190.032314 277.900097 
L 184.464642 274.367838 
L 179.126153 270.607411 
L 174.021028 266.612992 
L 169.156037 262.384201 
L 164.545165 257.9437 
L 160.210384 253.351634 
L 156.175653 248.704988 
L 152.454944 244.117968 
L 149.039873 239.693648 
L 145.893682 235.501841 
L 142.954363 231.570149 
L 140.144725 227.885752 
L 137.385034 224.402421 
L 134.604808 221.048856 
L 131.752155 217.73671 
L 128.800529 214.367906 
L 125.753653 210.841165 
L 122.650198 207.057478 
L 119.571514 202.92373 
L 116.660049 198.352804 
L 114.164717 193.257632 
L 112.517871 187.545445 
L 112.260099 181.171188 
L 113.515316 174.27498 
L 115.875684 167.113683 
L 118.9389 159.875621 
L 122.472268 152.671446 
L 126.342172 145.577886 
L 130.458444 138.661295 
L 134.74834 131.986941 
L 139.144053 125.622009 
L 143.575587 119.635125 
L 147.965896 114.092779 
L 152.227897 109.051888 
L 156.264806 104.547618 
L 159.977166 100.576779 
L 163.280729 97.08073 
L 166.136194 93.937635 
L 168.581623 90.977414 
L 170.745715 88.024374 
L 172.822435 84.950235 
L 175.015013 81.705364 
L 177.484411 78.312216 
L 180.329677 74.835952 
L 183.597582 71.357154 
L 187.3026 67.958123 
L 191.443111 64.720448 
L 196.009819 61.727391 
L 200.988105 59.066421 
L 206.357263 56.829572 
L 212.088946 55.110611 
L 218.146294 53.998581 
L 224.484434 53.568 
L 231.052418 53.86749 
L 237.795936 54.910492 
L 244.659693 56.672201 
L 251.58843 59.094377 
L 258.526338 62.095686 
L 265.415565 65.583218 
L 272.19494 69.46193 
L 278.799922 73.640941 
L 285.164238 78.037014 
L 291.223031 82.575744 
L 296.916809 87.190789 
L 302.195316 91.821397 
L 307.020796 96.408751 
L 311.370845 100.892081 
L 315.241701 105.20593 
L 318.652833 109.280332 
L 321.652786 113.045735 
L 324.324342 116.444 
L 326.785007 119.44509 
L 329.177971 122.065744 
L 331.651059 124.382879 
L 334.327044 126.533512 
L 337.274888 128.697559 
L 340.492558 131.068172 
L 343.906429 133.8202 
L 347.384466 137.086343 
L 350.75656 140.944883 
L 353.836508 145.417774 
L 356.443142 150.476222 
L 358.419529 156.051581 
L 359.648302 162.049999 
L 360.059901 168.368582 
L 359.631408 174.909771 
L 358.377241 181.590875 
L 356.336402 188.347715 
L 353.561536 195.133426 
L 350.113182 201.914129 
L 346.060216 208.6624 
L 341.485604 215.34841 
L 336.494414 221.928653 
L 331.218475 228.334542 
L 325.811173 234.467303 
L 320.430567 240.2073 
L 315.217883 245.43952 
L 310.282677 250.08507 
L 305.699672 254.123253 
L 301.512917 257.596016 
L 297.740222 260.597449 
L 294.374371 263.255967 
L 291.3817 265.715264 
L 288.700273 268.116872 
L 286.239674 270.584948 
L 283.883512 273.213153 
L 281.494889 276.053397 
" clip-path="url(#paab6c11e1f)" style="fill: none; stroke: #1f77b4; stroke-width: 1.5; stroke-linecap: square"/>
   </g>
  </g>
 </g>
 <defs>
  <clipPath id="paab6c11e1f">
   <rect x="99.870109" y="41.472" width="272.579783" height="266.112"/>
  </clipPath>
 </defs>
</svg>
