<?xml version="1.0" encoding="utf-8" standalone="no"?>
<!DOCTYPE svg PUBLIC "-//W3C//DTD SVG 1.1//EN"
  "http://www.w3.org/Graphics/SVG/1.1/DTD/svg11.dtd">
<svg xmlns:xlink="http://www.w3.org/1999/xlink" width="460.8pt" height="345.6pt" viewBox="0 0 460.8 345.6" xmlns="http://www.w3.org/2000/svg" version="1.1">
 <metadata>
  <rdf:RDF xmlns:dc="http://purl.org/dc/elements/1.1/" xmlns:cc="http://creativecommons.org/ns#" xmlns:rdf="http://www.w3.org/1999/02/22-rdf-syntax-ns#">
   <cc:Work>
    <dc:type rdf:resource="http://purl.org/dc/dcmitype/StillImage"/>
    <dc:date>2023-09-04T23:06:27.292280</dc:date>
    <dc:format>image/svg+xml</dc:format>
    <dc:creator>
     <cc:Agent>
      <dc:title>Matplotlib v3.6.2, https://matplotlib.org/</dc:title>
     </cc:Agent>
    </dc:creator>
   </cc:Work>
  </rdf:RDF>
 </metadata>
 <defs>
  <style type="text/css">*{stroke-linejoin: round; stroke-linecap: butt}</style>
 </defs>
 <g id="figure_1">
  <g id="patch_1">
   <path d="M 0 345.6 
L 460.8 345.6 
L 460.8 0 
L 0 0 
z
" style="fill: #ffffff"/>
  </g>
  <g id="axes_1">
   <g id="patch_2">
    <path d="M 236.146009 178.253526 
C 237.097123 178.253526 238.009409 177.875645 238.681948 177.203106 
C 239.354487 176.530567 239.732369 175.61828 239.732369 174.667166 
C 239.732369 173.716052 239.354487 172.803766 238.681948 172.131227 
C 238.009409 171.458688 237.097123 171.080806 236.146009 171.080806 
C 235.194895 171.080806 234.282608 171.458688 233.610069 172.131227 
C 232.93753 172.803766 232.559649 173.716052 232.559649 174.667166 
C 232.559649 175.61828 232.93753 176.530567 233.610069 177.203106 
C 234.282608 177.875645 235.194895 178.253526 236.146009 178.253526 
L 236.146009 178.253526 
z
" clip-path="url(#p99726830f2)" style="fill: none; stroke: #0000ff; stroke-linejoin: miter"/>
   </g>
   <g id="patch_3">
    <path d="M 236.146009 165.701266 
C 236.621566 165.701266 237.077709 165.512326 237.413979 165.176056 
C 237.750248 164.839787 237.939189 164.383643 237.939189 163.908086 
C 237.939189 163.432529 237.750248 162.976386 237.413979 162.640117 
C 237.077709 162.303847 236.621566 162.114906 236.146009 162.114906 
C 235.670452 162.114906 235.214309 162.303847 234.878039 162.640117 
C 234.54177 162.976386 234.352829 163.432529 234.352829 163.908086 
C 234.352829 164.383643 234.54177 164.839787 234.878039 165.176056 
C 235.214309 165.512326 235.670452 165.701266 236.146009 165.701266 
L 236.146009 165.701266 
z
" clip-path="url(#p99726830f2)" style="fill: none; stroke: #008000; stroke-linejoin: miter"/>
   </g>
   <g id="line2d_1">
    <path d="M 276.819976 282.802532 
L 272.781679 285.205589 
L 268.522365 287.563779 
L 263.97009 289.806244 
L 259.070006 291.828824 
L 253.796605 293.506375 
L 248.164534 294.719603 
L 242.229117 295.388252 
L 236.071258 295.488 
L 229.775736 295.039885 
L 223.416821 294.087197 
L 217.054556 292.67785 
L 210.736828 290.856348 
L 204.502609 288.661652 
L 198.384478 286.127275 
L 192.410135 283.281823 
L 186.603173 280.149376 
L 180.983493 276.749787 
L 175.56777 273.099269 
L 170.370341 269.211953 
L 165.404677 265.103059 
L 160.68516 260.793722 
L 156.228132 256.316013 
L 152.050796 251.715164 
L 148.167144 247.046283 
L 144.582008 242.365827 
L 141.286087 237.721525 
L 138.254659 233.144876 
L 135.450617 228.648033 
L 132.830415 224.224357 
L 130.350862 219.851073 
L 127.975283 215.492786 
L 125.678401 211.105211 
L 123.449992 206.638841 
L 121.297772 202.04239 
L 119.250463 197.265748 
L 117.362877 192.262052 
L 115.726571 186.988292 
L 114.49063 181.404601 
L 113.881256 175.478488 
L 114.137435 169.214603 
L 115.310627 162.697038 
L 117.231995 156.054588 
L 119.705822 149.392109 
L 122.599037 142.78045 
L 125.827561 136.272299 
L 129.332785 129.913573 
L 133.067683 123.748741 
L 136.989392 117.822815 
L 141.054854 112.181351 
L 145.2179 106.868716 
L 149.427405 101.92431 
L 153.62707 97.376344 
L 157.758314 93.233304 
L 161.768175 89.474909 
L 165.622883 86.046991 
L 169.323687 82.866507 
L 172.916073 79.839929 
L 176.483172 76.889205 
L 180.12366 73.97169 
L 183.926481 71.084076 
L 187.955681 68.252732 
L 192.248581 65.520392 
L 196.82176 62.936652 
L 201.678223 60.553723 
L 206.81238 58.425569 
L 212.212412 56.608094 
L 217.860878 55.158801 
L 223.734629 54.134994 
L 229.80483 53.590074 
L 236.037595 53.568 
L 242.395322 54.096919 
L 248.838421 55.184066 
L 255.326829 56.814233 
L 261.820719 58.952687 
L 268.280278 61.55117 
L 274.664923 64.554535 
L 280.932617 67.906162 
L 287.039838 71.551553 
L 292.942463 75.440267 
L 298.597474 79.52654 
L 303.965125 83.768801 
L 309.011092 88.128288 
L 313.708357 92.567068 
L 318.038891 97.045985 
L 321.995555 101.523269 
L 325.584629 105.954719 
L 328.828893 110.296407 
L 331.770257 114.510554 
L 334.469867 118.574356 
L 337.003251 122.48984 
L 339.449231 126.291098 
L 341.874237 130.044737 
L 344.316735 133.841546 
L 346.777199 137.781366 
L 349.21658 141.956221 
L 351.562389 146.436705 
L 353.719356 151.264123 
L 355.581744 156.448314 
L 357.045702 161.970001 
L 358.020705 167.786554 
L 358.438744 173.840182 
L 358.259406 180.06715 
L 357.469562 186.406047 
L 356.078424 192.803325 
L 354.110609 199.215445 
L 351.600135 205.608152 
L 348.587182 211.953805 
L 345.118001 218.227375 
L 341.247211 224.401275 
L 337.04066 230.439432 
L 332.576175 236.292228 
L 327.939791 241.895602 
L 323.217517 247.177617 
L 318.486106 252.072242 
L 313.807206 256.535003 
L 309.226291 260.553444 
L 304.774186 264.148902 
L 300.468308 267.370954 
L 296.312369 270.288104 
L 292.295013 272.977605 
L 288.388541 275.51588 
L 284.548722 277.969952 
L 280.716255 280.389934 
L 276.819976 282.802532 
" clip-path="url(#p99726830f2)" style="fill: none; stroke: #1f77b4; stroke-width: 1.5; stroke-linecap: square"/>
   </g>
  </g>
 </g>
 <defs>
  <clipPath id="p99726830f2">
   <rect x="101.653381" y="41.472" width="269.013237" height="266.112"/>
  </clipPath>
 </defs>
</svg>
