<?xml version="1.0" encoding="utf-8" standalone="no"?>
<!DOCTYPE svg PUBLIC "-//W3C//DTD SVG 1.1//EN"
  "http://www.w3.org/Graphics/SVG/1.1/DTD/svg11.dtd">
<svg xmlns:xlink="http://www.w3.org/1999/xlink" width="460.8pt" height="345.6pt" viewBox="0 0 460.8 345.6" xmlns="http://www.w3.org/2000/svg" version="1.1">
 <metadata>
  <rdf:RDF xmlns:dc="http://purl.org/dc/elements/1.1/" xmlns:cc="http://creativecommons.org/ns#" xmlns:rdf="http://www.w3.org/1999/02/22-rdf-syntax-ns#">
   <cc:Work>
    <dc:type rdf:resource="http://purl.org/dc/dcmitype/StillImage"/>
    <dc:date>2023-09-04T18:24:47.651611</dc:date>
    <dc:format>image/svg+xml</dc:format>
    <dc:creator>
     <cc:Agent>
      <dc:title>Matplotlib v3.6.2, https://matplotlib.org/</dc:title>
     </cc:Agent>
    </dc:creator>
   </cc:Work>
  </rdf:RDF>
 </metadata>
 <defs>
  <style type="text/css">*{stroke-linejoin: round; stroke-linecap: butt}</style>
 </defs>
 <g id="figure_1">
  <g id="patch_1">
   <path d="M 0 345.6 
L 460.8 345.6 
L 460.8 0 
L 0 0 
z
" style="fill: #ffffff"/>
  </g>
  <g id="axes_1">
   <g id="patch_2">
    <path d="M 240.342002 168.147902 
C 241.257193 168.147902 242.135024 167.784292 242.782162 167.137154 
C 243.429301 166.490016 243.79291 165.612185 243.79291 164.696993 
C 243.79291 163.781802 243.429301 162.903971 242.782162 162.256833 
C 242.135024 161.609694 241.257193 161.246085 240.342002 161.246085 
C 239.42681 161.246085 238.548979 161.609694 237.901841 162.256833 
C 237.254703 162.903971 236.891093 163.781802 236.891093 164.696993 
C 236.891093 165.612185 237.254703 166.490016 237.901841 167.137154 
C 238.548979 167.784292 239.42681 168.147902 240.342002 168.147902 
L 240.342002 168.147902 
z
" clip-path="url(#p603a589071)" style="fill: none; stroke: #0000ff; stroke-linejoin: miter"/>
   </g>
   <g id="line2d_1">
    <path d="M 340.295252 206.418684 
L 337.872122 211.450923 
L 335.305933 216.336786 
L 332.642799 221.07797 
L 329.941739 225.68794 
L 327.261124 230.19874 
L 324.637683 234.663774 
L 322.066004 239.151433 
L 319.490671 243.72893 
L 316.816125 248.44321 
L 313.927364 253.30771 
L 310.710892 258.29842 
L 307.070183 263.35724 
L 302.935194 268.399098 
L 298.267528 273.32022 
L 293.06289 278.006187 
L 287.351951 282.339185 
L 281.200178 286.204342 
L 274.70643 289.495531 
L 267.99876 292.121475 
L 261.223917 294.013319 
L 254.52652 295.134105 
L 248.019064 295.488 
L 241.756128 295.123259 
L 235.732383 294.122254 
L 229.907777 292.579267 
L 224.239644 290.576994 
L 218.700957 288.173636 
L 213.282088 285.403122 
L 207.984621 282.28295 
L 202.81476 278.823292 
L 197.779182 275.034169 
L 192.883382 270.930277 
L 188.131703 266.534366 
L 183.528357 261.880344 
L 179.078984 257.017274 
L 174.792383 252.015201 
L 170.681646 246.972671 
L 166.762468 242.021351 
L 163.044235 237.312432 
L 159.512696 232.964277 
L 156.119692 228.99104 
L 152.801163 225.289456 
L 149.509405 221.702057 
L 146.228534 218.08289 
L 142.970083 214.324119 
L 139.761417 210.356588 
L 136.634621 206.142149 
L 133.617872 201.664805 
L 130.729596 196.921938 
L 127.975905 191.915408 
L 125.352465 186.642573 
L 122.852524 181.088415 
L 120.482714 175.222145 
L 118.28574 169.004438 
L 116.362132 162.412174 
L 114.873017 155.479371 
L 114.004739 148.331831 
L 113.902059 141.177366 
L 114.615101 134.24047 
L 116.10058 127.686661 
L 118.264769 121.590651 
L 121.006358 115.952644 
L 124.237382 110.731854 
L 127.886175 105.873481 
L 131.892952 101.323695 
L 136.204687 97.036024 
L 140.771861 92.973417 
L 145.547649 89.108685 
L 150.489373 85.424618 
L 155.561546 81.914179 
L 160.739244 78.580592 
L 166.01 75.436809 
L 171.372756 72.503758 
L 176.833595 69.807026 
L 182.399477 67.372227 
L 188.071888 65.219834 
L 193.841967 63.360599 
L 199.687928 61.792579 
L 205.575044 60.500329 
L 211.458246 59.456081 
L 217.287208 58.622132 
L 223.013505 57.953521 
L 228.598987 57.400534 
L 234.024209 56.911486 
L 239.295453 56.436947 
L 244.448669 55.936715 
L 249.548394 55.389967 
L 254.679666 54.807265 
L 259.931876 54.240541 
L 265.376243 53.785078 
L 271.043221 53.568 
L 276.909818 53.72304 
L 282.904821 54.359817 
L 288.93087 55.540897 
L 294.892563 57.275771 
L 300.717945 59.530765 
L 306.367214 62.246816 
L 311.830018 65.357237 
L 317.11601 68.801568 
L 322.242662 72.534753 
L 327.222813 76.531572 
L 332.053731 80.78592 
L 336.709417 85.30484 
L 341.137493 90.098674 
L 345.26103 95.17032 
L 348.984601 100.507041 
L 352.203617 106.077666 
L 354.816712 111.836794 
L 356.741907 117.735753 
L 357.93669 123.736661 
L 358.417941 129.821496 
L 358.270558 135.987441 
L 357.632641 142.229189 
L 356.658814 148.522259 
L 355.481098 154.821338 
L 354.187179 161.072697 
L 352.81961 167.229085 
L 351.386724 173.258287 
L 349.875517 179.144092 
L 348.261983 184.882458 
L 346.518559 190.475996 
L 344.619845 195.9289 
L 342.54758 201.24347 
L 340.295252 206.418684 
" clip-path="url(#p603a589071)" style="fill: none; stroke: #1f77b4; stroke-width: 1.5; stroke-linecap: square"/>
   </g>
  </g>
 </g>
 <defs>
  <clipPath id="p603a589071">
   <rect x="101.676265" y="41.472" width="268.967471" height="266.112"/>
  </clipPath>
 </defs>
</svg>
