<?xml version="1.0" encoding="utf-8" standalone="no"?>
<!DOCTYPE svg PUBLIC "-//W3C//DTD SVG 1.1//EN"
  "http://www.w3.org/Graphics/SVG/1.1/DTD/svg11.dtd">
<svg xmlns:xlink="http://www.w3.org/1999/xlink" width="460.8pt" height="345.6pt" viewBox="0 0 460.8 345.6" xmlns="http://www.w3.org/2000/svg" version="1.1">
 <metadata>
  <rdf:RDF xmlns:dc="http://purl.org/dc/elements/1.1/" xmlns:cc="http://creativecommons.org/ns#" xmlns:rdf="http://www.w3.org/1999/02/22-rdf-syntax-ns#">
   <cc:Work>
    <dc:type rdf:resource="http://purl.org/dc/dcmitype/StillImage"/>
    <dc:date>2024-04-05T14:52:37.330537</dc:date>
    <dc:format>image/svg+xml</dc:format>
    <dc:creator>
     <cc:Agent>
      <dc:title>Matplotlib v3.6.2, https://matplotlib.org/</dc:title>
     </cc:Agent>
    </dc:creator>
   </cc:Work>
  </rdf:RDF>
 </metadata>
 <defs>
  <style type="text/css">*{stroke-linejoin: round; stroke-linecap: butt}</style>
 </defs>
 <g id="figure_1">
  <g id="patch_1">
   <path d="M 0 345.6 
L 460.8 345.6 
L 460.8 0 
L 0 0 
z
" style="fill: #ffffff"/>
  </g>
  <g id="axes_1">
   <g id="patch_2">
    <path d="M 243.975278 186.894337 
C 245.167003 186.894337 246.310079 186.42086 247.152756 185.578183 
C 247.995433 184.735505 248.468911 183.59243 248.468911 182.400704 
C 248.468911 181.208979 247.995433 180.065903 247.152756 179.223226 
C 246.310079 178.380549 245.167003 177.907071 243.975278 177.907071 
C 242.783553 177.907071 241.640477 178.380549 240.7978 179.223226 
C 239.955122 180.065903 239.481645 181.208979 239.481645 182.400704 
C 239.481645 183.59243 239.955122 184.735505 240.7978 185.578183 
C 241.640477 186.42086 242.783553 186.894337 243.975278 186.894337 
L 243.975278 186.894337 
z
" clip-path="url(#p0adfbc9a24)" style="fill: none; stroke: #0000ff; stroke-linejoin: miter"/>
   </g>
   <g id="patch_3">
    <path d="M 243.975278 171.166622 
C 244.571141 171.166622 245.142679 170.929883 245.564017 170.508544 
C 245.985356 170.087206 246.222094 169.515668 246.222094 168.919805 
C 246.222094 168.323943 245.985356 167.752405 245.564017 167.331066 
C 245.142679 166.909728 244.571141 166.672989 243.975278 166.672989 
C 243.379415 166.672989 242.807877 166.909728 242.386539 167.331066 
C 241.9652 167.752405 241.728461 168.323943 241.728461 168.919805 
C 241.728461 169.515668 241.9652 170.087206 242.386539 170.508544 
C 242.807877 170.929883 243.379415 171.166622 243.975278 171.166622 
L 243.975278 171.166622 
z
" clip-path="url(#p0adfbc9a24)" style="fill: none; stroke: #008000; stroke-linejoin: miter"/>
   </g>
   <g id="patch_4">
    <path d="M 257.456177 184.647521 
C 258.05204 184.647521 258.623577 184.410782 259.044916 183.989443 
C 259.466255 183.568105 259.702993 182.996567 259.702993 182.400704 
C 259.702993 181.804842 259.466255 181.233304 259.044916 180.811965 
C 258.623577 180.390626 258.05204 180.153888 257.456177 180.153888 
C 256.860314 180.153888 256.288776 180.390626 255.867438 180.811965 
C 255.446099 181.233304 255.20936 181.804842 255.20936 182.400704 
C 255.20936 182.996567 255.446099 183.568105 255.867438 183.989443 
C 256.288776 184.410782 256.860314 184.647521 257.456177 184.647521 
L 257.456177 184.647521 
z
" clip-path="url(#p0adfbc9a24)" style="fill: none; stroke: #008000; stroke-linejoin: miter"/>
   </g>
   <g id="patch_5">
    <path d="M 234.673458 169.23436 
L 253.277098 169.23436 
L 253.277098 159.617985 
L 234.673458 159.617985 
L 234.673458 169.23436 
z
" clip-path="url(#p0adfbc9a24)" style="fill: none; stroke: #ff0000; stroke-linejoin: miter"/>
   </g>
   <g id="patch_6">
    <path d="M 234.673458 205.183423 
L 253.277098 205.183423 
L 253.277098 195.567049 
L 234.673458 195.567049 
L 234.673458 205.183423 
z
" clip-path="url(#p0adfbc9a24)" style="fill: none; stroke: #ffa500; stroke-linejoin: miter"/>
   </g>
   <g id="patch_7">
    <path d="M 257.141623 191.702525 
L 266.757997 191.702525 
L 266.757997 173.098884 
L 257.141623 173.098884 
L 257.141623 191.702525 
z
" clip-path="url(#p0adfbc9a24)" style="fill: none; stroke: #ffff00; stroke-linejoin: miter"/>
   </g>
   <g id="patch_8">
    <path d="M 221.192559 191.702525 
L 230.808933 191.702525 
L 230.808933 173.098884 
L 221.192559 173.098884 
L 221.192559 191.702525 
z
" clip-path="url(#p0adfbc9a24)" style="fill: none; stroke: #008000; stroke-linejoin: miter"/>
   </g>
   <g id="line2d_1">
    <path d="M 275.327661 274.86957 
L 270.03969 276.913154 
L 268.579602 277.555989 
L 267.997212 277.816316 
L 266.637492 278.48237 
L 265.528177 279.030664 
L 262.675107 280.457012 
L 261.907899 280.710874 
L 261.15358 281.185268 
L 260.239732 281.399665 
L 259.330071 281.843844 
L 255.183649 283.80289 
L 254.683558 283.879171 
L 253.736536 284.36112 
L 253.067733 284.67112 
L 252.56047 284.737555 
L 252.26421 284.913916 
L 251.79769 284.999696 
L 251.196658 285.35496 
L 250.725374 285.436621 
L 249.76102 285.949716 
L 249.012367 286.233836 
L 246.393653 287.261155 
L 245.534054 287.479472 
L 243.183811 288.332567 
L 242.610958 288.31908 
L 241.51719 288.837021 
L 241.05113 288.918288 
L 240.691149 289.102273 
L 239.784244 289.291196 
L 239.418918 289.476451 
L 238.538549 289.697544 
L 237.272421 290.097186 
L 236.053224 290.570827 
L 232.890957 291.357402 
L 232.483084 291.53848 
L 231.420874 291.55399 
L 228.722647 292.355956 
L 228.208873 292.393791 
L 227.776331 292.571999 
L 227.259313 292.60653 
L 226.325161 292.859804 
L 225.804851 292.891733 
L 224.882435 293.190172 
L 224.331415 293.165167 
L 223.876546 293.338045 
L 223.346759 293.35829 
L 222.886006 293.529677 
L 220.877178 293.897203 
L 220.378836 294.010082 
L 219.837366 294.017579 
L 218.848942 294.292353 
L 215.257893 295.141599 
L 214.668183 295.024195 
L 213.106952 295.488 
L 211.934098 295.284934 
L 210.109254 294.634816 
L 205.778981 292.34347 
L 205.145957 291.880873 
L 204.55508 291.626607 
L 203.917472 291.105225 
L 201.536374 289.781045 
L 200.327822 288.916144 
L 199.744803 288.582584 
L 198.534954 287.59704 
L 191.646634 282.312399 
L 187.800158 278.944155 
L 180.018625 270.994277 
L 174.75546 264.666995 
L 173.402268 263.014884 
L 172.509701 261.826526 
L 166.233459 252.289208 
L 162.141826 244.876656 
L 157.617586 235.433785 
L 154.834515 228.22137 
L 153.83629 225.363205 
L 152.046647 219.906606 
L 149.460206 216.936804 
L 149.051116 216.353999 
L 148.193709 215.392153 
L 147.774989 214.794292 
L 145.729302 212.556288 
L 145.554059 212.089532 
L 141.095078 207.160319 
L 140.915105 206.708437 
L 136.900938 201.939499 
L 134.114068 198.380393 
L 133.984214 197.84461 
L 132.573212 195.931646 
L 132.387654 195.446717 
L 129.273843 190.883511 
L 126.447781 186.32873 
L 123.953239 181.87137 
L 123.408432 180.833363 
L 123.351691 180.219251 
L 123.645279 179.461172 
L 124.049914 178.030135 
L 125.147353 175.08613 
L 127.999657 167.906111 
L 132.559912 158.726729 
L 133.609702 156.692801 
L 133.8599 156.061438 
L 137.569213 149.9627 
L 140.723752 145.319398 
L 144.038421 140.798824 
L 147.509949 136.406756 
L 152.053168 131.01521 
L 155.871615 126.93689 
L 159.929743 122.643684 
L 160.733499 118.286269 
L 160.956382 117.872418 
L 161.381265 115.943519 
L 161.662434 115.517648 
L 162.089039 113.535414 
L 162.58286 112.693464 
L 163.078539 111.049943 
L 163.495004 109.796736 
L 163.983749 108.528062 
L 164.314419 108.103095 
L 164.793619 106.385286 
L 165.137676 105.96161 
L 165.5844 104.653304 
L 166.029214 103.785315 
L 166.168088 103.340811 
L 166.783846 102.487954 
L 167.141292 101.599395 
L 167.46282 101.174493 
L 168.160757 99.366418 
L 168.550795 98.953035 
L 169.128668 97.583321 
L 169.711469 96.709178 
L 170.082359 95.774248 
L 170.388586 95.337362 
L 171.659331 92.504744 
L 173.720763 88.1156 
L 175.841987 84.788414 
L 176.807957 83.358546 
L 177.581881 82.473531 
L 178.239084 81.508491 
L 179.542036 79.533982 
L 180.008614 79.133379 
L 181.415468 77.174481 
L 182.092785 76.152141 
L 182.610196 75.783321 
L 182.943228 75.259123 
L 183.748046 74.317783 
L 186.048072 71.298483 
L 186.538442 70.887805 
L 187.699476 69.311758 
L 188.573195 68.343115 
L 189.824351 66.782337 
L 190.395195 66.439558 
L 193.073557 63.350393 
L 196.397705 59.694939 
L 198.459351 57.689751 
L 198.978819 57.173281 
L 199.595566 56.836938 
L 200.282477 56.63731 
L 201.359127 55.634603 
L 202.549351 54.837083 
L 203.688301 53.897225 
L 205.135798 53.657407 
L 206.644802 53.577842 
L 208.212002 53.655727 
L 212.11323 53.89904 
L 218.015478 53.718858 
L 220.336111 54.008505 
L 225.545022 54.352024 
L 230.547093 54.398148 
L 232.821661 54.881097 
L 235.739458 55.284427 
L 238.584103 55.569488 
L 241.573812 56.423119 
L 242.337024 56.706798 
L 244.496415 57.193564 
L 247.339488 57.834841 
L 248.71381 58.043032 
L 252.01779 58.194979 
L 253.395933 58.507798 
L 254.833766 59.091264 
L 256.246177 59.616839 
L 259.073878 60.808017 
L 263.130469 62.160657 
L 265.693661 62.628105 
L 267.695879 63.454432 
L 269.703442 64.425249 
L 270.367851 64.752521 
L 270.991005 64.879405 
L 272.280478 65.39163 
L 273.588797 66.06234 
L 274.216494 66.271165 
L 275.523439 67.026742 
L 276.135648 67.186336 
L 276.787365 67.595074 
L 277.399827 67.781481 
L 281.167536 69.806623 
L 282.369359 70.245084 
L 283.000518 70.710131 
L 284.210495 71.311732 
L 284.824157 71.709493 
L 286.594198 72.440253 
L 287.199056 72.85333 
L 287.771296 72.984064 
L 288.983339 73.966373 
L 290.136569 74.4632 
L 302.950893 82.583082 
L 303.480971 83.171808 
L 305.576398 84.697967 
L 306.611838 85.417478 
L 307.128234 85.724479 
L 307.632635 86.33777 
L 311.177272 88.647116 
L 313.588258 91.132141 
L 314.06859 91.555639 
L 317.678643 96.29468 
L 319.396787 98.757181 
L 321.866974 102.521462 
L 323.826204 105.71612 
L 324.22594 106.203593 
L 325.698971 108.91818 
L 326.76708 110.95128 
L 327.478778 112.171381 
L 329.157183 115.525904 
L 331.036845 119.66509 
L 331.905668 121.887312 
L 332.231863 122.320584 
L 334.860768 129.626916 
L 336.25734 133.994177 
L 338.244255 141.460919 
L 339.361048 146.925612 
L 340.403147 153.119095 
L 341.080641 158.659224 
L 341.293658 159.896997 
L 342.851087 163.06926 
L 342.956639 163.581208 
L 343.305097 164.104191 
L 343.708554 165.301519 
L 344.18748 166.264318 
L 344.275766 166.787598 
L 344.610019 167.395199 
L 344.751524 167.769571 
L 344.814221 168.341054 
L 345.261237 169.396687 
L 345.769945 171.005241 
L 346.126266 171.597128 
L 346.208018 172.090102 
L 346.388143 172.387739 
L 346.544946 173.373609 
L 346.95716 175.131064 
L 347.129942 175.447322 
L 347.192247 175.951745 
L 347.364319 176.271916 
L 348.183174 180.871859 
L 348.157024 181.472033 
L 348.54506 182.62652 
L 348.572461 184.24103 
L 348.820911 186.097172 
L 348.932762 193.218683 
L 348.820038 193.829455 
L 348.806096 194.837454 
L 348.658327 197.913041 
L 348.524426 199.955825 
L 348.089476 202.208073 
L 347.908273 203.288056 
L 347.854077 203.796413 
L 347.509374 204.984588 
L 347.541588 205.421596 
L 347.173976 206.607516 
L 347.162217 207.07186 
L 346.735191 208.280215 
L 346.751292 208.719504 
L 346.24397 210.407088 
L 346.161736 210.906158 
L 342.481357 219.989028 
L 337.880231 228.351503 
L 335.577342 232.061386 
L 334.384875 233.694154 
L 333.332141 235.229923 
L 332.446623 236.317242 
L 328.2337 241.427711 
L 324.131212 245.827424 
L 322.228664 247.713094 
L 319.168287 250.499352 
L 317.625312 251.843386 
L 316.529847 252.742456 
L 315.519906 253.596461 
L 313.484149 255.263715 
L 303.031592 262.38074 
L 300.664125 263.796384 
L 293.440952 267.54161 
L 288.203863 269.940191 
L 279.839404 273.234836 
L 276.738983 274.368956 
L 275.323436 274.870318 
L 275.323436 274.870318 
" clip-path="url(#p0adfbc9a24)" style="fill: none; stroke: #1f77b4; stroke-width: 1.5; stroke-linecap: square"/>
   </g>
  </g>
 </g>
 <defs>
  <clipPath id="p0adfbc9a24">
   <rect x="112.07086" y="41.472" width="248.17828" height="266.112"/>
  </clipPath>
 </defs>
</svg>
