<?xml version="1.0" encoding="UTF-8"?>
<svg id="Layer_1" data-name="Layer 1" xmlns="http://www.w3.org/2000/svg" version="1.1" viewBox="0 0 866.8 773.2">
  <defs>
    <style>
      .cls-1 {
        stroke: green;
      }

      .cls-1, .cls-2, .cls-3, .cls-4, .cls-5, .cls-6 {
        fill: none;
      }

      .cls-2 {
        stroke: #ff0;
      }

      .cls-3 {
        stroke: red;
      }

      .cls-4 {
        stroke: blue;
      }

      .cls-5 {
        stroke: orange;
      }

      .cls-6 {
        stroke: #1f77b4;
        stroke-linecap: square;
        stroke-linejoin: round;
        stroke-width: 1.5px;
      }
    </style>
  </defs>
  <g id="figure_1" data-name="figure 1">
    <g id="axes_1" data-name="axes 1">
      <g id="patch_2" data-name="patch 2">
        <path class="cls-4" d="M420.1,418.2c3.8,0,7.4-1.5,10-4.2s4.2-6.3,4.2-10-1.5-7.4-4.2-10-6.3-4.2-10-4.2-7.4,1.5-10,4.2-4.2,6.3-4.2,10,1.5,7.4,4.2,10,6.3,4.2,10,4.2h0Z"/>
      </g>
      <g id="patch_3" data-name="patch 3">
        <path class="cls-1" d="M420.1,378.5c1.9,0,3.7-.7,5-2.1,1.3-1.3,2.1-3.1,2.1-5s-.7-3.7-2.1-5c-1.3-1.3-3.1-2.1-5-2.1s-3.7.7-5,2.1-2.1,3.1-2.1,5,.7,3.7,2.1,5,3.1,2.1,5,2.1h0Z"/>
      </g>
      <g id="patch_4" data-name="patch 4">
        <path class="cls-1" d="M452.7,411.1c1.9,0,3.7-.7,5-2.1s2.1-3.1,2.1-5-.7-3.7-2.1-5-3.1-2.1-5-2.1-3.7.7-5,2.1-2.1,3.1-2.1,5,.7,3.7,2.1,5,3.1,2.1,5,2.1h0Z"/>
      </g>
      <g id="patch_5" data-name="patch 5">
        <path class="cls-3" d="M397.9,355.4h44.5v-16.2h-44.5v16.2Z"/>
      </g>
      <g id="patch_6" data-name="patch 6">
        <path class="cls-5" d="M397.9,468.8h44.5v-16.2h-44.5v16.2Z"/>
      </g>
      <g id="patch_7" data-name="patch 7">
        <path class="cls-2" d="M468.7,426.3h16.2v-44.5h-16.2v44.5Z"/>
      </g>
      <g id="patch_8" data-name="patch 8">
        <path class="cls-1" d="M355.4,426.3h16.2v-44.5h-16.2v44.5Z"/>
      </g>
      <g id="line2d_1" data-name="line2d 1">
        <path class="cls-6" d="M572.5,695l-8,2.9-9.6,3.4-31.2,8.1-13.2,2.3-23.6,3.3-29.1,2.3h-15.2c0,0-18.5-.5-18.5-.5l-12.5-1-17.3-2.2-11.6-1.7-3.8-.2-10.1-1.1-14.9-1.8-5.4-.8-5.1-.7-4-.7-10.4-1.8-18.7-3.3-5.3-1.4-14.8-3-8-2.3-6.9-2.5-8.4-3.5-25.8-11.8-9.4-5-2.6-1.4-4-2.3-20.8-12.4-24-16.8-17.1-13.5-7.2-6-3.3-5.5-9.1-17.3-5.6-11.8-6-13.9-6.1-16.3-2.8-8-4.3-14.6-2.8-10.3-3.7-17-1.6-8.4-2.7-19.5-1.7-19.6-.6-17.6v-15.1s.9-15.5.9-15.5l2.2-21.8,1.7-13.7-.2-16.5v-4.9c0,0,.1-5.9.1-5.9v-4.8c0,0,.3-7.3.3-7.3l.6-11.2.8-10.2,1.5-14.2.6-4,1.5-10.6,2.1-12.1,4.6-20.7,7.8-28.3,11.7-31.9,5.7-11.8.7-1.5,1.5-1.4,5-7.2,3.9-4.2,5-4,1-1.4,1.7-1.3,1.2-1.4,5.1-3.8,1-1.4,3.4-2.5,1.2-1.3,5.2-3.6,1.2-1.3,5.1-3.6,1.2-1.3,5-3.5,1.3-1.2,5.4-3.3,2.7-2.4,5.3-3.2,1.5-1.1,1-1.2,29.5-17.9,6.7-3.6,6.2-3.7,1.9-.8,3.1-1.8,8.7-3.9,1.3-1,5.6-2.1,4.5-2.5,3.4-1.5,1.5-.8,5.4-2,1.8-.6,3-1.6,3.8-1.1,1.4-.8,3.7-1.1,3.2-1.4,3.3-1.3,3.6-1.1,3.6-1.1,5.4-1.5,1.4-.8,10.5-3,4.8-1.8,9-2,1.5-.7,5.4-1.2,5.2-1.3,3.5-.7,6.9-1.6,3.9-.4,1.5-.6,8.9-1.4h1.9c0-.1,1.6-.6,1.6-.6l16.6-1.3,17.5,2.9,16.5,2.6,6.4,1.5,4,.8,13.8,2.9,3.9.9,3.8.8,8,2.3,18.6,4.9,2,.8,3.4.7,9.3,3.4,3.6,1.2,14,4.8,3.5,1.4,8.6,3.4,1.9,1.2,8,2.6,5.1,2.4,1.6.5,1.7,1,4.7,1.6,6.5,3.2,15.7,7.4,3.1,1.6,3.1,1.7,6.1,3.2,1.6,1.3,14.8,7.9,1.5,1.4,7.2,3.8,1.5,1.3,5.7,3.2,2.9,1.9,4.3,2.6,5.7,6.4,1.4,1.1,22.3,26.1,16.3,22.6,9.5,15.4,11.5,20.2,7.7,15.7,6.1,14.1,2.3,4.9,1.5,3.3,7.7,20.9,4.9,15.9,4.2,16,2.7,12.5,5,40.2v3.9c0,0,.8,8.6.8,8.6l1.1,53.7-.6,22.2-1,14.3-.6,1.9-.3,3.2-6.5,17.2-3.9,9.3-8.6,18.3-3,5.5-10.9,19.2-12,18.4-4.7,6.5-5.9,7.9-9.8,12.2-6.1,7.3-11.6,13.6-3.3,3.9-.7,1.2-2.2,2.5-.7,1.2-3.2,3.7-7.7,9.4-2.2,2.4-4.1,4.6-4.3,4.6-10.2,10-16,13.7-5.4,4-10,6.7-5.6,3.7-3.9,1.7-7.8,4.3-5.7,2.3h0"/>
      </g>
    </g>
  </g>
</svg>