<?xml version="1.0" encoding="utf-8" standalone="no"?>
<!DOCTYPE svg PUBLIC "-//W3C//DTD SVG 1.1//EN"
  "http://www.w3.org/Graphics/SVG/1.1/DTD/svg11.dtd">
<svg xmlns:xlink="http://www.w3.org/1999/xlink" width="460.8pt" height="345.6pt" viewBox="0 0 460.8 345.6" xmlns="http://www.w3.org/2000/svg" version="1.1">
 <metadata>
  <rdf:RDF xmlns:dc="http://purl.org/dc/elements/1.1/" xmlns:cc="http://creativecommons.org/ns#" xmlns:rdf="http://www.w3.org/1999/02/22-rdf-syntax-ns#">
   <cc:Work>
    <dc:type rdf:resource="http://purl.org/dc/dcmitype/StillImage"/>
    <dc:date>2024-01-27T16:46:25.002054</dc:date>
    <dc:format>image/svg+xml</dc:format>
    <dc:creator>
     <cc:Agent>
      <dc:title>Matplotlib v3.6.2, https://matplotlib.org/</dc:title>
     </cc:Agent>
    </dc:creator>
   </cc:Work>
  </rdf:RDF>
 </metadata>
 <defs>
  <style type="text/css">*{stroke-linejoin: round; stroke-linecap: butt}</style>
 </defs>
 <g id="figure_1">
  <g id="patch_1">
   <path d="M 0 345.6 
L 460.8 345.6 
L 460.8 0 
L 0 0 
z
" style="fill: #ffffff"/>
  </g>
  <g id="axes_1">
   <g id="patch_2">
    <path d="M 235.788418 183.28862 
C 237.134594 183.28862 238.425816 182.753778 239.377706 181.801888 
C 240.329597 180.849998 240.864438 179.558776 240.864438 178.2126 
C 240.864438 176.866423 240.329597 175.575202 239.377706 174.623311 
C 238.425816 173.671421 237.134594 173.136579 235.788418 173.136579 
C 234.442242 173.136579 233.15102 173.671421 232.19913 174.623311 
C 231.247239 175.575202 230.712398 176.866423 230.712398 178.2126 
C 230.712398 179.558776 231.247239 180.849998 232.19913 181.801888 
C 233.15102 182.753778 234.442242 183.28862 235.788418 183.28862 
L 235.788418 183.28862 
z
" clip-path="url(#p2a91c3f7a4)" style="fill: none; stroke: #0000ff; stroke-linejoin: miter"/>
   </g>
   <g id="patch_3">
    <path d="M 235.788418 169.075763 
C 236.461506 169.075763 237.107117 168.808342 237.583062 168.332397 
C 238.059007 167.856452 238.326428 167.210841 238.326428 166.537753 
C 238.326428 165.864665 238.059007 165.219054 237.583062 164.743109 
C 237.107117 164.267163 236.461506 163.999743 235.788418 163.999743 
C 235.11533 163.999743 234.469719 164.267163 233.993774 164.743109 
C 233.517829 165.219054 233.250408 165.864665 233.250408 166.537753 
C 233.250408 167.210841 233.517829 167.856452 233.993774 168.332397 
C 234.469719 168.808342 235.11533 169.075763 235.788418 169.075763 
L 235.788418 169.075763 
z
" clip-path="url(#p2a91c3f7a4)" style="fill: none; stroke: #008000; stroke-linejoin: miter"/>
   </g>
   <g id="patch_4">
    <path d="M 247.463265 180.75061 
C 248.136353 180.75061 248.781964 180.483189 249.257909 180.007244 
C 249.733854 179.531299 250.001275 178.885688 250.001275 178.2126 
C 250.001275 177.539511 249.733854 176.893901 249.257909 176.417955 
C 248.781964 175.94201 248.136353 175.674589 247.463265 175.674589 
C 246.790177 175.674589 246.144566 175.94201 245.668621 176.417955 
C 245.192675 176.893901 244.925255 177.539511 244.925255 178.2126 
C 244.925255 178.885688 245.192675 179.531299 245.668621 180.007244 
C 246.144566 180.483189 246.790177 180.75061 247.463265 180.75061 
L 247.463265 180.75061 
z
" clip-path="url(#p2a91c3f7a4)" style="fill: none; stroke: #008000; stroke-linejoin: miter"/>
   </g>
   <g id="patch_5">
    <path d="M 227.819066 160.80185 
L 243.75777 160.80185 
L 243.75777 155.015187 
L 227.819066 155.015187 
L 227.819066 160.80185 
z
" clip-path="url(#p2a91c3f7a4)" style="fill: none; stroke: #ff0000; stroke-linejoin: miter"/>
   </g>
   <g id="patch_6">
    <path d="M 227.819066 201.410013 
L 243.75777 201.410013 
L 243.75777 195.623349 
L 227.819066 195.623349 
L 227.819066 201.410013 
z
" clip-path="url(#p2a91c3f7a4)" style="fill: none; stroke: #ffa500; stroke-linejoin: miter"/>
   </g>
   <g id="patch_7">
    <path d="M 253.199168 186.181952 
L 258.985831 186.181952 
L 258.985831 170.243248 
L 253.199168 170.243248 
L 253.199168 186.181952 
z
" clip-path="url(#p2a91c3f7a4)" style="fill: none; stroke: #ffff00; stroke-linejoin: miter"/>
   </g>
   <g id="patch_8">
    <path d="M 212.591005 186.181952 
L 218.377668 186.181952 
L 218.377668 170.243248 
L 212.591005 170.243248 
L 212.591005 186.181952 
z
" clip-path="url(#p2a91c3f7a4)" style="fill: none; stroke: #008000; stroke-linejoin: miter"/>
   </g>
   <g id="line2d_1">
    <path d="M 285.246534 281.884481 
L 281.730523 283.605718 
L 277.516733 285.409972 
L 271.697363 287.634404 
L 265.951293 289.597629 
L 260.765779 291.170665 
L 251.158974 293.738 
L 245.56304 294.937175 
L 242.364901 295.420268 
L 239.905024 295.48502 
L 235.954018 295.301903 
L 228.895335 294.743957 
L 223.84509 294.114605 
L 217.971223 292.937276 
L 213.43346 291.802833 
L 210.004755 290.676312 
L 205.802655 289.067674 
L 197.245875 285.460667 
L 188.347095 281.614063 
L 184.659494 280.24824 
L 184.5097 280.498712 
L 183.986304 280.723441 
L 183.244863 280.650665 
L 181.904939 280.190984 
L 179.631502 279.32234 
L 178.869615 279.230777 
L 178.541183 279.289645 
L 175.855502 278.284511 
L 173.079688 277.00903 
L 170.242114 275.454334 
L 166.449969 273.066905 
L 163.625137 271.056905 
L 160.3538 268.407999 
L 157.587292 265.863439 
L 155.756026 263.953026 
L 153.456387 261.124934 
L 151.194908 257.992168 
L 147.02034 252.055239 
L 143.703905 247.709186 
L 142.683922 246.635569 
L 138.695039 243.376438 
L 137.354346 242.165794 
L 134.064979 238.485451 
L 130.494637 234.473902 
L 128.5478 232.305052 
L 127.323616 230.59722 
L 126.23194 228.516577 
L 125.010536 225.63351 
L 123.494091 221.375882 
L 122.422766 217.444223 
L 121.542964 213.34643 
L 120.239246 206.777778 
L 119.420434 204.072772 
L 117.706008 199.030441 
L 116.649527 194.653455 
L 115.790618 190.166956 
L 115.12267 185.60344 
L 114.854987 182.659836 
L 114.617702 176.661085 
L 114.686969 173.581467 
L 115.12831 170.232037 
L 115.794127 166.779347 
L 117.869181 158.002004 
L 119.485594 152.181615 
L 120.542643 148.485335 
L 122.647279 140.532482 
L 123.885929 137.518373 
L 126.591357 131.179184 
L 128.894079 125.357205 
L 130.30328 121.790736 
L 132.442792 116.338322 
L 135.837816 108.957451 
L 138.191469 104.570258 
L 140.233924 101.189308 
L 142.869069 97.375953 
L 146.403292 92.724606 
L 148.044521 90.912373 
L 150.809034 88.273247 
L 156.40524 83.234665 
L 159.381742 80.856428 
L 166.376247 75.616403 
L 169.388613 72.994209 
L 174.975415 68.752454 
L 181.841863 64.148083 
L 182.84646 63.518986 
L 184.457764 62.047218 
L 186.296652 60.695945 
L 188.838587 59.163415 
L 191.579942 57.786825 
L 194.499637 56.574547 
L 198.154088 55.298643 
L 201.288099 54.368674 
L 203.999655 53.847947 
L 206.184438 53.626934 
L 208.508951 53.568 
L 210.98503 53.686799 
L 219.431636 54.567167 
L 224.664168 55.479462 
L 226.291498 55.717005 
L 231.580984 56.329194 
L 237.248376 56.951966 
L 239.639648 56.922778 
L 242.312576 56.602383 
L 246.996268 55.923137 
L 251.896858 55.563556 
L 256.338935 55.427219 
L 262.003786 55.538973 
L 263.7186 55.624744 
L 267.333197 54.912514 
L 272.214102 54.177578 
L 277.590768 54.823206 
L 283.009012 55.698469 
L 288.463069 56.851567 
L 291.503591 57.64568 
L 295.161716 59.225843 
L 299.372117 61.318941 
L 301.748278 62.500921 
L 302.943469 62.811483 
L 304.155582 62.936859 
L 305.395939 62.881209 
L 307.330647 62.523709 
L 310.737908 61.797942 
L 311.424619 61.751161 
L 312.524337 62.895619 
L 313.527147 64.420287 
L 314.447254 66.272505 
L 315.712538 69.554037 
L 317.2834 74.624112 
L 318.443436 78.765308 
L 321.641116 83.977786 
L 324.653001 89.319915 
L 325.479605 90.8628 
L 327.20106 98.061249 
L 328.657878 103.282139 
L 329.758449 106.618811 
L 330.834035 109.238787 
L 331.531407 110.412975 
L 334.538276 114.941789 
L 337.030838 119.089146 
L 339.054501 122.919151 
L 340.931561 126.83612 
L 342.269 141.078237 
L 343.170263 147.639422 
L 347.450085 163.072701 
L 348.624753 163.238417 
L 349.686877 163.47671 
L 350.465565 163.907341 
L 351.15832 164.639725 
L 351.74582 167.75022 
L 352.722346 173.984019 
L 353.2658 175.044801 
L 354.008014 175.866577 
L 354.949788 176.503763 
L 356.468278 177.207971 
L 356.884924 177.377985 
L 357.434533 180.508373 
L 357.68251 183.290758 
L 357.681186 185.664651 
L 357.404525 188.809097 
L 356.855407 192.095915 
L 356.061468 195.483228 
L 354.484192 200.928891 
L 352.913627 205.620647 
L 352.126695 207.649955 
L 349.210289 212.965562 
L 347.239996 216.978285 
L 344.094924 223.643588 
L 342.658936 226.130057 
L 340.891669 228.743803 
L 335.329098 234.963306 
L 327.195875 243.881716 
L 321.889953 249.994565 
L 318.793716 253.498906 
L 315.084938 257.737192 
L 310.051833 262.885894 
L 304.801497 267.944488 
L 298.249313 273.635983 
L 294.399968 276.364256 
L 290.770827 278.667777 
L 285.246534 281.884481 
L 285.246534 281.884481 
" clip-path="url(#p2a91c3f7a4)" style="fill: none; stroke: #1f77b4; stroke-width: 1.5; stroke-linecap: square"/>
   </g>
  </g>
 </g>
 <defs>
  <clipPath id="p2a91c3f7a4">
   <rect x="102.45795" y="41.472" width="267.404099" height="266.112"/>
  </clipPath>
 </defs>
</svg>
