<?xml version="1.0" encoding="utf-8" standalone="no"?>
<!DOCTYPE svg PUBLIC "-//W3C//DTD SVG 1.1//EN"
  "http://www.w3.org/Graphics/SVG/1.1/DTD/svg11.dtd">
<svg xmlns:xlink="http://www.w3.org/1999/xlink" width="460.8pt" height="345.6pt" viewBox="0 0 460.8 345.6" xmlns="http://www.w3.org/2000/svg" version="1.1">
 <metadata>
  <rdf:RDF xmlns:dc="http://purl.org/dc/elements/1.1/" xmlns:cc="http://creativecommons.org/ns#" xmlns:rdf="http://www.w3.org/1999/02/22-rdf-syntax-ns#">
   <cc:Work>
    <dc:type rdf:resource="http://purl.org/dc/dcmitype/StillImage"/>
    <dc:date>2024-04-05T14:52:37.386162</dc:date>
    <dc:format>image/svg+xml</dc:format>
    <dc:creator>
     <cc:Agent>
      <dc:title>Matplotlib v3.6.2, https://matplotlib.org/</dc:title>
     </cc:Agent>
    </dc:creator>
   </cc:Work>
  </rdf:RDF>
 </metadata>
 <defs>
  <style type="text/css">*{stroke-linejoin: round; stroke-linecap: butt}</style>
 </defs>
 <g id="figure_1">
  <g id="patch_1">
   <path d="M 0 345.6 
L 460.8 345.6 
L 460.8 0 
L 0 0 
z
" style="fill: #ffffff"/>
  </g>
  <g id="axes_1">
   <g id="patch_2">
    <path d="M 232.478137 187.111691 
C 233.833071 187.111691 235.132694 186.57337 236.090777 185.615286 
C 237.048861 184.657203 237.587182 183.35758 237.587182 182.002645 
C 237.587182 180.647711 237.048861 179.348088 236.090777 178.390004 
C 235.132694 177.431921 233.833071 176.8936 232.478137 176.8936 
C 231.123202 176.8936 229.823579 177.431921 228.865496 178.390004 
C 227.907412 179.348088 227.369091 180.647711 227.369091 182.002645 
C 227.369091 183.35758 227.907412 184.657203 228.865496 185.615286 
C 229.823579 186.57337 231.123202 187.111691 232.478137 187.111691 
L 232.478137 187.111691 
z
" clip-path="url(#p12a4adedf6)" style="fill: none; stroke: #0000ff; stroke-linejoin: miter"/>
   </g>
   <g id="patch_3">
    <path d="M 232.478137 172.806363 
C 233.155604 172.806363 233.805415 172.537203 234.284457 172.058161 
C 234.763499 171.579119 235.032659 170.929308 235.032659 170.25184 
C 235.032659 169.574373 234.763499 168.924562 234.284457 168.44552 
C 233.805415 167.966478 233.155604 167.697317 232.478137 167.697317 
C 231.800669 167.697317 231.150858 167.966478 230.671816 168.44552 
C 230.192774 168.924562 229.923614 169.574373 229.923614 170.25184 
C 229.923614 170.929308 230.192774 171.579119 230.671816 172.058161 
C 231.150858 172.537203 231.800669 172.806363 232.478137 172.806363 
L 232.478137 172.806363 
z
" clip-path="url(#p12a4adedf6)" style="fill: none; stroke: #008000; stroke-linejoin: miter"/>
   </g>
   <g id="patch_4">
    <path d="M 244.228942 184.557168 
C 244.906409 184.557168 245.55622 184.288007 246.035262 183.808966 
C 246.514304 183.329924 246.783464 182.680113 246.783464 182.002645 
C 246.783464 181.325178 246.514304 180.675367 246.035262 180.196325 
C 245.55622 179.717283 244.906409 179.448122 244.228942 179.448122 
C 243.551474 179.448122 242.901663 179.717283 242.422621 180.196325 
C 241.943579 180.675367 241.674419 181.325178 241.674419 182.002645 
C 241.674419 182.680113 241.943579 183.329924 242.422621 183.808966 
C 242.901663 184.288007 243.551474 184.557168 244.228942 184.557168 
L 244.228942 184.557168 
z
" clip-path="url(#p12a4adedf6)" style="fill: none; stroke: #008000; stroke-linejoin: miter"/>
   </g>
   <g id="patch_5">
    <path d="M 224.456935 164.478619 
L 240.499338 164.478619 
L 240.499338 158.654307 
L 224.456935 158.654307 
L 224.456935 164.478619 
z
" clip-path="url(#p12a4adedf6)" style="fill: none; stroke: #ff0000; stroke-linejoin: miter"/>
   </g>
   <g id="patch_6">
    <path d="M 224.456935 205.350984 
L 240.499338 205.350984 
L 240.499338 199.526672 
L 224.456935 199.526672 
L 224.456935 205.350984 
z
" clip-path="url(#p12a4adedf6)" style="fill: none; stroke: #ffa500; stroke-linejoin: miter"/>
   </g>
   <g id="patch_7">
    <path d="M 250.002163 190.023847 
L 255.826475 190.023847 
L 255.826475 173.981444 
L 250.002163 173.981444 
L 250.002163 190.023847 
z
" clip-path="url(#p12a4adedf6)" style="fill: none; stroke: #ffff00; stroke-linejoin: miter"/>
   </g>
   <g id="patch_8">
    <path d="M 209.129798 190.023847 
L 214.95411 190.023847 
L 214.95411 173.981444 
L 209.129798 173.981444 
L 209.129798 190.023847 
z
" clip-path="url(#p12a4adedf6)" style="fill: none; stroke: #008000; stroke-linejoin: miter"/>
   </g>
   <g id="line2d_1">
    <path d="M 283.691759 286.458592 
L 271.481821 290.255395 
L 265.511135 291.867318 
L 261.61862 292.792467 
L 257.59482 293.559701 
L 255.722273 293.925736 
L 254.314292 294.113647 
L 251.638182 294.47782 
L 239.083841 295.438789 
L 236.491174 295.488 
L 234.337036 295.405357 
L 232.377477 295.361226 
L 230.540281 295.334084 
L 222.743274 294.703353 
L 215.055842 293.567213 
L 207.079707 291.902107 
L 203.35035 290.877518 
L 199.809586 289.835404 
L 196.259739 288.643206 
L 187.309412 285.167809 
L 184.726442 284.070738 
L 175.984439 280.349379 
L 174.98638 279.80219 
L 171.720265 278.074225 
L 165.638248 274.353114 
L 160.092344 270.334588 
L 158.708647 269.205862 
L 157.873048 268.613074 
L 155.648973 266.72938 
L 150.936736 262.4248 
L 147.635768 259.050934 
L 142.200826 252.845888 
L 140.36118 250.498709 
L 139.653594 249.615861 
L 135.240342 243.501105 
L 132.721028 239.600685 
L 131.518763 237.595795 
L 128.141303 231.630783 
L 127.611958 230.609262 
L 126.863463 228.763819 
L 125.209426 224.673418 
L 124.129836 221.679695 
L 120.885017 210.904906 
L 119.557169 205.76643 
L 118.777594 202.379237 
L 118.606441 201.054644 
L 117.554175 195.448549 
L 116.733588 189.859166 
L 116.47273 187.619893 
L 116.461266 186.307114 
L 116.254791 184.08199 
L 116.229346 182.860955 
L 115.80915 176.886528 
L 115.627515 172.01973 
L 115.49646 165.663611 
L 115.672067 164.95037 
L 115.676049 164.419841 
L 117.523932 156.06547 
L 118.929411 151.494273 
L 118.974601 150.990674 
L 121.167325 144.70278 
L 121.279903 144.17715 
L 124.5392 136.739905 
L 127.024118 131.896804 
L 129.655579 127.218561 
L 132.071093 123.261759 
L 133.245345 121.548169 
L 136.554721 116.722675 
L 138.629162 113.717949 
L 138.820409 113.293357 
L 142.638557 108.057617 
L 146.64548 102.715784 
L 147.580771 101.437969 
L 148.980883 99.719954 
L 151.103653 97.189812 
L 151.753735 96.368071 
L 153.566055 94.309815 
L 156.390671 91.093693 
L 162.906536 84.487267 
L 166.788715 81.159696 
L 168.181316 80.089601 
L 169.715582 79.058463 
L 171.955874 77.75154 
L 172.928193 77.084326 
L 173.611215 76.794438 
L 174.089769 76.464883 
L 175.409448 75.892092 
L 175.858048 75.562947 
L 177.697876 74.70456 
L 178.632642 74.073009 
L 179.934374 73.545901 
L 180.978608 72.960622 
L 182.543568 72.096808 
L 183.314828 71.889233 
L 183.803166 71.598303 
L 184.960542 71.079369 
L 192.827361 67.156734 
L 193.609944 67.022979 
L 196.088951 65.742295 
L 205.608029 60.486768 
L 207.698681 59.559932 
L 209.699773 59.213095 
L 211.811262 58.984941 
L 212.40165 58.823207 
L 213.126566 58.775222 
L 213.673286 58.581605 
L 214.353243 58.502411 
L 217.029813 57.500678 
L 220.396996 57.179741 
L 222.356963 56.967051 
L 226.202566 55.76787 
L 227.931878 55.345015 
L 229.334062 55.368037 
L 231.210034 55.149474 
L 232.392785 54.925776 
L 234.713992 54.423816 
L 236.142797 54.554547 
L 238.246882 54.729771 
L 238.836923 54.632839 
L 240.791106 54.628238 
L 242.590725 54.400189 
L 247.91212 53.568 
L 248.641886 53.742511 
L 251.316941 54.006297 
L 253.94132 54.221715 
L 254.547173 54.170001 
L 255.811403 54.186999 
L 260.732434 53.903413 
L 261.410068 54.043722 
L 262.039053 54.043015 
L 262.709635 54.170303 
L 267.041129 56.087946 
L 274.092101 59.623915 
L 276.857803 61.187275 
L 278.916762 62.442425 
L 281.605322 64.089876 
L 284.261489 65.837223 
L 285.562572 66.68751 
L 292.570611 71.854762 
L 299.24229 77.588474 
L 306.60488 84.794367 
L 311.87517 90.703856 
L 318.12061 98.119717 
L 322.51238 103.963492 
L 326.546754 109.976929 
L 330.910814 117.293915 
L 331.92398 119.06461 
L 332.574257 120.42506 
L 334.153739 123.461639 
L 336.775441 129.001655 
L 339.855112 136.32733 
L 341.889805 141.668226 
L 343.086645 145.333369 
L 346.37854 155.256324 
L 346.594803 155.657078 
L 347.07281 157.298586 
L 347.724884 159.382102 
L 348.199864 160.937457 
L 349.537629 165.613848 
L 349.824139 166.643707 
L 350.170234 168.3175 
L 350.483067 169.278064 
L 351.026517 171.320467 
L 351.357351 172.95177 
L 352.248863 176.525126 
L 353.944222 184.952884 
L 354.130995 186.020759 
L 354.508014 188.147975 
L 355.515497 194.622981 
L 355.755273 197.453059 
L 355.844389 198.587139 
L 356.163665 200.763922 
L 356.292141 202.470826 
L 356.566257 205.286856 
L 356.592689 206.460629 
L 356.678206 208.198554 
L 356.781468 211.121151 
L 356.82354 211.697993 
L 355.645187 214.548599 
L 350.842944 224.333869 
L 349.659732 226.392532 
L 348.815172 227.765387 
L 348.09696 229.078629 
L 346.866504 231.073446 
L 343.525425 236.245419 
L 341.264884 239.407971 
L 340.928739 239.994871 
L 338.12271 243.668899 
L 336.792398 245.435118 
L 330.094775 253.365861 
L 322.909493 260.682271 
L 319.745866 263.614983 
L 318.171427 265.032458 
L 315.98254 266.884669 
L 313.79872 268.679424 
L 312.846899 269.542741 
L 307.738011 273.334376 
L 306.635319 274.136767 
L 305.529501 274.926075 
L 303.335792 276.465024 
L 294.283912 282.109608 
L 292.996218 282.749406 
L 291.740782 283.376416 
L 283.728645 286.461872 
L 283.728645 286.461872 
" clip-path="url(#p12a4adedf6)" style="fill: none; stroke: #1f77b4; stroke-width: 1.5; stroke-linecap: square"/>
   </g>
  </g>
 </g>
 <defs>
  <clipPath id="p12a4adedf6">
   <rect x="103.430106" y="41.472" width="265.459789" height="266.112"/>
  </clipPath>
 </defs>
</svg>
