<?xml version="1.0" encoding="utf-8" standalone="no"?>
<!DOCTYPE svg PUBLIC "-//W3C//DTD SVG 1.1//EN"
  "http://www.w3.org/Graphics/SVG/1.1/DTD/svg11.dtd">
<svg xmlns:xlink="http://www.w3.org/1999/xlink" width="460.8pt" height="345.6pt" viewBox="0 0 460.8 345.6" xmlns="http://www.w3.org/2000/svg" version="1.1">
 <metadata>
  <rdf:RDF xmlns:dc="http://purl.org/dc/elements/1.1/" xmlns:cc="http://creativecommons.org/ns#" xmlns:rdf="http://www.w3.org/1999/02/22-rdf-syntax-ns#">
   <cc:Work>
    <dc:type rdf:resource="http://purl.org/dc/dcmitype/StillImage"/>
    <dc:date>2024-01-27T17:16:32.246884</dc:date>
    <dc:format>image/svg+xml</dc:format>
    <dc:creator>
     <cc:Agent>
      <dc:title>Matplotlib v3.6.2, https://matplotlib.org/</dc:title>
     </cc:Agent>
    </dc:creator>
   </cc:Work>
  </rdf:RDF>
 </metadata>
 <defs>
  <style type="text/css">*{stroke-linejoin: round; stroke-linecap: butt}</style>
 </defs>
 <g id="figure_1">
  <g id="patch_1">
   <path d="M 0 345.6 
L 460.8 345.6 
L 460.8 0 
L 0 0 
z
" style="fill: #ffffff"/>
  </g>
  <g id="axes_1">
   <g id="patch_2">
    <path d="M 251.217054 191.490959 
C 252.524493 191.490959 253.778559 190.971508 254.703058 190.047009 
C 255.627556 189.12251 256.147007 187.868445 256.147007 186.561006 
C 256.147007 185.253567 255.627556 183.999501 254.703058 183.075002 
C 253.778559 182.150503 252.524493 181.631052 251.217054 181.631052 
C 249.909615 181.631052 248.655549 182.150503 247.73105 183.075002 
C 246.806551 183.999501 246.2871 185.253567 246.2871 186.561006 
C 246.2871 187.868445 246.806551 189.12251 247.73105 190.047009 
C 248.655549 190.971508 249.909615 191.490959 251.217054 191.490959 
L 251.217054 191.490959 
z
" clip-path="url(#pe25c7b34cf)" style="fill: none; stroke: #0000ff; stroke-linejoin: miter"/>
   </g>
   <g id="patch_3">
    <path d="M 251.217054 174.236122 
C 251.870773 174.236122 252.497806 173.976396 252.960056 173.514147 
C 253.422305 173.051897 253.682031 172.424865 253.682031 171.771145 
C 253.682031 171.117426 253.422305 170.490393 252.960056 170.028143 
C 252.497806 169.565894 251.870773 169.306168 251.217054 169.306168 
C 250.563334 169.306168 249.936302 169.565894 249.474052 170.028143 
C 249.011803 170.490393 248.752077 171.117426 248.752077 171.771145 
C 248.752077 172.424865 249.011803 173.051897 249.474052 173.514147 
C 249.936302 173.976396 250.563334 174.236122 251.217054 174.236122 
L 251.217054 174.236122 
z
" clip-path="url(#pe25c7b34cf)" style="fill: none; stroke: #008000; stroke-linejoin: miter"/>
   </g>
   <g id="patch_4">
    <path d="M 266.006915 189.025983 
C 266.660634 189.025983 267.287667 188.766257 267.749916 188.304008 
C 268.212166 187.841758 268.471891 187.214725 268.471891 186.561006 
C 268.471891 185.907286 268.212166 185.280253 267.749916 184.818004 
C 267.287667 184.355754 266.660634 184.096029 266.006915 184.096029 
C 265.353195 184.096029 264.726162 184.355754 264.263913 184.818004 
C 263.801663 185.280253 263.541938 185.907286 263.541938 186.561006 
C 263.541938 187.214725 263.801663 187.841758 264.263913 188.304008 
C 264.726162 188.766257 265.353195 189.025983 266.006915 189.025983 
L 266.006915 189.025983 
z
" clip-path="url(#pe25c7b34cf)" style="fill: none; stroke: #008000; stroke-linejoin: miter"/>
   </g>
   <g id="patch_5">
    <path d="M 241.01205 172.116242 
L 261.422058 172.116242 
L 261.422058 161.566141 
L 241.01205 161.566141 
L 241.01205 172.116242 
z
" clip-path="url(#pe25c7b34cf)" style="fill: none; stroke: #ff0000; stroke-linejoin: miter"/>
   </g>
   <g id="patch_6">
    <path d="M 241.01205 211.55587 
L 261.422058 211.55587 
L 261.422058 201.00577 
L 241.01205 201.00577 
L 241.01205 211.55587 
z
" clip-path="url(#pe25c7b34cf)" style="fill: none; stroke: #ffa500; stroke-linejoin: miter"/>
   </g>
   <g id="patch_7">
    <path d="M 265.661818 196.76601 
L 276.211919 196.76601 
L 276.211919 176.356002 
L 265.661818 176.356002 
L 265.661818 196.76601 
z
" clip-path="url(#pe25c7b34cf)" style="fill: none; stroke: #ffff00; stroke-linejoin: miter"/>
   </g>
   <g id="patch_8">
    <path d="M 226.222189 196.76601 
L 236.77229 196.76601 
L 236.77229 176.356002 
L 226.222189 176.356002 
L 226.222189 196.76601 
z
" clip-path="url(#pe25c7b34cf)" style="fill: none; stroke: #008000; stroke-linejoin: miter"/>
   </g>
   <g id="line2d_1">
    <path d="M 285.940274 287.951502 
L 284.197662 288.559408 
L 279.209985 290.064098 
L 273.138533 291.595379 
L 263.881814 293.371062 
L 259.584677 294.035561 
L 256.96576 294.396705 
L 255.214653 294.548668 
L 250.459503 295.011711 
L 245.678677 295.323326 
L 240.324221 295.488 
L 231.655905 295.343818 
L 226.162866 294.982339 
L 218.471939 294.214002 
L 214.56535 293.656046 
L 210.177274 292.318996 
L 207.934437 291.859598 
L 205.431835 290.934044 
L 201.47676 289.904461 
L 199.769181 289.409331 
L 198.568206 288.930699 
L 192.872069 287.048903 
L 187.726992 285.095937 
L 185.440412 284.159073 
L 184.834075 283.753093 
L 180.271297 281.699185 
L 176.85159 280.012467 
L 176.27001 279.547479 
L 175.702418 279.24906 
L 175.125567 278.77615 
L 170.613044 276.226523 
L 166.131923 273.463267 
L 161.692728 270.471716 
L 157.305275 267.255163 
L 153.512166 264.268077 
L 149.248536 260.620475 
L 145.583033 257.240835 
L 144.54706 256.244417 
L 144.111053 255.583991 
L 140.061174 251.408976 
L 136.128084 246.983638 
L 132.771641 242.933512 
L 128.614807 237.44135 
L 125.092021 232.286073 
L 121.739176 226.883686 
L 118.16953 220.524734 
L 115.228712 214.600688 
L 112.463008 208.454412 
L 112.313998 207.594486 
L 110.742144 203.612544 
L 109.581949 200.351475 
L 109.403873 197.681818 
L 109.160567 196.847163 
L 108.999744 191.492527 
L 108.993652 190.599823 
L 109.188835 189.661174 
L 109.194488 188.769801 
L 109.400855 187.834367 
L 109.593408 182.498659 
L 109.704642 180.722802 
L 109.5753 179.868962 
L 109.8922 176.320873 
L 109.792816 175.462368 
L 110.479633 170.159448 
L 111.375436 164.891174 
L 111.901139 162.272692 
L 111.898076 161.410742 
L 112.703061 157.939362 
L 112.73007 157.077491 
L 113.178609 155.351747 
L 113.223712 154.489797 
L 113.956699 151.915514 
L 114.025849 151.054658 
L 114.287335 150.200888 
L 114.368618 149.340035 
L 114.920161 147.639956 
L 115.01951 146.780276 
L 115.605017 145.090217 
L 115.722402 144.232125 
L 116.659478 141.71646 
L 116.948204 140.0066 
L 117.623496 138.346151 
L 117.788896 137.493793 
L 118.49731 135.846001 
L 118.680562 134.996742 
L 119.048547 134.178229 
L 119.243818 133.33076 
L 119.622854 132.516551 
L 120.043637 130.825898 
L 120.439389 130.018001 
L 120.896603 128.332695 
L 121.308951 127.531486 
L 121.80252 125.852424 
L 122.231332 125.058279 
L 122.493126 124.221918 
L 123.377242 122.647093 
L 123.65647 121.816043 
L 124.571844 120.258314 
L 124.868377 119.432964 
L 126.780534 116.366249 
L 127.105134 115.552125 
L 127.600793 114.796432 
L 128.627468 112.370354 
L 129.144029 111.626352 
L 130.24145 109.22268 
L 130.778596 108.491002 
L 131.161767 107.696178 
L 131.708765 106.971252 
L 132.103166 106.181336 
L 132.659922 105.463302 
L 133.477001 103.895654 
L 134.048535 103.18788 
L 134.471103 102.410413 
L 135.6376 101.013353 
L 136.076156 100.244776 
L 137.270083 98.870689 
L 137.724418 98.111346 
L 138.33274 97.43398 
L 138.797772 96.680626 
L 140.03678 95.345652 
L 140.517232 94.602104 
L 141.78236 93.29158 
L 142.278006 92.558167 
L 143.56874 91.272624 
L 144.079344 90.549669 
L 145.395162 89.289626 
L 145.920483 88.577446 
L 146.588759 87.958148 
L 147.124071 87.253014 
L 148.480968 86.036231 
L 149.030584 85.342397 
L 151.106856 83.564526 
L 151.674816 82.886518 
L 153.796175 81.164063 
L 154.381997 80.502377 
L 158.741881 77.214881 
L 162.46451 74.611952 
L 169.040851 71.133556 
L 175.600066 67.860594 
L 181.293501 65.128057 
L 194.962708 60.244384 
L 203.471123 57.669284 
L 204.343624 57.462 
L 205.117739 57.129277 
L 208.626875 56.385775 
L 209.537009 56.257238 
L 210.321077 55.957958 
L 218.198966 54.621369 
L 225.263618 53.879535 
L 232.365794 53.569383 
L 236.846801 53.660137 
L 240.443806 53.88438 
L 244.882762 54.221944 
L 249.35952 54.83611 
L 252.900836 55.397015 
L 259.926634 56.828519 
L 266.000465 58.424469 
L 271.972806 60.29205 
L 277.017433 62.149331 
L 281.960829 64.17216 
L 286.81192 66.404199 
L 291.549304 68.795056 
L 297.705608 72.323762 
L 302.172646 75.142015 
L 303.604956 75.992875 
L 304.298707 76.344291 
L 304.955968 76.537984 
L 305.646109 76.898599 
L 308.270085 77.735014 
L 310.959641 79.132583 
L 312.261286 79.613026 
L 312.930623 80.023615 
L 313.579286 80.274956 
L 314.906234 81.118518 
L 315.550879 81.383243 
L 316.208294 81.816137 
L 316.850561 82.089742 
L 318.152854 82.977573 
L 319.427684 83.55579 
L 326.939609 89.021464 
L 329.342682 91.084523 
L 333.879607 96.568817 
L 336.563332 100.027453 
L 338.617414 102.895166 
L 340.600583 105.726255 
L 341.098554 106.322866 
L 345.228161 112.865361 
L 345.692239 113.41616 
L 347.394274 116.304315 
L 348.993737 119.344316 
L 349.785015 120.763388 
L 354.678048 131.294654 
L 355.296567 132.819217 
L 355.893847 134.351771 
L 356.46978 135.892046 
L 357.070002 137.287994 
L 359.219936 144.581521 
L 359.493291 145.217139 
L 360.49395 149.244439 
L 361.935424 156.578745 
L 362.809966 163.202469 
L 363.087305 166.575307 
L 363.323843 174.269606 
L 363.226755 178.584807 
L 362.961754 183.663156 
L 362.163316 191.256387 
L 361.146476 197.232067 
L 359.533859 204.647693 
L 357.466361 211.941717 
L 355.854737 216.702187 
L 353.048322 224.070243 
L 350.335419 230.24047 
L 346.394804 237.93237 
L 345.060961 240.313152 
L 342.454565 244.760047 
L 338.462162 250.247683 
L 332.881439 256.991209 
L 326.555039 263.583954 
L 317.558182 271.492529 
L 313.487572 274.5999 
L 308.141358 277.89355 
L 301.445184 281.521329 
L 294.666313 284.648439 
L 287.203004 287.510268 
L 285.940541 287.951456 
L 285.940541 287.951456 
" clip-path="url(#pe25c7b34cf)" style="fill: none; stroke: #1f77b4; stroke-width: 1.5; stroke-linecap: square"/>
   </g>
  </g>
 </g>
 <defs>
  <clipPath id="pe25c7b34cf">
   <rect x="96.277017" y="41.472" width="279.765966" height="266.112"/>
  </clipPath>
 </defs>
</svg>
