<?xml version="1.0" encoding="utf-8" standalone="no"?>
<!DOCTYPE svg PUBLIC "-//W3C//DTD SVG 1.1//EN"
  "http://www.w3.org/Graphics/SVG/1.1/DTD/svg11.dtd">
<svg xmlns:xlink="http://www.w3.org/1999/xlink" width="460.8pt" height="345.6pt" viewBox="0 0 460.8 345.6" xmlns="http://www.w3.org/2000/svg" version="1.1">
 <metadata>
  <rdf:RDF xmlns:dc="http://purl.org/dc/elements/1.1/" xmlns:cc="http://creativecommons.org/ns#" xmlns:rdf="http://www.w3.org/1999/02/22-rdf-syntax-ns#">
   <cc:Work>
    <dc:type rdf:resource="http://purl.org/dc/dcmitype/StillImage"/>
    <dc:date>2024-01-27T16:43:44.342307</dc:date>
    <dc:format>image/svg+xml</dc:format>
    <dc:creator>
     <cc:Agent>
      <dc:title>Matplotlib v3.6.2, https://matplotlib.org/</dc:title>
     </cc:Agent>
    </dc:creator>
   </cc:Work>
  </rdf:RDF>
 </metadata>
 <defs>
  <style type="text/css">*{stroke-linejoin: round; stroke-linecap: butt}</style>
 </defs>
 <g id="figure_1">
  <g id="patch_1">
   <path d="M 0 345.6 
L 460.8 345.6 
L 460.8 0 
L 0 0 
z
" style="fill: #ffffff"/>
  </g>
  <g id="axes_1">
   <g id="patch_2">
    <path d="M 241.566613 194.13548 
C 242.765456 194.13548 243.915358 193.659175 244.763067 192.811466 
C 245.610777 191.963756 246.087082 190.813854 246.087082 189.615011 
C 246.087082 188.416169 245.610777 187.266267 244.763067 186.418557 
C 243.915358 185.570848 242.765456 185.094543 241.566613 185.094543 
C 240.367771 185.094543 239.217869 185.570848 238.370159 186.418557 
C 237.522449 187.266267 237.046144 188.416169 237.046144 189.615011 
C 237.046144 190.813854 237.522449 191.963756 238.370159 192.811466 
C 239.217869 193.659175 240.367771 194.13548 241.566613 194.13548 
L 241.566613 194.13548 
z
" clip-path="url(#p643d9a02f1)" style="fill: none; stroke: #0000ff; stroke-linejoin: miter"/>
   </g>
   <g id="patch_3">
    <path d="M 241.566613 178.313839 
C 242.166034 178.313839 242.740986 178.075687 243.16484 177.651832 
C 243.588695 177.227977 243.826848 176.653026 243.826848 176.053605 
C 243.826848 175.454184 243.588695 174.879232 243.16484 174.455378 
C 242.740986 174.031523 242.166034 173.79337 241.566613 173.79337 
C 240.967192 173.79337 240.392241 174.031523 239.968386 174.455378 
C 239.544531 174.879232 239.306379 175.454184 239.306379 176.053605 
C 239.306379 176.653026 239.544531 177.227977 239.968386 177.651832 
C 240.392241 178.075687 240.967192 178.313839 241.566613 178.313839 
L 241.566613 178.313839 
z
" clip-path="url(#p643d9a02f1)" style="fill: none; stroke: #008000; stroke-linejoin: miter"/>
   </g>
   <g id="patch_4">
    <path d="M 255.12802 191.875246 
C 255.727441 191.875246 256.302392 191.637093 256.726247 191.213239 
C 257.150102 190.789384 257.388254 190.214433 257.388254 189.615011 
C 257.388254 189.01559 257.150102 188.440639 256.726247 188.016784 
C 256.302392 187.59293 255.727441 187.354777 255.12802 187.354777 
C 254.528599 187.354777 253.953648 187.59293 253.529793 188.016784 
C 253.105938 188.440639 252.867786 189.01559 252.867786 189.615011 
C 252.867786 190.214433 253.105938 190.789384 253.529793 191.213239 
C 253.953648 191.637093 254.528599 191.875246 255.12802 191.875246 
L 255.12802 191.875246 
z
" clip-path="url(#p643d9a02f1)" style="fill: none; stroke: #008000; stroke-linejoin: miter"/>
   </g>
   <g id="patch_5">
    <path d="M 232.209243 176.370038 
L 250.923984 176.370038 
L 250.923984 166.696234 
L 232.209243 166.696234 
L 232.209243 176.370038 
z
" clip-path="url(#p643d9a02f1)" style="fill: none; stroke: #ff0000; stroke-linejoin: miter"/>
   </g>
   <g id="patch_6">
    <path d="M 232.209243 212.533789 
L 250.923984 212.533789 
L 250.923984 202.859985 
L 232.209243 202.859985 
L 232.209243 212.533789 
z
" clip-path="url(#p643d9a02f1)" style="fill: none; stroke: #ffa500; stroke-linejoin: miter"/>
   </g>
   <g id="patch_7">
    <path d="M 254.811587 198.972382 
L 264.485391 198.972382 
L 264.485391 180.257641 
L 254.811587 180.257641 
L 254.811587 198.972382 
z
" clip-path="url(#p643d9a02f1)" style="fill: none; stroke: #ffff00; stroke-linejoin: miter"/>
   </g>
   <g id="patch_8">
    <path d="M 218.647836 198.972382 
L 228.321639 198.972382 
L 228.321639 180.257641 
L 218.647836 180.257641 
L 218.647836 198.972382 
z
" clip-path="url(#p643d9a02f1)" style="fill: none; stroke: #008000; stroke-linejoin: miter"/>
   </g>
   <g id="line2d_1">
    <path d="M 273.397037 282.585441 
L 267.011352 285.181354 
L 260.916604 287.415131 
L 255.150945 289.29821 
L 249.144311 291.011445 
L 244.775771 292.086985 
L 243.39076 292.310067 
L 237.538944 293.467234 
L 233.520512 294.125684 
L 232.062781 294.235633 
L 226.500282 294.882699 
L 220.744936 295.306334 
L 215.553264 295.476256 
L 210.215303 295.435551 
L 204.735783 295.167503 
L 199.117967 294.646828 
L 194.199159 293.987143 
L 193.371259 293.862369 
L 192.521963 293.597 
L 187.494235 292.643769 
L 181.527884 291.255614 
L 175.452117 289.618475 
L 173.697127 289.086827 
L 172.840981 288.673178 
L 168.429247 287.144047 
L 163.983237 285.415441 
L 158.621668 283.050207 
L 153.254226 280.350284 
L 147.913934 277.291266 
L 147.112835 276.616637 
L 142.720069 273.74727 
L 138.394999 270.61151 
L 135.849411 268.593259 
L 135.26346 267.633463 
L 134.581001 266.778018 
L 132.907395 263.848317 
L 131.261709 259.441381 
L 129.516452 253.7893 
L 127.405037 245.871822 
L 126.309545 240.070179 
L 125.466423 234.245688 
L 124.876865 228.408542 
L 124.341679 220.344533 
L 124.331724 214.540187 
L 124.557461 208.770913 
L 125.026211 203.039931 
L 125.728664 197.362638 
L 126.667672 191.745046 
L 128.254071 184.077727 
L 129.743308 178.643912 
L 131.459776 173.301284 
L 133.400208 168.058738 
L 135.911562 161.971904 
L 138.348329 156.9689 
L 141.237215 151.293305 
L 142.037203 149.552194 
L 142.870635 147.825045 
L 143.495734 146.220354 
L 144.461626 143.181816 
L 145.702796 137.409079 
L 146.159429 135.92126 
L 147.538279 130.751535 
L 149.230469 125.484467 
L 151.218814 120.143411 
L 153.156457 115.516708 
L 153.850152 113.965523 
L 154.354123 113.213422 
L 157.032019 107.764114 
L 159.592377 103.067186 
L 162.40725 98.355395 
L 165.485244 93.637019 
L 167.130614 91.280904 
L 167.825483 90.579988 
L 171.375528 85.895797 
L 174.567017 82.01874 
L 177.984281 78.18322 
L 181.632783 74.401991 
L 182.503568 73.791282 
L 185.633248 70.848129 
L 189.775474 67.271825 
L 193.28249 64.524881 
L 195.100405 63.196799 
L 197.110021 62.213504 
L 199.007942 60.969343 
L 204.149889 58.621983 
L 205.264476 58.363976 
L 208.462525 57.196711 
L 209.588406 56.979891 
L 211.749688 56.273797 
L 214.016728 55.912582 
L 215.108879 55.596075 
L 217.385198 55.296882 
L 218.485632 55.011922 
L 226.457038 54.213117 
L 232.183627 54.058388 
L 235.615943 54.088359 
L 236.779283 54.264709 
L 239.060703 54.355332 
L 242.38371 53.620116 
L 243.514918 53.568 
L 244.657365 53.671244 
L 245.789263 53.640538 
L 253.733806 54.577473 
L 254.863003 54.91244 
L 257.110782 55.33006 
L 258.229613 55.69282 
L 259.346487 55.925816 
L 261.565065 56.696606 
L 264.897129 57.101046 
L 272.548192 59.212514 
L 273.626317 59.571618 
L 274.685911 60.071984 
L 276.821644 60.835988 
L 279.940926 62.43968 
L 281.970344 63.710994 
L 282.987745 64.277259 
L 288.097789 66.598176 
L 291.107099 68.096686 
L 292.074949 68.737557 
L 293.965983 70.16538 
L 297.688071 73.011226 
L 299.502593 74.501916 
L 304.75234 79.232454 
L 308.913024 83.391549 
L 314.457284 89.308821 
L 318.882995 94.660611 
L 323.675774 101.123462 
L 326.257647 104.836025 
L 332.677047 115.328725 
L 336.838746 122.87865 
L 338.695938 126.772391 
L 339.928343 129.865198 
L 341.767614 135.12691 
L 342.770332 138.285609 
L 344.223415 143.640703 
L 344.992899 146.849195 
L 346.069524 152.245576 
L 346.899972 157.671329 
L 347.73817 165.155718 
L 347.977138 170.61136 
L 348.007735 174.946368 
L 347.816452 180.363332 
L 347.379179 185.756308 
L 346.697302 191.114746 
L 345.77263 196.428194 
L 344.607386 201.686317 
L 343.509285 205.839755 
L 341.875978 211.019264 
L 339.965376 216.160212 
L 337.821373 221.206727 
L 335.463842 226.133281 
L 332.400799 231.835565 
L 329.627961 236.436172 
L 326.609281 240.937242 
L 323.383538 245.298047 
L 319.955906 249.510686 
L 316.331747 253.567562 
L 312.580236 257.411367 
L 304.469119 265.390069 
L 302.357334 267.423911 
L 300.597054 268.833452 
L 297.251255 271.224334 
L 292.666684 274.252941 
L 289.882271 275.89374 
L 284.328929 278.472 
L 279.36511 280.43289 
L 273.394991 282.585791 
L 273.394991 282.585791 
" clip-path="url(#p643d9a02f1)" style="fill: none; stroke: #1f77b4; stroke-width: 1.5; stroke-linecap: square"/>
   </g>
  </g>
 </g>
 <defs>
  <clipPath id="p643d9a02f1">
   <rect x="113.122551" y="41.472" width="246.074897" height="266.112"/>
  </clipPath>
 </defs>
</svg>
