<?xml version="1.0" encoding="utf-8" standalone="no"?>
<!DOCTYPE svg PUBLIC "-//W3C//DTD SVG 1.1//EN"
  "http://www.w3.org/Graphics/SVG/1.1/DTD/svg11.dtd">
<svg xmlns:xlink="http://www.w3.org/1999/xlink" width="460.8pt" height="345.6pt" viewBox="0 0 460.8 345.6" xmlns="http://www.w3.org/2000/svg" version="1.1">
 <metadata>
  <rdf:RDF xmlns:dc="http://purl.org/dc/elements/1.1/" xmlns:cc="http://creativecommons.org/ns#" xmlns:rdf="http://www.w3.org/1999/02/22-rdf-syntax-ns#">
   <cc:Work>
    <dc:type rdf:resource="http://purl.org/dc/dcmitype/StillImage"/>
    <dc:date>2024-01-27T16:43:44.456968</dc:date>
    <dc:format>image/svg+xml</dc:format>
    <dc:creator>
     <cc:Agent>
      <dc:title>Matplotlib v3.6.2, https://matplotlib.org/</dc:title>
     </cc:Agent>
    </dc:creator>
   </cc:Work>
  </rdf:RDF>
 </metadata>
 <defs>
  <style type="text/css">*{stroke-linejoin: round; stroke-linecap: butt}</style>
 </defs>
 <g id="figure_1">
  <g id="patch_1">
   <path d="M 0 345.6 
L 460.8 345.6 
L 460.8 0 
L 0 0 
z
" style="fill: #ffffff"/>
  </g>
  <g id="axes_1">
   <g id="patch_2">
    <path d="M 233.513995 183.790352 
C 234.896592 183.790352 236.222746 183.241041 237.20039 182.263398 
C 238.178033 181.285754 238.727344 179.9596 238.727344 178.577004 
C 238.727344 177.194407 238.178033 175.868253 237.20039 174.890609 
C 236.222746 173.912966 234.896592 173.363655 233.513995 173.363655 
C 232.131399 173.363655 230.805245 173.912966 229.827601 174.890609 
C 228.849958 175.868253 228.300647 177.194407 228.300647 178.577004 
C 228.300647 179.9596 228.849958 181.285754 229.827601 182.263398 
C 230.805245 183.241041 232.131399 183.790352 233.513995 183.790352 
L 233.513995 183.790352 
z
" clip-path="url(#p1231f89f97)" style="fill: none; stroke: #0000ff; stroke-linejoin: miter"/>
   </g>
   <g id="patch_3">
    <path d="M 233.513995 169.192976 
C 234.205294 169.192976 234.868371 168.918321 235.357192 168.429499 
C 235.846014 167.940678 236.12067 167.2776 236.12067 166.586302 
C 236.12067 165.895004 235.846014 165.231927 235.357192 164.743105 
C 234.868371 164.254283 234.205294 163.979628 233.513995 163.979628 
C 232.822697 163.979628 232.15962 164.254283 231.670798 164.743105 
C 231.181977 165.231927 230.907321 165.895004 230.907321 166.586302 
C 230.907321 167.2776 231.181977 167.940678 231.670798 168.429499 
C 232.15962 168.918321 232.822697 169.192976 233.513995 169.192976 
L 233.513995 169.192976 
z
" clip-path="url(#p1231f89f97)" style="fill: none; stroke: #008000; stroke-linejoin: miter"/>
   </g>
   <g id="patch_4">
    <path d="M 245.504697 181.183678 
C 246.195995 181.183678 246.859072 180.909022 247.347894 180.420201 
C 247.836716 179.931379 248.111371 179.268302 248.111371 178.577004 
C 248.111371 177.885705 247.836716 177.222628 247.347894 176.733806 
C 246.859072 176.244985 246.195995 175.970329 245.504697 175.970329 
C 244.813399 175.970329 244.150321 176.244985 243.6615 176.733806 
C 243.172678 177.222628 242.898023 177.885705 242.898023 178.577004 
C 242.898023 179.268302 243.172678 179.931379 243.6615 180.420201 
C 244.150321 180.909022 244.813399 181.183678 245.504697 181.183678 
L 245.504697 181.183678 
z
" clip-path="url(#p1231f89f97)" style="fill: none; stroke: #008000; stroke-linejoin: miter"/>
   </g>
   <g id="patch_5">
    <path d="M 225.329038 160.695218 
L 241.698953 160.695218 
L 241.698953 154.752001 
L 225.329038 154.752001 
L 225.329038 160.695218 
z
" clip-path="url(#p1231f89f97)" style="fill: none; stroke: #ff0000; stroke-linejoin: miter"/>
   </g>
   <g id="patch_6">
    <path d="M 225.329038 202.402006 
L 241.698953 202.402006 
L 241.698953 196.458789 
L 225.329038 196.458789 
L 225.329038 202.402006 
z
" clip-path="url(#p1231f89f97)" style="fill: none; stroke: #ffa500; stroke-linejoin: miter"/>
   </g>
   <g id="patch_7">
    <path d="M 251.395781 186.761961 
L 257.338998 186.761961 
L 257.338998 170.392046 
L 251.395781 170.392046 
L 251.395781 186.761961 
z
" clip-path="url(#p1231f89f97)" style="fill: none; stroke: #ffff00; stroke-linejoin: miter"/>
   </g>
   <g id="patch_8">
    <path d="M 209.688993 186.761961 
L 215.63221 186.761961 
L 215.63221 170.392046 
L 209.688993 170.392046 
L 209.688993 186.761961 
z
" clip-path="url(#p1231f89f97)" style="fill: none; stroke: #008000; stroke-linejoin: miter"/>
   </g>
   <g id="line2d_1">
    <path d="M 281.356431 284.936346 
L 273.505182 287.845086 
L 268.788842 289.406658 
L 262.324057 291.291822 
L 256.669815 292.600704 
L 251.857722 293.460285 
L 236.02888 295.169605 
L 230.791387 295.459563 
L 228.959653 295.463116 
L 225.131714 295.289827 
L 218.150989 294.485074 
L 208.40553 292.699157 
L 205.573165 292.050622 
L 196.263241 289.384552 
L 186.417441 285.6965 
L 182.97009 284.198667 
L 179.580133 282.604679 
L 176.30409 280.999291 
L 173.031795 279.223148 
L 170.606681 277.81199 
L 168.197637 276.312365 
L 163.61986 273.423208 
L 157.524067 268.76037 
L 153.007356 264.554431 
L 151.547692 263.087466 
L 150.187026 261.842429 
L 137.178647 248.927847 
L 134.335006 245.799478 
L 131.558797 242.743381 
L 128.290387 239.051576 
L 127.777516 238.24923 
L 126.849511 236.129141 
L 125.974871 233.909418 
L 124.778076 230.341965 
L 122.37771 221.885042 
L 120.660374 214.965382 
L 118.891461 205.925953 
L 117.892574 199.443382 
L 117.12207 191.978874 
L 116.790099 187.956781 
L 116.65002 179.668266 
L 117.132543 169.623868 
L 118.432482 159.728762 
L 119.027188 156.730595 
L 119.693118 153.758787 
L 121.298131 147.823084 
L 122.633646 143.810994 
L 124.098252 139.865329 
L 126.350083 134.783891 
L 128.319225 130.79597 
L 131.836959 124.688621 
L 134.340314 120.755027 
L 137.553431 116.072967 
L 140.885217 111.282574 
L 145.116929 104.837818 
L 149.051435 100.065604 
L 152.145141 96.723078 
L 157.631146 91.530894 
L 161.417 88.410702 
L 167.304046 83.86935 
L 173.387071 79.724891 
L 181.822211 74.682422 
L 191.971056 69.602997 
L 200.072005 65.865775 
L 202.99175 64.598304 
L 208.584594 62.089964 
L 217.121895 58.477763 
L 218.754324 57.998222 
L 221.984546 57.045457 
L 223.663938 56.624859 
L 232.414725 54.97333 
L 237.922789 54.388696 
L 241.636512 54.130881 
L 244.498654 54.075694 
L 248.928041 53.645187 
L 250.779507 53.593118 
L 256.478455 53.748316 
L 258.447164 53.955888 
L 261.379207 54.285514 
L 264.311977 54.681601 
L 267.140248 54.920372 
L 273.897346 56.011019 
L 280.817658 57.995781 
L 281.865741 58.543003 
L 284.761182 59.411778 
L 289.537924 60.889219 
L 291.454987 61.605901 
L 294.375449 63.141642 
L 304.774168 70.160626 
L 309.247438 73.462763 
L 311.859417 75.516585 
L 312.718257 76.297 
L 313.570522 76.854884 
L 316.089441 79.082417 
L 318.548108 81.361725 
L 320.945677 83.691294 
L 323.281341 86.0696 
L 327.727892 91.22728 
L 331.207033 95.735902 
L 333.197059 98.49762 
L 336.853374 104.579354 
L 339.078481 108.81991 
L 341.06462 113.430432 
L 342.492004 116.747444 
L 344.852682 121.745887 
L 346.135088 124.866332 
L 348.145065 129.968623 
L 349.211001 133.143525 
L 350.868002 138.325993 
L 351.716549 141.540786 
L 352.482353 144.766483 
L 353.20987 147.915989 
L 353.573198 150.164598 
L 354.118041 153.41042 
L 354.580592 156.65953 
L 354.961114 159.909894 
L 355.259923 163.159494 
L 355.477383 166.406336 
L 355.613913 169.648441 
L 355.66998 172.883857 
L 355.296649 182.605972 
L 354.210082 192.192139 
L 353.71656 195.325279 
L 351.525816 208.789888 
L 350.690363 212.547582 
L 348.939683 218.314828 
L 347.035797 223.182652 
L 344.41419 229.653209 
L 341.11008 236.801521 
L 338.32513 242.027755 
L 336.701088 244.634995 
L 335.021458 247.198036 
L 332.959311 249.802137 
L 329.663024 253.290015 
L 325.393436 257.46528 
L 320.039599 262.201109 
L 314.474654 266.621819 
L 310.691796 269.384168 
L 305.822655 272.635576 
L 301.810404 275.072224 
L 296.784393 277.897274 
L 291.796782 280.479072 
L 286.625525 282.828633 
L 281.456622 284.937957 
L 281.456622 284.937957 
" clip-path="url(#p1231f89f97)" style="fill: none; stroke: #1f77b4; stroke-width: 1.5; stroke-linecap: square"/>
   </g>
  </g>
 </g>
 <defs>
  <clipPath id="p1231f89f97">
   <rect x="104.699022" y="41.472" width="262.921956" height="266.112"/>
  </clipPath>
 </defs>
</svg>
