<?xml version="1.0" encoding="utf-8" standalone="no"?>
<!DOCTYPE svg PUBLIC "-//W3C//DTD SVG 1.1//EN"
  "http://www.w3.org/Graphics/SVG/1.1/DTD/svg11.dtd">
<svg xmlns:xlink="http://www.w3.org/1999/xlink" width="460.8pt" height="345.6pt" viewBox="0 0 460.8 345.6" xmlns="http://www.w3.org/2000/svg" version="1.1">
 <metadata>
  <rdf:RDF xmlns:dc="http://purl.org/dc/elements/1.1/" xmlns:cc="http://creativecommons.org/ns#" xmlns:rdf="http://www.w3.org/1999/02/22-rdf-syntax-ns#">
   <cc:Work>
    <dc:type rdf:resource="http://purl.org/dc/dcmitype/StillImage"/>
    <dc:date>2024-01-27T17:16:32.296217</dc:date>
    <dc:format>image/svg+xml</dc:format>
    <dc:creator>
     <cc:Agent>
      <dc:title>Matplotlib v3.6.2, https://matplotlib.org/</dc:title>
     </cc:Agent>
    </dc:creator>
   </cc:Work>
  </rdf:RDF>
 </metadata>
 <defs>
  <style type="text/css">*{stroke-linejoin: round; stroke-linecap: butt}</style>
 </defs>
 <g id="figure_1">
  <g id="patch_1">
   <path d="M 0 345.6 
L 460.8 345.6 
L 460.8 0 
L 0 0 
z
" style="fill: #ffffff"/>
  </g>
  <g id="axes_1">
   <g id="patch_2">
    <path d="M 233.015287 184.929195 
C 234.41915 184.929195 235.765703 184.371434 236.758384 183.378753 
C 237.751066 182.386072 238.308826 181.039518 238.308826 179.635655 
C 238.308826 178.231792 237.751066 176.885239 236.758384 175.892558 
C 235.765703 174.899876 234.41915 174.342116 233.015287 174.342116 
C 231.611424 174.342116 230.26487 174.899876 229.272189 175.892558 
C 228.279508 176.885239 227.721747 178.231792 227.721747 179.635655 
C 227.721747 181.039518 228.279508 182.386072 229.272189 183.378753 
C 230.26487 184.371434 231.611424 184.929195 233.015287 184.929195 
L 233.015287 184.929195 
z
" clip-path="url(#p628557ba80)" style="fill: none; stroke: #0000ff; stroke-linejoin: miter"/>
   </g>
   <g id="patch_3">
    <path d="M 233.015287 170.107284 
C 233.717218 170.107284 234.390495 169.828404 234.886836 169.332063 
C 235.383176 168.835722 235.662057 168.162446 235.662057 167.460514 
C 235.662057 166.758583 235.383176 166.085306 234.886836 165.588965 
C 234.390495 165.092625 233.717218 164.813744 233.015287 164.813744 
C 232.313355 164.813744 231.640078 165.092625 231.143738 165.588965 
C 230.647397 166.085306 230.368517 166.758583 230.368517 167.460514 
C 230.368517 168.162446 230.647397 168.835722 231.143738 169.332063 
C 231.640078 169.828404 232.313355 170.107284 233.015287 170.107284 
L 233.015287 170.107284 
z
" clip-path="url(#p628557ba80)" style="fill: none; stroke: #008000; stroke-linejoin: miter"/>
   </g>
   <g id="patch_4">
    <path d="M 245.190428 182.282425 
C 245.892359 182.282425 246.565636 182.003545 247.061977 181.507204 
C 247.558317 181.010864 247.837198 180.337587 247.837198 179.635655 
C 247.837198 178.933724 247.558317 178.260447 247.061977 177.764106 
C 246.565636 177.267766 245.892359 176.988885 245.190428 176.988885 
C 244.488496 176.988885 243.81522 177.267766 243.318879 177.764106 
C 242.822538 178.260447 242.543658 178.933724 242.543658 179.635655 
C 242.543658 180.337587 242.822538 181.010864 243.318879 181.507204 
C 243.81522 182.003545 244.488496 182.282425 245.190428 182.282425 
L 245.190428 182.282425 
z
" clip-path="url(#p628557ba80)" style="fill: none; stroke: #008000; stroke-linejoin: miter"/>
   </g>
   <g id="patch_5">
    <path d="M 224.70443 161.478814 
L 241.326144 161.478814 
L 241.326144 155.444179 
L 224.70443 155.444179 
L 224.70443 161.478814 
z
" clip-path="url(#p628557ba80)" style="fill: none; stroke: #ff0000; stroke-linejoin: miter"/>
   </g>
   <g id="patch_6">
    <path d="M 224.70443 203.827131 
L 241.326144 203.827131 
L 241.326144 197.792496 
L 224.70443 197.792496 
L 224.70443 203.827131 
z
" clip-path="url(#p628557ba80)" style="fill: none; stroke: #ffa500; stroke-linejoin: miter"/>
   </g>
   <g id="patch_7">
    <path d="M 251.172128 187.946512 
L 257.206763 187.946512 
L 257.206763 171.324798 
L 251.172128 171.324798 
L 251.172128 187.946512 
z
" clip-path="url(#p628557ba80)" style="fill: none; stroke: #ffff00; stroke-linejoin: miter"/>
   </g>
   <g id="patch_8">
    <path d="M 208.823811 187.946512 
L 214.858446 187.946512 
L 214.858446 171.324798 
L 208.823811 171.324798 
L 208.823811 187.946512 
z
" clip-path="url(#p628557ba80)" style="fill: none; stroke: #008000; stroke-linejoin: miter"/>
   </g>
   <g id="line2d_1">
    <path d="M 280.497178 287.624072 
L 274.87771 289.56499 
L 269.997194 291.011657 
L 265.049454 292.25454 
L 260.044393 293.290806 
L 253.427874 294.364795 
L 248.35127 294.917752 
L 241.898817 295.396713 
L 236.068277 295.488 
L 228.901161 295.285463 
L 220.457959 294.546169 
L 216.032266 293.943474 
L 212.243265 293.260038 
L 206.710684 292.13554 
L 201.841462 290.889278 
L 197.045665 289.441213 
L 187.934284 286.341968 
L 176.494363 281.419212 
L 173.728749 280.039185 
L 167.327476 276.195167 
L 161.700136 272.32226 
L 154.389826 266.730116 
L 151.929856 264.712461 
L 148.216825 261.687463 
L 144.515606 258.290633 
L 140.776516 254.088183 
L 136.831389 249.295167 
L 133.519112 244.780122 
L 132.319885 242.934503 
L 131.155165 241.070654 
L 130.02514 239.189263 
L 128.221153 236.09523 
L 127.1829 234.170381 
L 126.179886 232.230475 
L 124.89586 229.660914 
L 124.283275 228.249002 
L 122.803817 225.016416 
L 121.966313 223.013765 
L 120.638796 219.728693 
L 119.405436 216.414301 
L 116.06962 204.452849 
L 115.590965 202.368355 
L 114.84562 198.956403 
L 114.192862 195.531625 
L 113.791517 192.658155 
L 113.509614 190.553956 
L 113.220706 187.67806 
L 112.869736 184.234859 
L 112.724365 182.128119 
L 112.785695 176.78437 
L 112.760774 174.687557 
L 112.609014 167.457621 
L 112.692637 164.127207 
L 112.956985 161.307012 
L 113.477581 154.675336 
L 114.358635 148.006977 
L 115.608557 141.322378 
L 117.777652 132.087574 
L 121.489764 120.30371 
L 121.958904 119.00509 
L 122.85396 116.435365 
L 123.368821 115.138566 
L 124.125066 113.206561 
L 130.776185 99.752601 
L 131.909991 97.861545 
L 133.324996 95.356838 
L 136.255564 91.028116 
L 137.089969 89.802897 
L 138.897657 87.381381 
L 139.780412 86.175829 
L 141.683419 83.800059 
L 143.041585 82.018078 
L 149.269068 75.172408 
L 153.299747 71.395942 
L 155.080438 69.821832 
L 158.93936 67.612245 
L 160.585288 66.801399 
L 164.521445 64.773738 
L 166.196529 64.039519 
L 168.69238 62.965705 
L 172.100811 61.6404 
L 175.438298 60.356135 
L 177.978858 59.462794 
L 183.438478 58.025335 
L 192.38542 55.981813 
L 201.430281 54.560798 
L 209.585709 53.793014 
L 217.803817 53.568 
L 226.831153 53.845322 
L 235.752695 54.697499 
L 240.955409 55.39946 
L 242.679132 55.678362 
L 256.089802 58.536874 
L 258.544499 59.213438 
L 263.257297 60.530886 
L 265.657556 61.342806 
L 271.712261 63.389593 
L 277.631373 65.723245 
L 283.402358 68.33524 
L 290.989198 72.197311 
L 292.996413 73.314595 
L 301.382785 77.110301 
L 308.481484 80.965851 
L 314.298064 84.654623 
L 317.73118 87.132972 
L 319.440341 88.639946 
L 321.129249 90.287913 
L 322.235942 91.364188 
L 326.52925 95.902639 
L 331.135903 100.475691 
L 333.056121 103.20331 
L 333.986277 104.606447 
L 334.89351 106.054373 
L 338.119523 109.903348 
L 340.212864 113.367732 
L 340.99496 114.882897 
L 342.57745 117.596962 
L 345.401831 121.681218 
L 348.435293 126.578012 
L 349.9882 130.318247 
L 352.834995 140.281118 
L 353.247559 141.923333 
L 354.061798 145.11155 
L 354.410969 146.763553 
L 354.738617 148.418128 
L 355.329335 151.733885 
L 355.711211 153.187156 
L 356.076809 154.644265 
L 356.695033 157.670851 
L 357.010218 159.137715 
L 357.523246 162.180028 
L 357.949578 164.344429 
L 358.799027 172.834491 
L 358.972336 175.111657 
L 359.18941 177.299649 
L 359.372311 179.491651 
L 359.681557 182.302956 
L 359.673836 186.877609 
L 359.668456 188.374018 
L 359.180611 193.884055 
L 358.467577 199.357594 
L 356.637993 206.053789 
L 354.472006 212.617585 
L 352.181771 218.312729 
L 349.636642 223.878187 
L 347.65458 227.773996 
L 345.099698 232.353939 
L 341.938775 237.5304 
L 339.054938 241.831091 
L 335.453863 246.697218 
L 331.780818 251.326979 
L 327.761676 255.814766 
L 323.042739 260.661154 
L 319.234206 264.145764 
L 315.281654 267.469831 
L 311.20632 270.624641 
L 304.522462 275.441034 
L 300.230711 278.12373 
L 295.076112 281.027694 
L 289.822083 283.67816 
L 284.42252 286.073576 
L 280.61723 287.623876 
L 280.61723 287.623876 
" clip-path="url(#p628557ba80)" style="fill: none; stroke: #1f77b4; stroke-width: 1.5; stroke-linecap: square"/>
   </g>
  </g>
 </g>
 <defs>
  <clipPath id="p628557ba80">
   <rect x="100.244432" y="41.472" width="271.831136" height="266.112"/>
  </clipPath>
 </defs>
</svg>
