<?xml version="1.0" encoding="utf-8" standalone="no"?>
<!DOCTYPE svg PUBLIC "-//W3C//DTD SVG 1.1//EN"
  "http://www.w3.org/Graphics/SVG/1.1/DTD/svg11.dtd">
<svg xmlns:xlink="http://www.w3.org/1999/xlink" width="460.8pt" height="345.6pt" viewBox="0 0 460.8 345.6" xmlns="http://www.w3.org/2000/svg" version="1.1">
 <metadata>
  <rdf:RDF xmlns:dc="http://purl.org/dc/elements/1.1/" xmlns:cc="http://creativecommons.org/ns#" xmlns:rdf="http://www.w3.org/1999/02/22-rdf-syntax-ns#">
   <cc:Work>
    <dc:type rdf:resource="http://purl.org/dc/dcmitype/StillImage"/>
    <dc:date>2024-01-27T16:45:35.023232</dc:date>
    <dc:format>image/svg+xml</dc:format>
    <dc:creator>
     <cc:Agent>
      <dc:title>Matplotlib v3.6.2, https://matplotlib.org/</dc:title>
     </cc:Agent>
    </dc:creator>
   </cc:Work>
  </rdf:RDF>
 </metadata>
 <defs>
  <style type="text/css">*{stroke-linejoin: round; stroke-linecap: butt}</style>
 </defs>
 <g id="figure_1">
  <g id="patch_1">
   <path d="M 0 345.6 
L 460.8 345.6 
L 460.8 0 
L 0 0 
z
" style="fill: #ffffff"/>
  </g>
  <g id="axes_1">
   <g id="patch_2">
    <path d="M 237.13355 183.087829 
C 238.534393 183.087829 239.878049 182.531268 240.868595 181.540723 
C 241.85914 180.550177 242.415701 179.206521 242.415701 177.805678 
C 242.415701 176.404835 241.85914 175.061178 240.868595 174.070633 
C 239.878049 173.080087 238.534393 172.523527 237.13355 172.523527 
C 235.732707 172.523527 234.38905 173.080087 233.398505 174.070633 
C 232.407959 175.061178 231.851398 176.404835 231.851398 177.805678 
C 231.851398 179.206521 232.407959 180.550177 233.398505 181.540723 
C 234.38905 182.531268 235.732707 183.087829 237.13355 183.087829 
L 237.13355 183.087829 
z
" clip-path="url(#pa2eec1a1ec)" style="fill: none; stroke: #0000ff; stroke-linejoin: miter"/>
   </g>
   <g id="patch_3">
    <path d="M 237.13355 164.6003 
C 237.833971 164.6003 238.505799 164.322019 239.001072 163.826747 
C 239.496345 163.331474 239.774625 162.659646 239.774625 161.959224 
C 239.774625 161.258803 239.496345 160.586974 239.001072 160.091702 
C 238.505799 159.596429 237.833971 159.318148 237.13355 159.318148 
C 236.433128 159.318148 235.7613 159.596429 235.266027 160.091702 
C 234.770754 160.586974 234.492474 161.258803 234.492474 161.959224 
C 234.492474 162.659646 234.770754 163.331474 235.266027 163.826747 
C 235.7613 164.322019 236.433128 164.6003 237.13355 164.6003 
L 237.13355 164.6003 
z
" clip-path="url(#pa2eec1a1ec)" style="fill: none; stroke: #008000; stroke-linejoin: miter"/>
   </g>
   <g id="patch_4">
    <path d="M 252.980003 180.446753 
C 253.680425 180.446753 254.352253 180.168473 254.847526 179.6732 
C 255.342799 179.177928 255.621079 178.506099 255.621079 177.805678 
C 255.621079 177.105256 255.342799 176.433428 254.847526 175.938155 
C 254.352253 175.442883 253.680425 175.164602 252.980003 175.164602 
C 252.279582 175.164602 251.607754 175.442883 251.112481 175.938155 
C 250.617208 176.433428 250.338928 177.105256 250.338928 177.805678 
C 250.338928 178.506099 250.617208 179.177928 251.112481 179.6732 
C 251.607754 180.168473 252.279582 180.446753 252.980003 180.446753 
L 252.980003 180.446753 
z
" clip-path="url(#pa2eec1a1ec)" style="fill: none; stroke: #008000; stroke-linejoin: miter"/>
   </g>
   <g id="patch_5">
    <path d="M 226.199497 162.328975 
L 248.067603 162.328975 
L 248.067603 151.025171 
L 226.199497 151.025171 
L 226.199497 162.328975 
z
" clip-path="url(#pa2eec1a1ec)" style="fill: none; stroke: #ff0000; stroke-linejoin: miter"/>
   </g>
   <g id="patch_6">
    <path d="M 226.199497 204.586185 
L 248.067603 204.586185 
L 248.067603 193.282381 
L 226.199497 193.282381 
L 226.199497 204.586185 
z
" clip-path="url(#pa2eec1a1ec)" style="fill: none; stroke: #ffa500; stroke-linejoin: miter"/>
   </g>
   <g id="patch_7">
    <path d="M 252.610253 188.739731 
L 263.914056 188.739731 
L 263.914056 166.871625 
L 252.610253 166.871625 
L 252.610253 188.739731 
z
" clip-path="url(#pa2eec1a1ec)" style="fill: none; stroke: #ffff00; stroke-linejoin: miter"/>
   </g>
   <g id="patch_8">
    <path d="M 210.353043 188.739731 
L 221.656847 188.739731 
L 221.656847 166.871625 
L 210.353043 166.871625 
L 210.353043 188.739731 
z
" clip-path="url(#pa2eec1a1ec)" style="fill: none; stroke: #008000; stroke-linejoin: miter"/>
   </g>
   <g id="line2d_1">
    <path d="M 273.310284 286.624338 
L 271.504924 287.381038 
L 270.834909 287.677202 
L 268.234091 288.620358 
L 265.869981 289.3826 
L 264.699596 289.816104 
L 263.0575 290.388364 
L 258.413901 291.401417 
L 257.449996 291.640989 
L 256.640985 291.889153 
L 255.231205 292.234996 
L 251.543465 292.926534 
L 251.256922 293.05955 
L 246.220153 293.922291 
L 244.865182 293.981124 
L 241.256107 293.997424 
L 240.2648 294.108105 
L 237.214107 294.598749 
L 233.568925 294.576285 
L 227.727395 294.155896 
L 227.087459 294.333904 
L 226.13758 294.365241 
L 221.308153 295.028662 
L 220.057605 295.186066 
L 214.41737 295.359709 
L 214.041687 295.455303 
L 212.516499 295.392263 
L 212.13489 295.488 
L 205.093797 295.182197 
L 202.946677 294.905152 
L 199.668345 294.360829 
L 199.207142 294.383074 
L 195.274218 293.485474 
L 191.832688 292.484422 
L 188.66899 291.877415 
L 187.750461 291.942556 
L 187.183385 291.760367 
L 184.727092 291.667248 
L 184.248569 291.692466 
L 182.681557 291.467128 
L 181.182606 291.457559 
L 180.623812 291.292752 
L 179.600027 291.252264 
L 179.056185 291.137956 
L 178.01928 291.091771 
L 175.295941 290.58915 
L 174.239687 290.573814 
L 173.68021 290.433272 
L 173.14492 290.420328 
L 171.477355 290.112391 
L 164.094419 288.949427 
L 163.50391 288.568676 
L 162.33539 288.371799 
L 160.563167 288.090767 
L 157.562868 287.466777 
L 156.952328 287.375664 
L 156.364681 287.00559 
L 151.371119 286.10989 
L 150.161333 285.50667 
L 144.963575 284.313623 
L 139.592793 282.844935 
L 137.564958 282.151889 
L 136.219501 281.630743 
L 132.030259 280.18237 
L 131.457319 279.676126 
L 127.757058 272.655713 
L 127.420465 271.77143 
L 126.88151 271.257699 
L 126.219172 269.502609 
L 125.409199 268.035514 
L 124.306978 265.680821 
L 124.013352 264.77996 
L 123.544029 264.189837 
L 122.589926 261.672235 
L 122.109731 261.12056 
L 120.490341 257.127434 
L 120.214963 256.26731 
L 119.827104 255.597635 
L 119.366524 253.762223 
L 119.004041 253.069042 
L 118.783402 252.152232 
L 118.394758 251.512127 
L 117.532674 249.138342 
L 117.157417 248.496021 
L 116.385681 246.050749 
L 116.210761 245.121519 
L 115.171493 241.986085 
L 113.968014 238.052198 
L 113.73417 237.272275 
L 113.398068 236.644758 
L 113.102882 234.865144 
L 112.966035 233.969546 
L 112.442477 232.549796 
L 112.012595 231.018157 
L 110.244596 223.161142 
L 108.858168 214.413385 
L 108.553951 212.047103 
L 108.32234 208.760012 
L 108.353523 207.848144 
L 108.086752 206.42258 
L 107.570392 200.277367 
L 107.559736 198.660939 
L 107.464057 197.956379 
L 107.569606 197.043513 
L 107.403505 195.630096 
L 107.454417 194.009311 
L 107.551709 191.595556 
L 107.391266 188.731939 
L 106.94831 187.665156 
L 105.79622 184.280718 
L 105.562106 183.023972 
L 105.251781 182.552933 
L 105.167633 181.898781 
L 103.839229 178.593907 
L 103.566608 176.651536 
L 103.467494 176.011231 
L 103.173254 175.49766 
L 102.48916 172.40553 
L 102.276441 170.432935 
L 101.886099 169.253505 
L 101.775608 168.616157 
L 101.558902 168.032477 
L 101.454597 167.389886 
L 101.242405 166.799333 
L 101.018149 164.822731 
L 100.757735 164.246318 
L 100.385286 161.629478 
L 100.197522 161.010509 
L 100.191097 160.319259 
L 99.890321 159.043499 
L 99.40742 155.729183 
L 99.371542 155.043614 
L 99.214 154.393381 
L 99.098351 153.029649 
L 98.851833 150.993997 
L 98.908542 150.279137 
L 98.70336 149.624825 
L 98.650171 147.52426 
L 98.367879 145.455304 
L 98.34765 144.037848 
L 98.186198 143.34924 
L 98.292393 142.620686 
L 98.16036 140.488253 
L 98.000334 139.784613 
L 98.264438 138.317646 
L 98.115923 137.605756 
L 98.120146 136.879812 
L 98.339093 136.140241 
L 98.029681 133.961798 
L 98.197777 133.223047 
L 98.110991 131.74811 
L 98.338731 130.266494 
L 98.316619 129.521579 
L 98.442733 128.778809 
L 98.34574 128.026017 
L 98.477548 126.527043 
L 98.325542 124.99798 
L 98.793054 122.746656 
L 99.036295 122.004964 
L 98.992896 121.228844 
L 99.232629 120.485821 
L 99.243072 118.931358 
L 99.170607 117.346905 
L 99.513871 115.823016 
L 99.495195 114.218102 
L 99.721812 113.460981 
L 99.807312 111.85656 
L 100.049749 111.098576 
L 100.647553 107.116002 
L 100.978714 106.375696 
L 101.592013 102.306822 
L 101.739068 100.612975 
L 102.129896 99.884368 
L 102.290195 99.062646 
L 102.709323 98.344905 
L 103.003764 96.675887 
L 103.421047 95.955441 
L 104.466777 94.612115 
L 104.61235 93.767956 
L 105.614469 92.409247 
L 108.498036 89.223024 
L 110.323726 87.382245 
L 110.922674 86.767854 
L 112.363269 85.670954 
L 114.374477 83.967368 
L 118.184694 81.421918 
L 119.82026 80.482704 
L 120.482178 79.935072 
L 129.329815 74.942149 
L 130.184488 74.534169 
L 130.90196 74.055852 
L 142.454874 68.52343 
L 145.045062 67.490049 
L 145.732041 67.055731 
L 150.001926 65.399389 
L 158.582391 62.395424 
L 167.09945 59.751693 
L 171.516618 58.675797 
L 184.67795 56.044645 
L 188.187495 55.512352 
L 189.937295 55.270634 
L 193.560987 54.918542 
L 195.272146 54.709221 
L 197.013994 54.537416 
L 200.616754 54.324797 
L 214.829074 54.137665 
L 220.162936 54.403832 
L 225.459797 54.833262 
L 236.959578 56.437285 
L 245.483194 58.081627 
L 247.06282 57.992861 
L 247.453981 57.866699 
L 248.423633 57.750671 
L 251.203186 57.297683 
L 253.057096 56.983241 
L 254.973334 56.714139 
L 258.764224 56.08358 
L 265.750801 55.162317 
L 266.304671 55.164874 
L 267.263936 54.932151 
L 267.823742 54.940271 
L 269.348601 54.694586 
L 275.858582 54.179342 
L 278.6492 53.977011 
L 280.339855 53.832217 
L 280.931911 53.85749 
L 281.565456 54.011252 
L 285.021331 53.706009 
L 285.63341 53.764788 
L 286.807893 53.646759 
L 288.019894 53.652894 
L 289.841833 53.591867 
L 291.086353 53.662335 
L 293.575843 53.60304 
L 294.216318 53.699799 
L 296.768524 53.73586 
L 299.368449 53.781011 
L 300.026749 53.905204 
L 302.684358 54.053212 
L 303.357119 54.077332 
L 304.700639 54.314183 
L 306.754846 54.413036 
L 307.430826 54.596981 
L 310.932229 54.850456 
L 311.608801 55.109531 
L 315.186666 55.537716 
L 316.617271 55.82553 
L 318.811987 56.168286 
L 320.276123 56.462194 
L 322.53448 56.803738 
L 323.194707 57.210661 
L 327.86099 64.177434 
L 334.458136 75.377212 
L 338.673359 83.57945 
L 340.947604 88.713191 
L 344.047432 96.548228 
L 346.828337 104.355742 
L 348.684125 110.630775 
L 350.310076 116.955665 
L 352.120923 124.974882 
L 353.378341 132.221353 
L 354.181119 138.706553 
L 354.743868 145.209947 
L 355.061345 151.734792 
L 355.159427 157.27864 
L 355.702349 158.575161 
L 356.153215 159.227876 
L 356.312635 159.71654 
L 356.768828 160.384037 
L 357.134565 161.263116 
L 357.812434 162.334552 
L 358.213758 163.165469 
L 362.220352 170.526759 
L 362.29292 171.14927 
L 362.989243 172.441576 
L 363.723976 173.723742 
L 364.124398 174.69101 
L 366.800189 179.771828 
L 369.206026 184.800826 
L 370.617204 188.014801 
L 370.893687 189.220474 
L 372.899985 194.388422 
L 373.752026 196.797954 
L 374.060331 198.066564 
L 374.264979 198.687429 
L 374.319666 199.361487 
L 373.526108 201.001732 
L 370.355764 206.752806 
L 368.929408 209.181808 
L 368.69987 209.902857 
L 363.458257 218.462462 
L 362.987215 219.214576 
L 362.770736 219.882308 
L 361.276005 222.128324 
L 357.580872 227.287665 
L 357.24472 227.94968 
L 355.547149 230.119683 
L 354.540937 231.50744 
L 351.815935 234.964864 
L 350.626566 236.346648 
L 350.304309 236.95268 
L 340.729267 247.322146 
L 335.183039 252.280167 
L 329.502608 256.976488 
L 326.749789 259.18871 
L 325.426117 260.253023 
L 318.554938 265.359072 
L 309.033418 271.43139 
L 303.623607 274.428468 
L 295.595924 278.359312 
L 289.540036 280.909202 
L 283.405509 283.23008 
L 276.021221 285.745909 
L 273.301628 286.625973 
L 273.301628 286.625973 
" clip-path="url(#pa2eec1a1ec)" style="fill: none; stroke: #1f77b4; stroke-width: 1.5; stroke-linecap: square"/>
   </g>
  </g>
 </g>
 <defs>
  <clipPath id="pa2eec1a1ec">
   <rect x="84.184368" y="41.472" width="303.951264" height="266.112"/>
  </clipPath>
 </defs>
</svg>
