<?xml version="1.0" encoding="UTF-8"?>
<svg id="Layer_1" data-name="Layer 1" xmlns="http://www.w3.org/2000/svg" version="1.1" xmlns:xlink="http://www.w3.org/1999/xlink" viewBox="0 0 996.1 885.1">
  <defs>
    <style>
      .cls-1 {
        stroke: green;
      }

      .cls-1, .cls-2, .cls-3, .cls-4, .cls-5, .cls-6, .cls-7 {
        fill: none;
      }

      .cls-2 {
        stroke: #ff0;
      }

      .cls-8 {
        clip-path: url(#clippath-2);
      }

      .cls-3 {
        stroke: red;
      }

      .cls-4 {
        stroke: blue;
      }

      .cls-9 {
        clip-path: url(#clippath-6);
      }

      .cls-5 {
        stroke-width: 0px;
      }

      .cls-10 {
        clip-path: url(#clippath-1);
      }

      .cls-11 {
        clip-path: url(#clippath-4);
      }

      .cls-6 {
        stroke: orange;
      }

      .cls-12 {
        clip-path: url(#clippath);
      }

      .cls-7 {
        stroke: #1f77b4;
        stroke-linecap: square;
        stroke-linejoin: round;
        stroke-width: 1.5px;
      }

      .cls-13 {
        clip-path: url(#clippath-3);
      }

      .cls-14 {
        clip-path: url(#clippath-5);
      }
    </style>
    <clipPath id="clippath">
      <rect class="cls-5" x="118.9" y="109.1" width="815.5" height="714"/>
    </clipPath>
    <clipPath id="clippath-1">
      <rect class="cls-5" x="118.9" y="109.1" width="815.5" height="714"/>
    </clipPath>
    <clipPath id="clippath-2">
      <rect class="cls-5" x="118.9" y="109.1" width="815.5" height="714"/>
    </clipPath>
    <clipPath id="clippath-3">
      <rect class="cls-5" x="118.9" y="109.1" width="815.5" height="714"/>
    </clipPath>
    <clipPath id="clippath-4">
      <rect class="cls-5" x="118.9" y="109.1" width="815.5" height="714"/>
    </clipPath>
    <clipPath id="clippath-5">
      <rect class="cls-5" x="118.9" y="109.1" width="815.5" height="714"/>
    </clipPath>
    <clipPath id="clippath-6">
      <polyline class="cls-5" points="934.4 109.1 934.4 823.1 118.9 823.1 118.9 109.1"/>
    </clipPath>
  </defs>
  <g id="axes_1" data-name="axes 1">
    <g id="patch_2" data-name="patch 2">
      <g class="cls-12">
        <path class="cls-4" d="M529.2,489c3.8,0,7.4-1.5,10-4.2s4.2-6.3,4.2-10-1.5-7.4-4.2-10c-2.7-2.7-6.3-4.2-10-4.2s-7.4,1.5-10,4.2c-2.7,2.7-4.2,6.3-4.2,10s1.5,7.4,4.2,10c2.7,2.7,6.3,4.2,10,4.2h0Z"/>
      </g>
    </g>
    <g id="patch_3" data-name="patch 3">
      <g class="cls-10">
        <path class="cls-1" d="M529.2,439.4c1.9,0,3.7-.7,5-2.1,1.3-1.3,2.1-3.1,2.1-5s-.7-3.7-2.1-5-3.1-2.1-5-2.1-3.7.7-5,2.1c-1.3,1.3-2.1,3.1-2.1,5s.7,3.7,2.1,5c1.3,1.3,3.1,2.1,5,2.1h0Z"/>
      </g>
    </g>
    <g id="patch_4" data-name="patch 4">
      <g class="cls-8">
        <path class="cls-1" d="M571.8,481.9c1.9,0,3.7-.7,5-2.1,1.3-1.3,2.1-3.1,2.1-5s-.7-3.7-2.1-5c-1.3-1.3-3.1-2.1-5-2.1s-3.7.7-5,2.1c-1.3,1.3-2.1,3.1-2.1,5s.7,3.7,2.1,5c1.3,1.3,3.1,2.1,5,2.1h0Z"/>
      </g>
    </g>
    <g id="patch_5" data-name="patch 5">
      <g class="cls-13">
        <path class="cls-3" d="M499.9,433.3h58.7v-30.3h-58.7v30.3Z"/>
      </g>
    </g>
    <g id="patch_6" data-name="patch 6">
      <g class="cls-11">
        <path class="cls-6" d="M499.9,546.7h58.7v-30.3h-58.7v30.3Z"/>
      </g>
    </g>
    <g id="patch_7" data-name="patch 7">
      <g class="cls-14">
        <path class="cls-2" d="M570.8,504.2h30.3v-58.7h-30.3v58.7Z"/>
      </g>
    </g>
    <g id="patch_8" data-name="patch 8">
      <path class="cls-1" d="M457.4,504.2h30.3v-58.7h-30.3v58.7Z"/>
    </g>
    <g id="line2d_1" data-name="line2d 1">
      <g class="cls-9">
        <path class="cls-7" d="M626.3,766.8l-4.8,2-1.8.8-7,2.5-6.3,2-3.1,1.2-4.4,1.5-12.5,2.7-2.6.6-2.2.7-3.8.9-9.9,1.9-.8.4-13.5,2.3-3.6.2h-9.7s-2.7.3-2.7.3l-8.2,1.3h-9.8c0,0-15.7-1.2-15.7-1.2l-1.7.5h-2.5c0,0-13,1.9-13,1.9l-3.4.4-15.1.5-1,.3-4.1-.2-1,.3-18.9-.8-5.8-.7-8.8-1.5h-1.2c0,0-10.6-2.3-10.6-2.3l-9.2-2.7-8.5-1.6-2.5.2-1.5-.5-6.6-.2h-1.3c0,0-4.2-.5-4.2-.5h-4s-1.5-.5-1.5-.5h-2.7c0-.1-1.5-.4-1.5-.4h-2.8c0-.1-7.3-1.5-7.3-1.5h-2.8s-1.5-.4-1.5-.4h-1.4s-4.5-.9-4.5-.9l-19.8-3.1-1.6-1-3.1-.5-4.8-.8-8-1.7-1.6-.2-1.6-1-13.4-2.4-3.2-1.6-13.9-3.2-14.4-3.9-5.4-1.9-3.6-1.4-11.2-3.9-1.5-1.4-9.9-18.8-.9-2.4-1.4-1.4-1.8-4.7-2.2-3.9-3-6.3-.8-2.4-1.3-1.6-2.6-6.8-1.3-1.5-4.3-10.7-.7-2.3-1-1.8-1.2-4.9-1-1.9-.6-2.5-1-1.7-2.3-6.4-1-1.7-2.1-6.6-.5-2.5-2.8-8.4-3.2-10.6-.6-2.1-.9-1.7-.8-4.8-.4-2.4-1.4-3.8-1.2-4.1-4.7-21.1-3.7-23.5-.8-6.3-.6-8.8v-2.4c0,0-.6-3.8-.6-3.8l-1.4-16.5v-4.3s-.3-1.9-.3-1.9l.3-2.4-.4-3.8v-4.3c.1,0,.4-6.5.4-6.5l-.4-7.7-1.2-2.9-3.1-9.1-.6-3.4-.8-1.3-.2-1.8-3.6-8.9-.7-5.2-.3-1.7-.8-1.4-1.8-8.3-.6-5.3-1-3.2-.3-1.7-.6-1.6-.3-1.7-.6-1.6-.6-5.3-.7-1.5-1-7-.5-1.7v-1.9s-.8-3.4-.8-3.4l-1.3-8.9v-1.8c0,0-.5-1.7-.5-1.7l-.3-3.7-.7-5.5.2-1.9-.6-1.8v-5.6c-.1,0-.9-5.6-.9-5.6v-3.8c0,0-.5-1.8-.5-1.8l.3-2-.4-5.7-.4-1.9.7-3.9-.4-1.9v-1.9s.6-2,.6-2l-.8-5.8.5-2-.2-4,.6-4v-2c0,0,.3-2,.3-2l-.3-2,.4-4-.4-4.1,1.3-6,.7-2v-2.1c-.1,0,.5-2,.5-2v-4.2s-.2-4.3-.2-4.3l.9-4.1v-4.3c0,0,.6-2,.6-2l.2-4.3.7-2,1.6-10.7.9-2,1.6-10.9.4-4.5,1-2,.4-2.2,1.1-1.9.8-4.5,1.1-1.9,2.8-3.6.4-2.3,2.7-3.6,7.7-8.5,4.9-4.9,1.6-1.6,3.9-2.9,5.4-4.6,10.2-6.8,4.4-2.5,1.8-1.5,23.7-13.4,2.3-1.1,1.9-1.3,31-14.8,6.9-2.8,1.8-1.2,11.5-4.4,23-8.1,22.9-7.1,11.9-2.9,35.3-7.1,9.4-1.4,4.7-.6,9.7-.9,4.6-.6,4.7-.5,9.7-.6,38.1-.5,14.3.7,14.2,1.2,30.9,4.3,22.9,4.4,4.2-.2,1-.3,2.6-.3,7.5-1.2,5-.8,5.1-.7,10.2-1.7,18.7-2.5h1.5s2.6-.6,2.6-.6h1.5s4.1-.6,4.1-.6l17.5-1.4,7.5-.5,4.5-.4h1.6c0,0,1.7.5,1.7.5l9.3-.8,1.6.2,3.2-.3h3.3s4.9-.1,4.9-.1l3.3.2,6.7-.2,1.7.3h6.8c0,0,7,.2,7,.2l1.8.3,7.1.4h1.8c0,0,3.6.7,3.6.7l5.5.3,1.8.5,9.4.7,1.8.7,9.6,1.1,3.8.8,5.9.9,3.9.8,6.1.9,1.8,1.1,12.5,18.7,17.7,30,11.3,22,6.1,13.8,8.3,21,7.5,20.9,5,16.8,4.4,17,4.9,21.5,3.4,19.4,2.2,17.4,1.5,17.4.9,17.5.3,14.9,1.5,3.5,1.2,1.8.4,1.3,1.2,1.8,1,2.4,1.8,2.9,1.1,2.2,10.7,19.8.2,1.7,1.9,3.5,2,3.4,1.1,2.6,7.2,13.6,6.5,13.5,3.8,8.6.7,3.2,5.4,13.9,2.3,6.5.8,3.4.5,1.7v1.8c.1,0-2,4.4-2,4.4l-8.5,15.4-3.8,6.5-.6,1.9-14.1,23-1.3,2-.6,1.8-4,6-9.9,13.8-.9,1.8-4.6,5.8-2.7,3.7-7.3,9.3-3.2,3.7-.9,1.6-25.7,27.8-14.9,13.3-15.2,12.6-7.4,5.9-3.6,2.9-18.4,13.7-25.5,16.3-14.5,8-21.5,10.5-16.2,6.8-16.5,6.2-19.8,6.8-7.3,2.4h0"/>
      </g>
    </g>
  </g>
</svg>