<?xml version="1.0" encoding="utf-8" standalone="no"?>
<!DOCTYPE svg PUBLIC "-//W3C//DTD SVG 1.1//EN"
  "http://www.w3.org/Graphics/SVG/1.1/DTD/svg11.dtd">
<svg xmlns:xlink="http://www.w3.org/1999/xlink" width="460.8pt" height="345.6pt" viewBox="0 0 460.8 345.6" xmlns="http://www.w3.org/2000/svg" version="1.1">
 <metadata>
  <rdf:RDF xmlns:dc="http://purl.org/dc/elements/1.1/" xmlns:cc="http://creativecommons.org/ns#" xmlns:rdf="http://www.w3.org/1999/02/22-rdf-syntax-ns#">
   <cc:Work>
    <dc:type rdf:resource="http://purl.org/dc/dcmitype/StillImage"/>
    <dc:date>2024-01-23T19:27:13.707118</dc:date>
    <dc:format>image/svg+xml</dc:format>
    <dc:creator>
     <cc:Agent>
      <dc:title>Matplotlib v3.6.2, https://matplotlib.org/</dc:title>
     </cc:Agent>
    </dc:creator>
   </cc:Work>
  </rdf:RDF>
 </metadata>
 <defs>
  <style type="text/css">*{stroke-linejoin: round; stroke-linecap: butt}</style>
 </defs>
 <g id="figure_1">
  <g id="patch_1">
   <path d="M 0 345.6 
L 460.8 345.6 
L 460.8 0 
L 0 0 
z
" style="fill: #ffffff"/>
  </g>
  <g id="axes_1">
   <g id="patch_2">
    <path d="M 243.398845 173.496517 
C 244.679387 173.496517 245.907654 172.987752 246.813134 172.082272 
C 247.718615 171.176792 248.227379 169.948525 248.227379 168.667983 
C 248.227379 167.387441 247.718615 166.159174 246.813134 165.253694 
C 245.907654 164.348214 244.679387 163.839449 243.398845 163.839449 
C 242.118303 163.839449 240.890036 164.348214 239.984556 165.253694 
C 239.079076 166.159174 238.570311 167.387441 238.570311 168.667983 
C 238.570311 169.948525 239.079076 171.176792 239.984556 172.082272 
C 240.890036 172.987752 242.118303 173.496517 243.398845 173.496517 
L 243.398845 173.496517 
z
" clip-path="url(#p8bc380f2b1)" style="fill: none; stroke: #0000ff; stroke-linejoin: miter"/>
   </g>
   <g id="patch_3">
    <path d="M 243.398845 156.596647 
C 244.039116 156.596647 244.65325 156.342265 245.10599 155.889525 
C 245.55873 155.436785 245.813112 154.822651 245.813112 154.18238 
C 245.813112 153.542109 245.55873 152.927976 245.10599 152.475236 
C 244.65325 152.022495 244.039116 151.768113 243.398845 151.768113 
C 242.758574 151.768113 242.144441 152.022495 241.691701 152.475236 
C 241.23896 152.927976 240.984578 153.542109 240.984578 154.18238 
C 240.984578 154.822651 241.23896 155.436785 241.691701 155.889525 
C 242.144441 156.342265 242.758574 156.596647 243.398845 156.596647 
L 243.398845 156.596647 
z
" clip-path="url(#p8bc380f2b1)" style="fill: none; stroke: #008000; stroke-linejoin: miter"/>
   </g>
   <g id="line2d_1">
    <path d="M 280.076967 267.581787 
L 277.421175 268.733744 
L 277.044814 269.031913 
L 276.967141 269.33115 
L 277.230899 269.65562 
L 278.318617 270.268593 
L 277.136775 271.024791 
L 276.372448 271.849759 
L 275.851636 272.766327 
L 274.697855 275.101196 
L 273.90457 275.827145 
L 272.871869 276.481284 
L 271.6207 277.052236 
L 270.159501 277.527761 
L 267.88905 277.993335 
L 262.163213 278.942778 
L 261.348465 279.26947 
L 260.760023 279.718092 
L 260.121427 280.554339 
L 259.317735 282.236823 
L 258.559405 283.646934 
L 258.014379 284.268579 
L 257.291529 284.763569 
L 256.02092 285.362646 
L 253.840045 286.325612 
L 253.093539 286.84508 
L 252.491859 287.532736 
L 252.259605 287.962838 
L 246.008578 291.950657 
L 245.542917 292.186341 
L 244.873007 293.093531 
L 244.077367 293.851905 
L 243.170399 294.458643 
L 242.167433 294.917375 
L 241.08319 295.235792 
L 239.332221 295.470393 
L 237.460773 295.437047 
L 234.864443 295.117342 
L 232.832332 294.628879 
L 230.712565 293.876563 
L 228.51103 292.866185 
L 223.411066 290.333049 
L 220.840128 289.530559 
L 217.088413 288.393312 
L 215.817089 287.908493 
L 213.696392 286.560656 
L 211.481115 284.894501 
L 209.138274 282.848872 
L 206.626853 280.371643 
L 201.330425 274.85885 
L 196.967435 271.125013 
L 191.571944 266.551636 
L 185.724375 261.250321 
L 183.105648 259.167857 
L 181.403894 258.115493 
L 179.932427 257.470477 
L 178.596817 257.130801 
L 176.994306 256.978961 
L 176.672199 256.968173 
L 176.07923 257.131412 
L 175.065079 257.097494 
L 171.762623 256.605638 
L 169.517829 256.873035 
L 168.295365 256.642743 
L 167.033818 256.135307 
L 165.753788 255.348417 
L 164.472306 254.281227 
L 163.201569 252.838657 
L 161.952999 251.029949 
L 160.332145 248.260285 
L 157.254451 242.494337 
L 155.792546 239.179587 
L 153.035438 232.683593 
L 152.084076 231.020421 
L 150.263815 228.482165 
L 147.645307 224.876203 
L 144.06881 219.625742 
L 143.271402 218.429232 
L 142.07402 217.560926 
L 140.917969 216.383017 
L 139.826101 214.927438 
L 138.812882 213.229433 
L 134.957549 213.258013 
L 133.664167 212.909091 
L 132.873528 212.475117 
L 131.387911 211.347279 
L 128.115302 209.241194 
L 126.51978 207.970542 
L 125.755717 207.261732 
L 124.819067 206.730747 
L 123.993768 206.044954 
L 123.283044 205.218121 
L 122.703914 204.246946 
L 122.289687 203.110882 
L 122.089447 201.773207 
L 122.16212 200.184634 
L 123.057588 195.581083 
L 124.268019 190.739962 
L 125.694831 185.064235 
L 126.034406 183.352482 
L 125.96314 180.159276 
L 125.909686 171.53373 
L 125.240378 164.536483 
L 124.484077 163.409592 
L 122.929586 161.632415 
L 121.309399 159.731234 
L 120.468955 158.441937 
L 120.225837 156.814712 
L 120.141798 154.528638 
L 120.064361 151.092168 
L 119.806614 149.463488 
L 117.9464 146.004406 
L 117.356496 144.387004 
L 117.122802 143.251515 
L 117.059501 142.069413 
L 117.201714 140.841539 
L 117.596715 139.56608 
L 118.250829 138.247846 
L 119.125883 136.897083 
L 120.761583 134.827551 
L 123.324061 132.024073 
L 125.355371 129.920436 
L 126.791644 126.908047 
L 128.997305 122.225886 
L 130.022575 120.471717 
L 133.132366 117.365559 
L 138.920536 111.463306 
L 139.977311 110.340547 
L 142.352909 107.188363 
L 145.734151 102.220139 
L 147.20388 99.832724 
L 149.450972 95.632445 
L 149.697382 95.168845 
L 149.291092 90.830182 
L 148.741115 88.695132 
L 148.111967 86.955556 
L 149.392881 83.858004 
L 150.707076 81.308934 
L 151.966993 79.321888 
L 153.775487 76.917214 
L 155.109361 75.57386 
L 157.08801 73.881879 
L 159.701504 71.866399 
L 161.80659 70.916678 
L 164.187962 70.113733 
L 167.670528 69.215674 
L 171.4678 68.490533 
L 173.493501 68.192059 
L 178.343993 66.366287 
L 180.734523 65.757842 
L 183.585593 65.360507 
L 187.806868 65.023778 
L 201.559187 60.998501 
L 204.802528 59.805084 
L 211.289931 57.198903 
L 219.848602 54.223935 
L 222.70686 53.67908 
L 223.969093 53.568 
L 225.530301 53.696571 
L 228.328143 54.261353 
L 231.56379 55.172176 
L 238.840583 57.554511 
L 240.092231 57.971516 
L 243.44889 58.652224 
L 249.812458 60.297234 
L 253.756815 61.243524 
L 257.080271 61.67773 
L 259.761755 61.796019 
L 262.805898 61.626472 
L 268.358753 61.501193 
L 270.601731 61.723282 
L 273.493185 62.259163 
L 276.51048 63.030737 
L 281.072504 64.443641 
L 286.071655 66.243933 
L 289.103662 67.556553 
L 291.200869 68.646812 
L 293.053334 69.99723 
L 296.323887 72.69945 
L 300.581054 76.249144 
L 303.232054 78.346233 
L 305.585807 80.552533 
L 309.288061 84.377101 
L 311.452541 86.564719 
L 315.158843 90.230629 
L 318.244398 93.191954 
L 319.32295 93.847176 
L 320.245873 94.09699 
L 321.682866 94.328256 
L 323.320374 95.68458 
L 325.144752 96.848366 
L 326.988942 97.989929 
L 331.224787 102.065673 
L 332.213419 103.450585 
L 333.531049 105.840257 
L 335.437439 109.975841 
L 338.830047 117.869938 
L 340.561973 122.318215 
L 341.027807 123.696667 
L 343.57703 134.198875 
L 344.875349 138.693254 
L 348.014719 148.588518 
L 349.110047 150.89144 
L 350.165648 153.553855 
L 350.682996 154.197728 
L 350.887894 154.335487 
L 351.620533 155.942312 
L 352.243095 157.851272 
L 352.618604 159.630969 
L 352.850191 161.657838 
L 352.869813 164.021712 
L 352.682162 166.674604 
L 352.202482 170.27948 
L 350.83018 178.117263 
L 349.854315 181.999686 
L 348.885647 185.675321 
L 347.159497 191.78411 
L 344.509124 200.927276 
L 342.577502 210.267748 
L 341.557941 213.854002 
L 341.737653 214.62236 
L 342.201054 215.552957 
L 343.556188 217.835708 
L 343.485939 218.608085 
L 343.679845 219.256421 
L 344.103596 219.819494 
L 345.089393 220.58689 
L 348.354643 222.545301 
L 349.914094 223.125512 
L 351.13438 223.877127 
L 352.070534 224.748562 
L 352.759914 225.704607 
L 353.220916 226.720349 
L 353.454284 227.776741 
L 353.447184 228.857747 
L 353.180806 229.949091 
L 355.099886 235.234235 
L 355.260499 236.467817 
L 355.209763 237.071384 
L 355.032973 237.655542 
L 354.695612 238.210886 
L 354.160599 238.728005 
L 351.776834 240.121406 
L 348.798765 241.398962 
L 340.308719 244.72632 
L 337.847911 246.033152 
L 334.813018 247.757586 
L 331.144448 249.854209 
L 328.53692 251.046277 
L 325.328664 252.184141 
L 317.976129 254.439546 
L 313.443577 256.286112 
L 308.957498 258.057143 
L 296.085289 262.404607 
L 290.740617 264.008513 
L 285.425291 265.556576 
L 282.230487 266.6837 
L 280.076967 267.581787 
L 280.076967 267.581787 
" clip-path="url(#p8bc380f2b1)" style="fill: none; stroke: #1f77b4; stroke-width: 1.5; stroke-linecap: square"/>
   </g>
  </g>
 </g>
 <defs>
  <clipPath id="p8bc380f2b1">
   <rect x="105.149451" y="41.472" width="262.021097" height="266.112"/>
  </clipPath>
 </defs>
</svg>
