<?xml version="1.0" encoding="utf-8" standalone="no"?>
<!DOCTYPE svg PUBLIC "-//W3C//DTD SVG 1.1//EN"
  "http://www.w3.org/Graphics/SVG/1.1/DTD/svg11.dtd">
<svg xmlns:xlink="http://www.w3.org/1999/xlink" width="460.8pt" height="345.6pt" viewBox="0 0 460.8 345.6" xmlns="http://www.w3.org/2000/svg" version="1.1">
 <metadata>
  <rdf:RDF xmlns:dc="http://purl.org/dc/elements/1.1/" xmlns:cc="http://creativecommons.org/ns#" xmlns:rdf="http://www.w3.org/1999/02/22-rdf-syntax-ns#">
   <cc:Work>
    <dc:type rdf:resource="http://purl.org/dc/dcmitype/StillImage"/>
    <dc:date>2024-01-27T16:46:24.948507</dc:date>
    <dc:format>image/svg+xml</dc:format>
    <dc:creator>
     <cc:Agent>
      <dc:title>Matplotlib v3.6.2, https://matplotlib.org/</dc:title>
     </cc:Agent>
    </dc:creator>
   </cc:Work>
  </rdf:RDF>
 </metadata>
 <defs>
  <style type="text/css">*{stroke-linejoin: round; stroke-linecap: butt}</style>
 </defs>
 <g id="figure_1">
  <g id="patch_1">
   <path d="M 0 345.6 
L 460.8 345.6 
L 460.8 0 
L 0 0 
z
" style="fill: #ffffff"/>
  </g>
  <g id="axes_1">
   <g id="patch_2">
    <path d="M 223.426813 187.475359 
C 224.794386 187.475359 226.10613 186.932017 227.07315 185.964997 
C 228.04017 184.997977 228.583512 183.686233 228.583512 182.31866 
C 228.583512 180.951088 228.04017 179.639343 227.07315 178.672323 
C 226.10613 177.705304 224.794386 177.161961 223.426813 177.161961 
C 222.05924 177.161961 220.747496 177.705304 219.780476 178.672323 
C 218.813456 179.639343 218.270114 180.951088 218.270114 182.31866 
C 218.270114 183.686233 218.813456 184.997977 219.780476 185.964997 
C 220.747496 186.932017 222.05924 187.475359 223.426813 187.475359 
L 223.426813 187.475359 
z
" clip-path="url(#p2013a4713a)" style="fill: none; stroke: #0000ff; stroke-linejoin: miter"/>
   </g>
   <g id="patch_3">
    <path d="M 223.426813 169.426913 
C 224.110599 169.426913 224.766471 169.155241 225.249981 168.671732 
C 225.733491 168.188222 226.005162 167.532349 226.005162 166.848563 
C 226.005162 166.164777 225.733491 165.508905 225.249981 165.025395 
C 224.766471 164.541885 224.110599 164.270214 223.426813 164.270214 
C 222.743027 164.270214 222.087154 164.541885 221.603645 165.025395 
C 221.120135 165.508905 220.848463 166.164777 220.848463 166.848563 
C 220.848463 167.532349 221.120135 168.188222 221.603645 168.671732 
C 222.087154 169.155241 222.743027 169.426913 223.426813 169.426913 
L 223.426813 169.426913 
z
" clip-path="url(#p2013a4713a)" style="fill: none; stroke: #008000; stroke-linejoin: miter"/>
   </g>
   <g id="patch_4">
    <path d="M 238.89691 184.89701 
C 239.580696 184.89701 240.236569 184.625339 240.720079 184.141829 
C 241.203588 183.658319 241.47526 183.002446 241.47526 182.31866 
C 241.47526 181.634874 241.203588 180.979002 240.720079 180.495492 
C 240.236569 180.011982 239.580696 179.740311 238.89691 179.740311 
C 238.213124 179.740311 237.557252 180.011982 237.073742 180.495492 
C 236.590232 180.979002 236.318561 181.634874 236.318561 182.31866 
C 236.318561 183.002446 236.590232 183.658319 237.073742 184.141829 
C 237.557252 184.625339 238.213124 184.89701 238.89691 184.89701 
L 238.89691 184.89701 
z
" clip-path="url(#p2013a4713a)" style="fill: none; stroke: #008000; stroke-linejoin: miter"/>
   </g>
   <g id="patch_5">
    <path d="M 212.752446 167.209532 
L 234.10118 167.209532 
L 234.10118 156.174196 
L 212.752446 156.174196 
L 212.752446 167.209532 
z
" clip-path="url(#p2013a4713a)" style="fill: none; stroke: #ff0000; stroke-linejoin: miter"/>
   </g>
   <g id="patch_6">
    <path d="M 212.752446 208.463124 
L 234.10118 208.463124 
L 234.10118 197.427788 
L 212.752446 197.427788 
L 212.752446 208.463124 
z
" clip-path="url(#p2013a4713a)" style="fill: none; stroke: #ffa500; stroke-linejoin: miter"/>
   </g>
   <g id="patch_7">
    <path d="M 238.535941 192.993027 
L 249.571277 192.993027 
L 249.571277 171.644293 
L 238.535941 171.644293 
L 238.535941 192.993027 
z
" clip-path="url(#p2013a4713a)" style="fill: none; stroke: #ffff00; stroke-linejoin: miter"/>
   </g>
   <g id="patch_8">
    <path d="M 197.282349 192.993027 
L 208.317685 192.993027 
L 208.317685 171.644293 
L 197.282349 171.644293 
L 197.282349 192.993027 
z
" clip-path="url(#p2013a4713a)" style="fill: none; stroke: #008000; stroke-linejoin: miter"/>
   </g>
   <g id="line2d_1">
    <path d="M 259.927791 288.341812 
L 253.30381 290.586225 
L 247.307949 292.32649 
L 242.959971 293.350901 
L 238.44202 294.20122 
L 232.413745 295.073721 
L 228.643169 295.385314 
L 224.563544 295.488 
L 210.301495 295.357637 
L 204.839089 294.928222 
L 203.036537 294.825639 
L 196.042204 294.748349 
L 194.159123 294.522764 
L 192.035913 294.050651 
L 189.68021 293.30651 
L 184.729169 291.367971 
L 180.911395 289.59385 
L 175.840742 286.94076 
L 170.063813 284.126016 
L 169.530336 284.226728 
L 169.130326 284.542144 
L 168.685083 285.359159 
L 167.570065 288.039943 
L 167.067591 288.723819 
L 164.031209 288.556424 
L 158.595222 288.407285 
L 152.151345 287.403605 
L 147.994601 286.188951 
L 144.832362 285.043928 
L 140.588744 283.243989 
L 139.024465 282.236059 
L 137.497748 280.994711 
L 136.020304 279.513718 
L 129.083989 271.430004 
L 125.600382 267.206618 
L 121.312819 262.404611 
L 119.315368 259.740267 
L 117.056566 256.348003 
L 114.938224 252.810092 
L 112.639544 248.543703 
L 111.464512 245.923524 
L 110.695637 243.779232 
L 109.85271 240.627651 
L 108.797668 235.697764 
L 107.761472 229.921314 
L 107.187403 221.493064 
L 106.458327 209.537456 
L 105.999066 206.996254 
L 105.49397 205.479688 
L 104.496149 203.282602 
L 101.020524 194.415725 
L 99.342112 189.532763 
L 98.891293 186.026479 
L 98.486031 182.544964 
L 98.44401 180.681644 
L 98.469137 180.03067 
L 100.906255 173.57292 
L 104.872653 163.284296 
L 106.669756 158.128219 
L 108.400819 153.73997 
L 111.102121 148.668501 
L 114.538442 142.737773 
L 121.973444 130.640129 
L 124.520604 126.960136 
L 128.487504 121.67686 
L 132.659817 116.488916 
L 136.551696 111.682628 
L 139.24622 108.305784 
L 141.957834 105.335828 
L 145.04476 102.270784 
L 148.370856 99.241044 
L 152.030817 96.201239 
L 155.968068 93.208732 
L 160.533621 90.026453 
L 168.454414 84.641485 
L 171.41412 82.313657 
L 171.847583 81.770277 
L 172.820162 80.93256 
L 175.905528 78.694807 
L 181.018152 75.539904 
L 182.830215 74.67618 
L 186.774727 73.060003 
L 190.107098 71.733177 
L 191.445798 70.906897 
L 192.78239 69.776451 
L 194.164096 68.273013 
L 195.65703 66.304225 
L 197.437442 63.800055 
L 197.891367 61.643006 
L 198.481904 59.860205 
L 199.100272 58.539026 
L 199.897323 57.275448 
L 200.592546 56.534389 
L 201.86102 55.589946 
L 203.308586 54.790664 
L 204.948045 54.174252 
L 206.790415 53.77735 
L 208.845825 53.634115 
L 212.368252 53.577888 
L 215.308175 53.749325 
L 218.393639 54.170156 
L 221.638523 54.867933 
L 225.498159 55.626442 
L 229.720458 56.199622 
L 235.545085 56.684005 
L 242.40304 57.292905 
L 246.177006 57.858749 
L 250.007574 58.6751 
L 253.25107 59.588994 
L 255.972587 60.680235 
L 259.437013 62.33924 
L 267.374716 66.33407 
L 271.717637 68.545544 
L 276.565734 71.275553 
L 281.848845 74.560534 
L 285.164624 76.548046 
L 291.449951 80.240288 
L 291.831811 79.985632 
L 292.180029 79.51512 
L 292.845788 78.035317 
L 294.995798 72.505746 
L 296.20852 70.157593 
L 297.608996 68.058218 
L 299.12508 66.404207 
L 299.895251 65.800359 
L 301.192393 66.038771 
L 302.575154 65.961921 
L 304.052401 65.635218 
L 306.455132 64.826053 
L 311.871502 62.841157 
L 312.833177 62.541415 
L 317.174527 63.984216 
L 321.503444 65.667024 
L 324.366002 66.932163 
L 326.3196 66.859293 
L 328.212839 66.958368 
L 330.024653 67.232331 
L 331.740255 67.676579 
L 333.352209 68.279845 
L 334.860264 69.025875 
L 336.938801 70.37278 
L 337.585522 70.874712 
L 341.499687 75.011627 
L 345.254113 79.29463 
L 347.813762 82.457364 
L 350.17136 85.779068 
L 353.24454 90.581813 
L 353.673676 91.272569 
L 347.699409 102.687383 
L 345.737302 106.945882 
L 343.97068 111.259588 
L 342.45823 115.514912 
L 341.23125 119.598427 
L 340.301131 123.399799 
L 341.866014 127.305512 
L 345.73186 136.507108 
L 347.537492 141.483802 
L 349.275212 146.373123 
L 349.871592 147.388416 
L 350.607521 148.254011 
L 351.530562 148.938755 
L 352.698704 149.413385 
L 354.182694 149.653761 
L 355.069497 149.680965 
L 358.487119 153.396491 
L 361.911737 157.431353 
L 368.210216 159.69409 
L 369.963098 160.559846 
L 371.506523 161.578105 
L 372.722497 162.760874 
L 373.170334 163.415419 
L 373.492002 164.112336 
L 373.751766 165.620914 
L 373.875503 167.952973 
L 373.783843 171.112325 
L 373.403609 174.317029 
L 372.4717 179.149762 
L 371.439862 183.928018 
L 370.66415 187.83433 
L 370.391838 190.117954 
L 370.319164 193.094926 
L 370.310698 198.273085 
L 370.080764 200.515204 
L 369.772146 202.020934 
L 368.958787 203.566861 
L 367.844771 205.132077 
L 365.792026 207.505017 
L 359.3006 214.583763 
L 355.431907 219.142661 
L 348.944013 226.528091 
L 347.269936 228.046364 
L 346.053443 229.45909 
L 344.77825 231.437484 
L 342.983835 234.60737 
L 341.988095 235.906409 
L 339.630259 238.529777 
L 336.87347 241.692975 
L 333.263396 245.42314 
L 331.40262 247.248018 
L 303.778553 266.537543 
L 297.932617 270.334969 
L 292.674537 273.464248 
L 281.551444 279.229708 
L 276.157366 281.865181 
L 271.708264 283.882772 
L 266.618576 285.952392 
L 260.465629 288.154695 
L 259.927791 288.341812 
L 259.927791 288.341812 
" clip-path="url(#p2013a4713a)" style="fill: none; stroke: #1f77b4; stroke-width: 1.5; stroke-linecap: square"/>
   </g>
  </g>
 </g>
 <defs>
  <clipPath id="p2013a4713a">
   <rect x="84.668028" y="41.472" width="302.983943" height="266.112"/>
  </clipPath>
 </defs>
</svg>
