<?xml version="1.0" encoding="utf-8" standalone="no"?>
<!DOCTYPE svg PUBLIC "-//W3C//DTD SVG 1.1//EN"
  "http://www.w3.org/Graphics/SVG/1.1/DTD/svg11.dtd">
<svg xmlns:xlink="http://www.w3.org/1999/xlink" width="460.8pt" height="345.6pt" viewBox="0 0 460.8 345.6" xmlns="http://www.w3.org/2000/svg" version="1.1">
 <metadata>
  <rdf:RDF xmlns:dc="http://purl.org/dc/elements/1.1/" xmlns:cc="http://creativecommons.org/ns#" xmlns:rdf="http://www.w3.org/1999/02/22-rdf-syntax-ns#">
   <cc:Work>
    <dc:type rdf:resource="http://purl.org/dc/dcmitype/StillImage"/>
    <dc:date>2024-01-27T16:45:35.083977</dc:date>
    <dc:format>image/svg+xml</dc:format>
    <dc:creator>
     <cc:Agent>
      <dc:title>Matplotlib v3.6.2, https://matplotlib.org/</dc:title>
     </cc:Agent>
    </dc:creator>
   </cc:Work>
  </rdf:RDF>
 </metadata>
 <defs>
  <style type="text/css">*{stroke-linejoin: round; stroke-linecap: butt}</style>
 </defs>
 <g id="figure_1">
  <g id="patch_1">
   <path d="M 0 345.6 
L 460.8 345.6 
L 460.8 0 
L 0 0 
z
" style="fill: #ffffff"/>
  </g>
  <g id="axes_1">
   <g id="patch_2">
    <path d="M 233.100438 186.765272 
C 234.465882 186.765272 235.775584 186.222775 236.741099 185.257261 
C 237.706613 184.291746 238.24911 182.982044 238.24911 181.6166 
C 238.24911 180.251157 237.706613 178.941454 236.741099 177.97594 
C 235.775584 177.010425 234.465882 176.467929 233.100438 176.467929 
C 231.734995 176.467929 230.425292 177.010425 229.459778 177.97594 
C 228.494263 178.941454 227.951767 180.251157 227.951767 181.6166 
C 227.951767 182.982044 228.494263 184.291746 229.459778 185.257261 
C 230.425292 186.222775 231.734995 186.765272 233.100438 186.765272 
L 233.100438 186.765272 
z
" clip-path="url(#paab90924f8)" style="fill: none; stroke: #0000ff; stroke-linejoin: miter"/>
   </g>
   <g id="patch_3">
    <path d="M 233.100438 172.348991 
C 233.78316 172.348991 234.438011 172.077743 234.920769 171.594986 
C 235.403526 171.112229 235.674774 170.457378 235.674774 169.774656 
C 235.674774 169.091934 235.403526 168.437083 234.920769 167.954325 
C 234.438011 167.471568 233.78316 167.20032 233.100438 167.20032 
C 232.417716 167.20032 231.762865 167.471568 231.280108 167.954325 
C 230.797351 168.437083 230.526102 169.091934 230.526102 169.774656 
C 230.526102 170.457378 230.797351 171.112229 231.280108 171.594986 
C 231.762865 172.077743 232.417716 172.348991 233.100438 172.348991 
L 233.100438 172.348991 
z
" clip-path="url(#paab90924f8)" style="fill: none; stroke: #008000; stroke-linejoin: miter"/>
   </g>
   <g id="patch_4">
    <path d="M 244.942383 184.190936 
C 245.625105 184.190936 246.279956 183.919688 246.762713 183.436931 
C 247.24547 182.954173 247.516719 182.299322 247.516719 181.6166 
C 247.516719 180.933878 247.24547 180.279027 246.762713 179.79627 
C 246.279956 179.313513 245.625105 179.042265 244.942383 179.042265 
C 244.259661 179.042265 243.60481 179.313513 243.122053 179.79627 
C 242.639295 180.279027 242.368047 180.933878 242.368047 181.6166 
C 242.368047 182.299322 242.639295 182.954173 243.122053 183.436931 
C 243.60481 183.919688 244.259661 184.190936 244.942383 184.190936 
L 244.942383 184.190936 
z
" clip-path="url(#paab90924f8)" style="fill: none; stroke: #008000; stroke-linejoin: miter"/>
   </g>
   <g id="patch_5">
    <path d="M 225.017024 163.956657 
L 241.183853 163.956657 
L 241.183853 158.087171 
L 225.017024 158.087171 
L 225.017024 163.956657 
z
" clip-path="url(#paab90924f8)" style="fill: none; stroke: #ff0000; stroke-linejoin: miter"/>
   </g>
   <g id="patch_6">
    <path d="M 225.017024 205.146029 
L 241.183853 205.146029 
L 241.183853 199.276544 
L 225.017024 199.276544 
L 225.017024 205.146029 
z
" clip-path="url(#paab90924f8)" style="fill: none; stroke: #ffa500; stroke-linejoin: miter"/>
   </g>
   <g id="patch_7">
    <path d="M 250.760382 189.700015 
L 256.629867 189.700015 
L 256.629867 173.533186 
L 250.760382 173.533186 
L 250.760382 189.700015 
z
" clip-path="url(#paab90924f8)" style="fill: none; stroke: #ffff00; stroke-linejoin: miter"/>
   </g>
   <g id="patch_8">
    <path d="M 209.571009 189.700015 
L 215.440495 189.700015 
L 215.440495 173.533186 
L 209.571009 173.533186 
L 209.571009 189.700015 
z
" clip-path="url(#paab90924f8)" style="fill: none; stroke: #008000; stroke-linejoin: miter"/>
   </g>
   <g id="line2d_1">
    <path d="M 288.452396 287.333629 
L 285.544617 288.379762 
L 282.04185 289.619167 
L 270.705647 292.565051 
L 265.918676 293.417031 
L 257.362339 294.614132 
L 246.794599 295.450832 
L 241.267241 295.469415 
L 234.53264 295.282794 
L 229.982983 294.934669 
L 223.707549 294.132238 
L 219.479954 293.515981 
L 218.09037 293.451144 
L 214.418857 293.0453 
L 209.015919 292.380537 
L 207.062341 292.089694 
L 205.199693 291.829945 
L 203.739631 291.576645 
L 199.970965 290.91902 
L 193.186698 289.714704 
L 191.248187 289.220539 
L 185.875069 288.137533 
L 182.986605 287.284056 
L 180.493884 286.388647 
L 177.444313 285.121724 
L 168.061701 280.820139 
L 164.651585 279.005674 
L 163.699763 278.51422 
L 162.249069 277.675854 
L 154.71016 273.172942 
L 146.007253 267.068315 
L 139.800744 262.164541 
L 137.192341 259.968104 
L 136.007391 257.973217 
L 132.696848 251.67833 
L 130.677717 247.399235 
L 128.510978 242.355687 
L 126.302463 236.445304 
L 125.286981 233.537815 
L 123.711907 228.237699 
L 122.70284 224.497102 
L 121.355673 218.314216 
L 120.779346 215.248936 
L 119.788151 208.167547 
L 119.168273 201.057645 
L 118.955272 194.647958 
L 118.973143 189.160861 
L 119.271788 183.52135 
L 120.053745 175.609547 
L 120.674143 170.617356 
L 120.604616 164.610308 
L 120.630611 162.843824 
L 120.645114 160.684491 
L 120.671528 158.942794 
L 120.760012 156.276032 
L 120.984896 152.195491 
L 121.289123 148.488019 
L 121.838624 143.311294 
L 122.055034 141.85355 
L 122.59096 138.012776 
L 123.346279 133.606148 
L 125.013893 126.075724 
L 127.848373 115.812421 
L 132.087801 104.207015 
L 134.15372 99.935927 
L 134.421292 99.402146 
L 134.974832 98.88401 
L 136.785042 96.26572 
L 138.204658 94.742616 
L 140.027019 93.286301 
L 140.38087 92.778136 
L 141.011983 92.304886 
L 141.450936 91.810999 
L 143.298373 90.414652 
L 143.664309 89.92048 
L 144.915082 89.014326 
L 145.36556 88.539233 
L 147.23957 87.213443 
L 147.6724 86.745347 
L 149.507392 85.450522 
L 149.947232 84.992813 
L 151.774053 83.73283 
L 152.243127 83.290061 
L 154.188018 82.09204 
L 155.169319 81.238122 
L 157.099087 80.083938 
L 157.631776 79.678447 
L 157.993178 79.231285 
L 168.705997 72.717236 
L 171.157481 71.414563 
L 173.420797 70.081352 
L 174.108384 69.80277 
L 175.240894 69.1552 
L 178.419463 67.728354 
L 178.902524 67.382491 
L 180.949098 66.632793 
L 182.590744 65.715268 
L 183.821472 65.180702 
L 184.359039 64.877142 
L 186.303223 64.152684 
L 186.958077 63.920716 
L 188.032747 63.335016 
L 189.399179 62.921423 
L 189.905065 62.616974 
L 191.243365 62.204496 
L 192.412565 61.701637 
L 193.62508 61.233292 
L 194.918291 60.825501 
L 196.212725 60.429638 
L 198.179669 59.873856 
L 198.672193 59.581921 
L 202.498899 58.478438 
L 204.226322 57.817333 
L 207.512354 57.076318 
L 208.050301 56.837373 
L 209.999448 56.412425 
L 211.884788 55.954271 
L 213.168338 55.684228 
L 215.66638 55.106837 
L 217.066114 54.979164 
L 217.618431 54.773521 
L 220.859127 54.256422 
L 221.557062 54.214115 
L 222.14395 54.054722 
L 228.187982 53.580833 
L 234.546762 54.645635 
L 240.525232 55.592433 
L 242.847197 56.146844 
L 244.311996 56.434391 
L 249.33341 57.470065 
L 250.746544 57.785139 
L 252.129428 58.077572 
L 255.019694 58.919306 
L 261.784711 60.715399 
L 262.507995 61.006685 
L 263.751707 61.258319 
L 267.148054 62.493387 
L 268.452557 62.933946 
L 273.534846 64.672524 
L 274.81043 65.178987 
L 277.931004 66.411958 
L 278.626201 66.841434 
L 281.538947 67.780203 
L 283.387313 68.663081 
L 283.957238 68.850597 
L 284.588737 69.208784 
L 286.287904 69.789412 
L 288.65341 70.935034 
L 294.352392 73.617633 
L 295.479745 74.197715 
L 296.605114 74.803785 
L 298.818221 75.953744 
L 299.404533 76.42694 
L 304.793795 79.289841 
L 305.355429 79.809822 
L 307.983802 81.204521 
L 308.522652 81.663121 
L 310.604378 82.831613 
L 311.645062 83.522176 
L 313.192115 84.452477 
L 315.249466 86.788093 
L 315.753019 87.204672 
L 323.838807 96.702599 
L 329.768078 104.903608 
L 333.20313 110.485203 
L 337.376541 117.841753 
L 340.159733 123.550759 
L 342.39392 128.681961 
L 343.222207 130.446189 
L 343.753161 131.647941 
L 346.566165 139.234757 
L 348.345231 145.013975 
L 349.856499 150.814943 
L 350.845227 155.342383 
L 352.678918 169.948245 
L 352.703039 171.365661 
L 352.983885 174.480098 
L 353.382776 193.986886 
L 353.150222 202.068609 
L 352.772262 207.265516 
L 352.568319 207.948267 
L 352.460461 209.096816 
L 350.108135 215.343283 
L 348.686659 218.73797 
L 345.546499 225.390675 
L 344.472029 227.379509 
L 340.506121 234.360113 
L 336.161003 241.035031 
L 334.444013 243.403269 
L 332.313456 246.265553 
L 328.758411 250.700367 
L 326.526921 253.350609 
L 322.304996 258.304106 
L 321.099293 259.710354 
L 320.84831 260.130961 
L 320.031929 261.054314 
L 319.77576 261.47215 
L 318.611117 262.816984 
L 315.807474 266.246102 
L 315.025988 267.100794 
L 313.519596 268.777886 
L 311.953494 270.434432 
L 308.265188 274.069452 
L 302.439479 279.061568 
L 300.462528 280.521694 
L 296.837321 282.972591 
L 294.799053 284.321992 
L 293.385947 284.935226 
L 290.566101 286.496507 
L 288.490071 287.339394 
L 288.490071 287.339394 
" clip-path="url(#paab90924f8)" style="fill: none; stroke: #1f77b4; stroke-width: 1.5; stroke-linecap: square"/>
   </g>
  </g>
 </g>
 <defs>
  <clipPath id="paab90924f8">
   <rect x="107.194095" y="41.472" width="257.93181" height="266.112"/>
  </clipPath>
 </defs>
</svg>
