<?xml version="1.0" encoding="utf-8" standalone="no"?>
<!DOCTYPE svg PUBLIC "-//W3C//DTD SVG 1.1//EN"
  "http://www.w3.org/Graphics/SVG/1.1/DTD/svg11.dtd">
<svg xmlns:xlink="http://www.w3.org/1999/xlink" width="460.8pt" height="345.6pt" viewBox="0 0 460.8 345.6" xmlns="http://www.w3.org/2000/svg" version="1.1">
 <metadata>
  <rdf:RDF xmlns:dc="http://purl.org/dc/elements/1.1/" xmlns:cc="http://creativecommons.org/ns#" xmlns:rdf="http://www.w3.org/1999/02/22-rdf-syntax-ns#">
   <cc:Work>
    <dc:type rdf:resource="http://purl.org/dc/dcmitype/StillImage"/>
    <dc:date>2024-01-27T18:01:17.590164</dc:date>
    <dc:format>image/svg+xml</dc:format>
    <dc:creator>
     <cc:Agent>
      <dc:title>Matplotlib v3.6.2, https://matplotlib.org/</dc:title>
     </cc:Agent>
    </dc:creator>
   </cc:Work>
  </rdf:RDF>
 </metadata>
 <defs>
  <style type="text/css">*{stroke-linejoin: round; stroke-linecap: butt}</style>
 </defs>
 <g id="figure_1">
  <g id="patch_1">
   <path d="M 0 345.6 
L 460.8 345.6 
L 460.8 0 
L 0 0 
z
" style="fill: #ffffff"/>
  </g>
  <g id="axes_1">
   <g id="patch_2">
    <path d="M 223.525696 171.267462 
C 224.761082 171.267462 225.946036 170.776637 226.819586 169.903087 
C 227.693136 169.029537 228.183961 167.844583 228.183961 166.609197 
C 228.183961 165.37381 227.693136 164.188856 226.819586 163.315306 
C 225.946036 162.441756 224.761082 161.950932 223.525696 161.950932 
C 222.290309 161.950932 221.105355 162.441756 220.231805 163.315306 
C 219.358255 164.188856 218.867431 165.37381 218.867431 166.609197 
C 218.867431 167.844583 219.358255 169.029537 220.231805 169.903087 
C 221.105355 170.776637 222.290309 171.267462 223.525696 171.267462 
L 223.525696 171.267462 
z
" clip-path="url(#p1e8ac239da)" style="fill: none; stroke: #0000ff; stroke-linejoin: miter"/>
   </g>
   <g id="patch_3">
    <path d="M 223.525696 154.963534 
C 224.143389 154.963534 224.735866 154.718122 225.172641 154.281347 
C 225.609416 153.844572 225.854828 153.252095 225.854828 152.634402 
C 225.854828 152.016709 225.609416 151.424232 225.172641 150.987457 
C 224.735866 150.550682 224.143389 150.305269 223.525696 150.305269 
C 222.908002 150.305269 222.315525 150.550682 221.87875 150.987457 
C 221.441975 151.424232 221.196563 152.016709 221.196563 152.634402 
C 221.196563 153.252095 221.441975 153.844572 221.87875 154.281347 
C 222.315525 154.718122 222.908002 154.963534 223.525696 154.963534 
L 223.525696 154.963534 
z
" clip-path="url(#p1e8ac239da)" style="fill: none; stroke: #008000; stroke-linejoin: miter"/>
   </g>
   <g id="patch_4">
    <path d="M 237.50049 168.938329 
C 238.118184 168.938329 238.710661 168.692917 239.147436 168.256142 
C 239.584211 167.819367 239.829623 167.22689 239.829623 166.609197 
C 239.829623 165.991504 239.584211 165.399026 239.147436 164.962251 
C 238.710661 164.525476 238.118184 164.280064 237.50049 164.280064 
C 236.882797 164.280064 236.29032 164.525476 235.853545 164.962251 
C 235.41677 165.399026 235.171358 165.991504 235.171358 166.609197 
C 235.171358 167.22689 235.41677 167.819367 235.853545 168.256142 
C 236.29032 168.692917 236.882797 168.938329 237.50049 168.938329 
L 237.50049 168.938329 
z
" clip-path="url(#p1e8ac239da)" style="fill: none; stroke: #008000; stroke-linejoin: miter"/>
   </g>
   <g id="patch_5">
    <path d="M 213.883087 152.96048 
L 233.168304 152.96048 
L 233.168304 142.991794 
L 213.883087 142.991794 
L 213.883087 152.96048 
z
" clip-path="url(#p1e8ac239da)" style="fill: none; stroke: #ff0000; stroke-linejoin: miter"/>
   </g>
   <g id="patch_6">
    <path d="M 213.883087 190.2266 
L 233.168304 190.2266 
L 233.168304 180.257913 
L 213.883087 180.257913 
L 213.883087 190.2266 
z
" clip-path="url(#p1e8ac239da)" style="fill: none; stroke: #ffa500; stroke-linejoin: miter"/>
   </g>
   <g id="patch_7">
    <path d="M 237.174412 176.251805 
L 247.143099 176.251805 
L 247.143099 156.966588 
L 237.174412 156.966588 
L 237.174412 176.251805 
z
" clip-path="url(#p1e8ac239da)" style="fill: none; stroke: #ffff00; stroke-linejoin: miter"/>
   </g>
   <g id="patch_8">
    <path d="M 199.908293 176.251805 
L 209.876979 176.251805 
L 209.876979 156.966588 
L 199.908293 156.966588 
L 199.908293 176.251805 
z
" clip-path="url(#p1e8ac239da)" style="fill: none; stroke: #008000; stroke-linejoin: miter"/>
   </g>
   <g id="line2d_1">
    <path d="M 255.165227 262.625607 
L 250.633047 263.913563 
L 246.20647 264.981586 
L 241.939525 265.836571 
L 235.997375 266.75313 
L 224.600205 268.159121 
L 222.887979 268.721889 
L 221.500083 269.558805 
L 220.30053 270.734575 
L 219.140021 272.279551 
L 215.490072 277.638576 
L 213.431915 280.224394 
L 210.914376 282.926672 
L 207.898541 285.634258 
L 206.199656 286.953176 
L 204.374907 288.228747 
L 202.427595 289.445906 
L 200.362735 290.589772 
L 198.186985 291.645792 
L 195.908568 292.599884 
L 193.537165 293.438567 
L 191.083795 294.1491 
L 188.560665 294.719609 
L 185.980998 295.139218 
L 183.358821 295.39818 
L 180.708727 295.488 
L 178.045601 295.401559 
L 175.384318 295.133228 
L 172.739414 294.678968 
L 170.124752 294.03641 
L 167.553192 293.204904 
L 165.036284 292.185535 
L 162.584015 290.981088 
L 160.204629 289.59596 
L 157.904527 288.036014 
L 155.688273 286.308387 
L 153.558689 284.42124 
L 151.517037 282.383475 
L 149.563264 280.20444 
L 147.696282 277.893634 
L 145.914254 275.460425 
L 144.214864 272.913815 
L 142.595555 270.262252 
L 139.586806 264.674529 
L 136.868548 258.750027 
L 134.424441 252.529497 
L 132.241354 246.043721 
L 130.308413 239.316634 
L 128.615842 232.368603 
L 127.154074 225.219375 
L 125.913308 217.890566 
L 124.883519 210.407838 
L 124.05486 202.80303 
L 123.418413 195.116666 
L 122.967252 187.401346 
L 122.697795 179.726734 
L 122.611352 172.186848 
L 122.715363 164.909825 
L 123.022759 158.06737 
L 123.545735 151.873087 
L 124.279351 146.547242 
L 125.178626 142.234645 
L 126.151117 138.922232 
L 127.501617 135.437312 
L 128.474088 133.018477 
L 128.852968 131.658356 
L 129.0188 130.331584 
L 128.993629 128.940241 
L 128.66426 126.593207 
L 127.84005 122.795566 
L 124.782857 109.283758 
L 123.799658 103.918635 
L 123.256663 99.94796 
L 122.915638 95.664873 
L 122.903009 91.108727 
L 123.063135 88.752551 
L 123.35687 86.362997 
L 123.79955 83.957232 
L 124.404302 81.554277 
L 125.181456 79.174244 
L 126.138159 76.837466 
L 127.27823 74.563615 
L 128.602232 72.370907 
L 130.107755 70.275441 
L 131.789834 68.290745 
L 133.641446 66.427526 
L 135.654035 64.693616 
L 137.818 63.094082 
L 140.123127 61.63146 
L 142.558934 60.306064 
L 145.114934 59.11633 
L 147.780819 58.05917 
L 150.546573 57.130304 
L 153.402524 56.32456 
L 156.339366 55.636139 
L 159.348138 55.058831 
L 165.547164 54.211726 
L 171.933467 53.731441 
L 178.444027 53.568 
L 185.018158 53.675306 
L 191.59759 54.012415 
L 198.127573 54.5444 
L 204.558992 55.243034 
L 210.851157 56.08739 
L 216.974618 57.064296 
L 222.913085 58.168483 
L 228.663608 59.402193 
L 234.234582 60.774037 
L 239.641829 62.297021 
L 244.903641 63.985849 
L 250.035816 65.853817 
L 255.047597 67.909698 
L 259.939009 70.155033 
L 264.69972 72.582178 
L 269.309382 75.173278 
L 273.739284 77.900198 
L 277.955151 80.725293 
L 281.920895 83.602803 
L 285.603068 86.480677 
L 290.54102 90.674755 
L 296.003845 95.739207 
L 301.338591 100.695642 
L 303.202961 102.178234 
L 305.036723 103.396374 
L 306.923722 104.403512 
L 310.002629 105.703387 
L 314.73657 107.612739 
L 317.344963 108.890602 
L 320.04702 110.50017 
L 322.773553 112.491317 
L 325.455304 114.879922 
L 328.033629 117.650864 
L 330.467437 120.764811 
L 332.735882 124.166832 
L 334.837342 127.79527 
L 336.785621 131.589932 
L 339.473326 137.48416 
L 341.954181 143.526763 
L 344.273402 149.691851 
L 346.393435 156.026868 
L 347.630557 160.384028 
L 348.651703 164.872833 
L 349.37488 169.503762 
L 349.596335 171.872143 
L 349.708648 174.273789 
L 349.700096 176.706106 
L 349.559325 179.165737 
L 349.275624 181.648695 
L 348.839219 184.150524 
L 348.241566 186.666486 
L 347.475649 189.191758 
L 346.536267 191.721615 
L 345.420307 194.2516 
L 344.126977 196.777654 
L 342.65798 199.296193 
L 341.017615 201.804122 
L 339.212779 204.298792 
L 337.25286 206.77789 
L 335.149507 209.239291 
L 330.568251 214.100407 
L 325.592239 218.862561 
L 320.351667 223.500291 
L 314.967871 227.982086 
L 309.54174 232.273509 
L 304.14811 236.341928 
L 298.835551 240.160822 
L 293.629681 243.712381 
L 288.538081 246.988058 
L 283.555494 249.987451 
L 278.668659 252.716167 
L 273.860668 255.183316 
L 269.114908 257.39917 
L 264.418734 259.373324 
L 259.766967 261.113574 
L 255.165227 262.625607 
L 255.165227 262.625607 
" clip-path="url(#p1e8ac239da)" style="fill: none; stroke: #1f77b4; stroke-width: 1.5; stroke-linecap: square"/>
   </g>
  </g>
 </g>
 <defs>
  <clipPath id="p1e8ac239da">
   <rect x="111.256487" y="41.472" width="249.807026" height="266.112"/>
  </clipPath>
 </defs>
</svg>
