<?xml version="1.0" encoding="utf-8" standalone="no"?>
<!DOCTYPE svg PUBLIC "-//W3C//DTD SVG 1.1//EN"
  "http://www.w3.org/Graphics/SVG/1.1/DTD/svg11.dtd">
<svg xmlns:xlink="http://www.w3.org/1999/xlink" width="460.8pt" height="345.6pt" viewBox="0 0 460.8 345.6" xmlns="http://www.w3.org/2000/svg" version="1.1">
 <metadata>
  <rdf:RDF xmlns:dc="http://purl.org/dc/elements/1.1/" xmlns:cc="http://creativecommons.org/ns#" xmlns:rdf="http://www.w3.org/1999/02/22-rdf-syntax-ns#">
   <cc:Work>
    <dc:type rdf:resource="http://purl.org/dc/dcmitype/StillImage"/>
    <dc:date>2024-01-27T18:01:17.628793</dc:date>
    <dc:format>image/svg+xml</dc:format>
    <dc:creator>
     <cc:Agent>
      <dc:title>Matplotlib v3.6.2, https://matplotlib.org/</dc:title>
     </cc:Agent>
    </dc:creator>
   </cc:Work>
  </rdf:RDF>
 </metadata>
 <defs>
  <style type="text/css">*{stroke-linejoin: round; stroke-linecap: butt}</style>
 </defs>
 <g id="figure_1">
  <g id="patch_1">
   <path d="M 0 345.6 
L 460.8 345.6 
L 460.8 0 
L 0 0 
z
" style="fill: #ffffff"/>
  </g>
  <g id="axes_1">
   <g id="patch_2">
    <path d="M 235.184794 179.505297 
C 236.414783 179.505297 237.594561 179.016617 238.464295 178.146883 
C 239.334028 177.277149 239.822708 176.097372 239.822708 174.867383 
C 239.822708 173.637393 239.334028 172.457616 238.464295 171.587882 
C 237.594561 170.718148 236.414783 170.229468 235.184794 170.229468 
C 233.954804 170.229468 232.775027 170.718148 231.905293 171.587882 
C 231.035559 172.457616 230.546879 173.637393 230.546879 174.867383 
C 230.546879 176.097372 231.035559 177.277149 231.905293 178.146883 
C 232.775027 179.016617 233.954804 179.505297 235.184794 179.505297 
L 235.184794 179.505297 
z
" clip-path="url(#pe4af5ba363)" style="fill: none; stroke: #0000ff; stroke-linejoin: miter"/>
   </g>
   <g id="patch_3">
    <path d="M 235.184794 166.519137 
C 235.799788 166.519137 236.389677 166.274797 236.824544 165.83993 
C 237.259411 165.405063 237.503751 164.815174 237.503751 164.200179 
C 237.503751 163.585185 237.259411 162.995296 236.824544 162.560429 
C 236.389677 162.125562 235.799788 161.881222 235.184794 161.881222 
C 234.569799 161.881222 233.97991 162.125562 233.545043 162.560429 
C 233.110177 162.995296 232.865837 163.585185 232.865837 164.200179 
C 232.865837 164.815174 233.110177 165.405063 233.545043 165.83993 
C 233.97991 166.274797 234.569799 166.519137 235.184794 166.519137 
L 235.184794 166.519137 
z
" clip-path="url(#pe4af5ba363)" style="fill: none; stroke: #008000; stroke-linejoin: miter"/>
   </g>
   <g id="patch_4">
    <path d="M 245.851997 177.18634 
C 246.466992 177.18634 247.05688 176.942 247.491747 176.507133 
C 247.926614 176.072266 248.170954 175.482377 248.170954 174.867383 
C 248.170954 174.252388 247.926614 173.662499 247.491747 173.227632 
C 247.05688 172.792765 246.466992 172.548425 245.851997 172.548425 
C 245.237002 172.548425 244.647113 172.792765 244.212247 173.227632 
C 243.77738 173.662499 243.53304 174.252388 243.53304 174.867383 
C 243.53304 175.482377 243.77738 176.072266 244.212247 176.507133 
C 244.647113 176.942 245.237002 177.18634 245.851997 177.18634 
L 245.851997 177.18634 
z
" clip-path="url(#pe4af5ba363)" style="fill: none; stroke: #008000; stroke-linejoin: miter"/>
   </g>
   <g id="patch_5">
    <path d="M 227.903268 158.959336 
L 242.466319 158.959336 
L 242.466319 153.672114 
L 227.903268 153.672114 
L 227.903268 158.959336 
z
" clip-path="url(#pe4af5ba363)" style="fill: none; stroke: #ff0000; stroke-linejoin: miter"/>
   </g>
   <g id="patch_6">
    <path d="M 227.903268 196.062651 
L 242.466319 196.062651 
L 242.466319 190.775429 
L 227.903268 190.775429 
L 227.903268 196.062651 
z
" clip-path="url(#pe4af5ba363)" style="fill: none; stroke: #ffa500; stroke-linejoin: miter"/>
   </g>
   <g id="patch_7">
    <path d="M 251.09284 182.148908 
L 256.380063 182.148908 
L 256.380063 167.585857 
L 251.09284 167.585857 
L 251.09284 182.148908 
z
" clip-path="url(#pe4af5ba363)" style="fill: none; stroke: #ffff00; stroke-linejoin: miter"/>
   </g>
   <g id="patch_8">
    <path d="M 213.989525 182.148908 
L 219.276747 182.148908 
L 219.276747 167.585857 
L 213.989525 167.585857 
L 213.989525 182.148908 
z
" clip-path="url(#pe4af5ba363)" style="fill: none; stroke: #008000; stroke-linejoin: miter"/>
   </g>
   <g id="line2d_1">
    <path d="M 287.339402 270.498253 
L 285.567806 274.605452 
L 284.067012 277.540885 
L 282.211546 280.552946 
L 279.932448 283.544247 
L 278.618243 284.996709 
L 277.182493 286.400345 
L 275.62374 287.740227 
L 273.942531 289.00215 
L 272.141412 290.173172 
L 270.22481 291.242087 
L 268.198821 292.199782 
L 266.070904 293.039445 
L 263.849528 293.756599 
L 261.543801 294.348985 
L 259.163116 294.816317 
L 256.71685 295.159972 
L 254.214128 295.382642 
L 251.663653 295.488 
L 246.451571 295.364653 
L 241.139047 294.828867 
L 235.775501 293.921259 
L 230.402408 292.681026 
L 225.054653 291.144484 
L 219.761691 289.344464 
L 214.548399 287.310061 
L 209.43561 285.066478 
L 204.440445 282.634883 
L 199.576577 280.032329 
L 194.854583 277.271929 
L 190.282546 274.363549 
L 185.867041 271.315402 
L 181.614473 268.136782 
L 177.532557 264.841841 
L 173.631416 261.453666 
L 169.923589 258.007214 
L 164.752786 252.83363 
L 160.075404 247.825003 
L 149.696592 236.453919 
L 146.239439 233.086288 
L 142.763984 230.111132 
L 139.124931 227.373675 
L 126.651985 218.533067 
L 123.677034 216.021239 
L 120.758027 213.175265 
L 119.353227 211.609613 
L 118.007282 209.940342 
L 116.739925 208.161699 
L 115.57313 206.268654 
L 114.530626 204.257208 
L 113.636887 202.124833 
L 112.915481 199.871029 
L 112.386858 197.497897 
L 112.065973 195.010546 
L 111.960409 192.417136 
L 112.069666 189.728441 
L 112.385864 186.957 
L 112.895554 184.116108 
L 113.581977 181.218899 
L 114.427118 178.277716 
L 116.523697 172.30713 
L 119.05936 166.280385 
L 121.933224 160.258527 
L 125.066098 154.29299 
L 128.394088 148.430052 
L 131.862931 142.713734 
L 135.423719 137.187382 
L 139.029711 131.894199 
L 144.420097 124.484472 
L 149.636998 117.828174 
L 154.493622 112.026272 
L 164.247423 100.62549 
L 165.774067 98.413446 
L 166.969295 96.265728 
L 167.914532 94.078116 
L 169.107067 90.549349 
L 170.888659 85.211412 
L 172.076121 82.293744 
L 173.545152 79.260808 
L 175.331667 76.162308 
L 177.456298 73.051355 
L 179.929345 69.982559 
L 182.754195 67.011651 
L 185.929208 64.195644 
L 189.448455 61.592821 
L 193.301793 59.262166 
L 195.349381 58.217207 
L 197.474692 57.262001 
L 199.675207 56.403374 
L 201.948128 55.647792 
L 204.290398 55.001258 
L 206.698709 54.469196 
L 209.169529 54.056343 
L 211.699124 53.766646 
L 214.283588 53.603164 
L 216.918871 53.568 
L 219.600806 53.662241 
L 222.325139 53.885938 
L 225.087545 54.238107 
L 227.883651 54.71676 
L 230.709042 55.318966 
L 236.429863 56.878095 
L 242.213999 58.876633 
L 248.02469 61.267086 
L 253.824137 63.996879 
L 259.573325 67.011462 
L 265.232136 70.256761 
L 270.759855 73.680904 
L 276.116083 77.23528 
L 281.261952 80.874958 
L 286.161488 84.558543 
L 290.782939 88.247505 
L 295.099949 91.905126 
L 299.092562 95.495215 
L 304.447908 100.672505 
L 309.041295 105.482371 
L 319.085847 116.378783 
L 320.912773 117.913838 
L 322.767542 119.141537 
L 324.737334 120.11664 
L 326.896817 120.921182 
L 336.417728 123.973203 
L 339.617941 125.373429 
L 342.907682 127.173833 
L 346.186015 129.42754 
L 347.786743 130.733806 
L 349.343237 132.161511 
L 350.841725 133.710159 
L 352.26885 135.377888 
L 353.611879 137.1616 
L 354.858895 139.05711 
L 355.998963 141.059311 
L 357.022267 143.162337 
L 357.920219 145.359746 
L 358.68553 147.644692 
L 359.312244 150.010098 
L 359.795736 152.448807 
L 360.132674 154.953735 
L 360.320951 157.517989 
L 360.359591 160.134968 
L 360.24864 162.798443 
L 359.989045 165.502608 
L 359.582538 168.242113 
L 359.031516 171.012075 
L 358.338943 173.808062 
L 357.508262 176.626076 
L 356.543335 179.462508 
L 355.448397 182.314081 
L 352.887226 188.050816 
L 349.866014 193.813964 
L 346.433051 199.581104 
L 342.645501 205.326018 
L 338.571118 211.014698 
L 334.288661 216.60195 
L 329.885908 222.029992 
L 325.454977 227.230593 
L 318.950379 234.448143 
L 312.845969 240.783315 
L 307.336458 246.127378 
L 301.12091 251.781434 
L 296.296615 256.152182 
L 293.553691 258.973417 
L 292.086791 260.800576 
L 290.852496 262.679662 
L 289.786877 264.679305 
L 288.335846 268.013769 
L 287.339402 270.498253 
L 287.339402 270.498253 
" clip-path="url(#pe4af5ba363)" style="fill: none; stroke: #1f77b4; stroke-width: 1.5; stroke-linecap: square"/>
   </g>
  </g>
 </g>
 <defs>
  <clipPath id="pe4af5ba363">
   <rect x="99.54045" y="41.472" width="273.2391" height="266.112"/>
  </clipPath>
 </defs>
</svg>
