<?xml version="1.0" encoding="utf-8" standalone="no"?>
<!DOCTYPE svg PUBLIC "-//W3C//DTD SVG 1.1//EN"
  "http://www.w3.org/Graphics/SVG/1.1/DTD/svg11.dtd">
<svg xmlns:xlink="http://www.w3.org/1999/xlink" width="460.8pt" height="345.6pt" viewBox="0 0 460.8 345.6" xmlns="http://www.w3.org/2000/svg" version="1.1">
 <metadata>
  <rdf:RDF xmlns:dc="http://purl.org/dc/elements/1.1/" xmlns:cc="http://creativecommons.org/ns#" xmlns:rdf="http://www.w3.org/1999/02/22-rdf-syntax-ns#">
   <cc:Work>
    <dc:type rdf:resource="http://purl.org/dc/dcmitype/StillImage"/>
    <dc:date>2023-09-01T22:36:04.349530</dc:date>
    <dc:format>image/svg+xml</dc:format>
    <dc:creator>
     <cc:Agent>
      <dc:title>Matplotlib v3.6.2, https://matplotlib.org/</dc:title>
     </cc:Agent>
    </dc:creator>
   </cc:Work>
  </rdf:RDF>
 </metadata>
 <defs>
  <style type="text/css">*{stroke-linejoin: round; stroke-linecap: butt}</style>
 </defs>
 <g id="figure_1">
  <g id="patch_1">
   <path d="M 0 345.6 
L 460.8 345.6 
L 460.8 0 
L 0 0 
z
" style="fill: #ffffff"/>
  </g>
  <g id="axes_1">
   <g id="line2d_1">
    <path d="M 357.113278 174.528 
L 357.005741 169.428462 
L 356.683321 164.337992 
L 356.14659 159.265638 
L 355.396504 154.220421 
L 354.434396 149.21131 
L 353.261977 144.247211 
L 351.88133 139.33695 
L 350.294911 134.489257 
L 348.505541 129.712752 
L 346.5164 125.015927 
L 344.331026 120.407132 
L 341.953304 115.894563 
L 339.387461 111.486241 
L 336.63806 107.190006 
L 333.709989 103.013495 
L 330.608453 98.964134 
L 327.338968 95.049123 
L 323.907345 91.275422 
L 320.319688 87.649742 
L 316.582373 84.178527 
L 312.702047 80.867951 
L 308.685607 77.723899 
L 304.540196 74.751962 
L 300.273184 71.957422 
L 295.892157 69.345249 
L 291.404904 66.920087 
L 286.819404 64.686248 
L 282.143809 62.647704 
L 277.386433 60.808079 
L 272.555734 59.170644 
L 267.660301 57.73831 
L 262.708837 56.513623 
L 257.710147 55.498762 
L 252.673118 54.695531 
L 247.606704 54.105357 
L 242.519916 53.729291 
L 237.421795 53.568 
L 232.321407 53.621772 
L 227.22782 53.89051 
L 222.150091 54.373738 
L 217.097246 55.070595 
L 212.078271 55.979843 
L 207.102088 57.099866 
L 202.177545 58.428671 
L 197.313398 59.963897 
L 192.518294 61.702814 
L 187.80076 63.64233 
L 183.169184 65.778996 
L 178.631799 68.109014 
L 174.196673 70.628242 
L 169.871692 73.332199 
L 165.664545 76.216079 
L 161.582712 79.274753 
L 157.633452 82.502785 
L 153.823784 85.894434 
L 150.160484 89.44367 
L 146.650064 93.144183 
L 143.298765 96.989394 
L 140.112546 100.972465 
L 137.097072 105.086315 
L 134.257705 109.323631 
L 131.599492 113.676877 
L 129.12716 118.138314 
L 126.845105 122.70001 
L 124.757384 127.353854 
L 122.867708 132.091572 
L 121.179438 136.904741 
L 119.695576 141.784803 
L 118.418759 146.72308 
L 117.351258 151.710794 
L 116.49497 156.739076 
L 115.851419 161.798986 
L 115.421748 166.881528 
L 115.206722 171.977664 
L 115.206722 177.078336 
L 115.421748 182.174472 
L 115.851419 187.257014 
L 116.49497 192.316924 
L 117.351258 197.345206 
L 118.418759 202.33292 
L 119.695576 207.271197 
L 121.179438 212.151259 
L 122.867708 216.964428 
L 124.757384 221.702146 
L 126.845105 226.35599 
L 129.12716 230.917686 
L 131.599492 235.379123 
L 134.257705 239.732369 
L 137.097072 243.969685 
L 140.112546 248.083535 
L 143.298765 252.066606 
L 146.650064 255.911817 
L 150.160484 259.61233 
L 153.823784 263.161566 
L 157.633452 266.553215 
L 161.582712 269.781247 
L 165.664545 272.839921 
L 169.871692 275.723801 
L 174.196673 278.427758 
L 178.631799 280.946986 
L 183.169184 283.277004 
L 187.80076 285.41367 
L 192.518294 287.353186 
L 197.313398 289.092103 
L 202.177545 290.627329 
L 207.102088 291.956134 
L 212.078271 293.076157 
L 217.097246 293.985405 
L 222.150091 294.682262 
L 227.22782 295.16549 
L 232.321407 295.434228 
L 237.421795 295.488 
L 242.519916 295.326709 
L 247.606704 294.950643 
L 252.673118 294.360469 
L 257.710147 293.557238 
L 262.708837 292.542377 
L 267.660301 291.31769 
L 272.555734 289.885356 
L 277.386433 288.247921 
L 282.143809 286.408296 
L 286.819404 284.369752 
L 291.404904 282.135913 
L 295.892157 279.710751 
L 300.273184 277.098578 
L 304.540196 274.304038 
L 308.685607 271.332101 
L 312.702047 268.188049 
L 316.582373 264.877473 
L 320.319688 261.406258 
L 323.907345 257.780578 
L 327.338968 254.006877 
L 330.608453 250.091866 
L 333.709989 246.042505 
L 336.63806 241.865994 
L 339.387461 237.569759 
L 341.953304 233.161437 
L 344.331026 228.648868 
L 346.5164 224.040073 
L 348.505541 219.343248 
L 350.294911 214.566743 
L 351.88133 209.71905 
L 353.261977 204.808789 
L 354.434396 199.84469 
L 355.396504 194.835579 
L 356.14659 189.790362 
L 356.683321 184.718008 
L 357.005741 179.627538 
L 357.113278 174.528 
L 357.113278 174.528 
" clip-path="url(#p1ed31d6c70)" style="fill: none; stroke: #1f77b4; stroke-width: 1.5; stroke-linecap: square"/>
   </g>
  </g>
 </g>
 <defs>
  <clipPath id="p1ed31d6c70">
   <rect x="103.111394" y="41.472" width="266.097212" height="266.112"/>
  </clipPath>
 </defs>
</svg>
