<?xml version="1.0" encoding="utf-8" standalone="no"?>
<!DOCTYPE svg PUBLIC "-//W3C//DTD SVG 1.1//EN"
  "http://www.w3.org/Graphics/SVG/1.1/DTD/svg11.dtd">
<svg xmlns:xlink="http://www.w3.org/1999/xlink" width="460.8pt" height="345.6pt" viewBox="0 0 460.8 345.6" xmlns="http://www.w3.org/2000/svg" version="1.1">
 <metadata>
  <rdf:RDF xmlns:dc="http://purl.org/dc/elements/1.1/" xmlns:cc="http://creativecommons.org/ns#" xmlns:rdf="http://www.w3.org/1999/02/22-rdf-syntax-ns#">
   <cc:Work>
    <dc:type rdf:resource="http://purl.org/dc/dcmitype/StillImage"/>
    <dc:date>2024-01-27T16:06:03.415634</dc:date>
    <dc:format>image/svg+xml</dc:format>
    <dc:creator>
     <cc:Agent>
      <dc:title>Matplotlib v3.6.2, https://matplotlib.org/</dc:title>
     </cc:Agent>
    </dc:creator>
   </cc:Work>
  </rdf:RDF>
 </metadata>
 <defs>
  <style type="text/css">*{stroke-linejoin: round; stroke-linecap: butt}</style>
 </defs>
 <g id="figure_1">
  <g id="patch_1">
   <path d="M 0 345.6 
L 460.8 345.6 
L 460.8 0 
L 0 0 
z
" style="fill: #ffffff"/>
  </g>
  <g id="axes_1">
   <g id="patch_2">
    <path d="M 232.407336 184.541641 
C 233.709098 184.541641 234.957719 184.024446 235.878204 183.10396 
C 236.798689 182.183475 237.315885 180.934854 237.315885 179.633092 
C 237.315885 178.331329 236.798689 177.082708 235.878204 176.162223 
C 234.957719 175.241738 233.709098 174.724542 232.407336 174.724542 
C 231.105573 174.724542 229.856952 175.241738 228.936467 176.162223 
C 228.015982 177.082708 227.498786 178.331329 227.498786 179.633092 
C 227.498786 180.934854 228.015982 182.183475 228.936467 183.10396 
C 229.856952 184.024446 231.105573 184.541641 232.407336 184.541641 
L 232.407336 184.541641 
z
" clip-path="url(#p28715c9e16)" style="fill: none; stroke: #0000ff; stroke-linejoin: miter"/>
   </g>
   <g id="patch_3">
    <path d="M 232.407336 167.361718 
C 233.058217 167.361718 233.682527 167.10312 234.14277 166.642878 
C 234.603013 166.182635 234.86161 165.558325 234.86161 164.907443 
C 234.86161 164.256562 234.603013 163.632252 234.14277 163.172009 
C 233.682527 162.711767 233.058217 162.453169 232.407336 162.453169 
C 231.756454 162.453169 231.132144 162.711767 230.671901 163.172009 
C 230.211659 163.632252 229.953061 164.256562 229.953061 164.907443 
C 229.953061 165.558325 230.211659 166.182635 230.671901 166.642878 
C 231.132144 167.10312 231.756454 167.361718 232.407336 167.361718 
L 232.407336 167.361718 
z
" clip-path="url(#p28715c9e16)" style="fill: none; stroke: #008000; stroke-linejoin: miter"/>
   </g>
   <g id="patch_4">
    <path d="M 247.132984 182.087367 
C 247.783865 182.087367 248.408176 181.828769 248.868418 181.368526 
C 249.328661 180.908284 249.587259 180.283973 249.587259 179.633092 
C 249.587259 178.982211 249.328661 178.3579 248.868418 177.897658 
C 248.408176 177.437415 247.783865 177.178817 247.132984 177.178817 
C 246.482103 177.178817 245.857792 177.437415 245.39755 177.897658 
C 244.937307 178.3579 244.678709 178.982211 244.678709 179.633092 
C 244.678709 180.283973 244.937307 180.908284 245.39755 181.368526 
C 245.857792 181.828769 246.482103 182.087367 247.132984 182.087367 
L 247.132984 182.087367 
z
" clip-path="url(#p28715c9e16)" style="fill: none; stroke: #008000; stroke-linejoin: miter"/>
   </g>
   <g id="patch_5">
    <path d="M 222.246638 165.251042 
L 242.568033 165.251042 
L 242.568033 154.746746 
L 222.246638 154.746746 
L 222.246638 165.251042 
z
" clip-path="url(#p28715c9e16)" style="fill: none; stroke: #ff0000; stroke-linejoin: miter"/>
   </g>
   <g id="patch_6">
    <path d="M 222.246638 204.519438 
L 242.568033 204.519438 
L 242.568033 194.015142 
L 222.246638 194.015142 
L 222.246638 204.519438 
z
" clip-path="url(#p28715c9e16)" style="fill: none; stroke: #ffa500; stroke-linejoin: miter"/>
   </g>
   <g id="patch_7">
    <path d="M 246.789386 189.793789 
L 257.293681 189.793789 
L 257.293681 169.472394 
L 246.789386 169.472394 
L 246.789386 189.793789 
z
" clip-path="url(#p28715c9e16)" style="fill: none; stroke: #ffff00; stroke-linejoin: miter"/>
   </g>
   <g id="patch_8">
    <path d="M 207.52099 189.793789 
L 218.025286 189.793789 
L 218.025286 169.472394 
L 207.52099 169.472394 
L 207.52099 189.793789 
z
" clip-path="url(#p28715c9e16)" style="fill: none; stroke: #008000; stroke-linejoin: miter"/>
   </g>
   <g id="line2d_1">
    <path d="M 285.602784 280.486251 
L 285.032519 280.738172 
L 283.272005 281.130192 
L 279.465248 281.522463 
L 267.04347 282.478643 
L 263.708038 282.938275 
L 259.636888 283.79574 
L 255.041903 284.770796 
L 254.193657 285.151305 
L 253.978727 285.445834 
L 253.974519 285.787734 
L 254.250188 286.410497 
L 255.292846 288.381722 
L 255.639511 289.089995 
L 255.818082 289.79718 
L 255.828071 290.486258 
L 255.669235 291.141007 
L 255.341879 291.746284 
L 254.846762 292.288195 
L 254.184603 292.754056 
L 252.890143 293.292029 
L 251.689373 293.448886 
L 250.146595 293.390242 
L 248.281991 293.125657 
L 244.92302 292.382031 
L 239.497758 290.880129 
L 232.082992 288.80232 
L 222.954809 286.567592 
L 204.462852 282.140959 
L 201.077173 281.264092 
L 201.13541 281.468261 
L 201.426349 281.992934 
L 200.732825 282.280048 
L 200.612768 282.539014 
L 200.696928 282.979657 
L 201.318737 284.150281 
L 203.856968 288.267631 
L 204.646314 290.160144 
L 204.857759 291.586196 
L 204.650482 292.597029 
L 204.145061 293.260935 
L 203.436773 293.65816 
L 202.162019 293.94887 
L 201.264439 294.077512 
L 200.581597 294.64031 
L 199.792404 295.046455 
L 198.45615 295.399226 
L 196.984791 295.488 
L 195.414722 295.346102 
L 193.765402 294.981041 
L 191.461362 294.135725 
L 186.917473 292.335915 
L 185.315104 291.909033 
L 183.788237 291.75552 
L 181.292753 291.83099 
L 178.735205 291.878687 
L 177.146356 291.693914 
L 176.062487 291.393782 
L 174.418423 290.724125 
L 172.221012 289.547114 
L 170.036466 288.103253 
L 167.879079 286.464056 
L 163.671826 282.585851 
L 161.132307 279.98013 
L 141.335165 257.89064 
L 140.102 256.981882 
L 139.234506 256.614141 
L 138.779091 256.519779 
L 133.610412 253.37804 
L 132.3888 252.289788 
L 131.188102 251.144268 
L 128.819969 248.781675 
L 125.769767 245.418845 
L 124.340477 244.719913 
L 122.994703 243.803128 
L 121.739052 242.693328 
L 120.577352 241.412351 
L 119.177317 239.470969 
L 118.677676 239.209004 
L 118.256944 238.825583 
L 117.91113 238.332984 
L 117.421272 237.068733 
L 117.152092 235.512451 
L 117.015193 232.840897 
L 116.906181 228.315009 
L 116.826525 226.591979 
L 116.961705 222.77518 
L 117.349777 218.646412 
L 118.053179 214.065017 
L 118.810799 210.240908 
L 121.159319 202.326184 
L 122.733624 196.10135 
L 123.956359 190.159153 
L 124.765476 185.089789 
L 125.164542 181.532152 
L 125.174749 178.767976 
L 124.966828 177.529538 
L 124.589504 176.769868 
L 124.210955 176.354896 
L 124.008768 172.558599 
L 123.615369 166.634642 
L 123.789198 164.220286 
L 124.179762 161.157983 
L 124.726929 159.180331 
L 125.600557 156.796791 
L 127.194456 153.091348 
L 130.254386 146.164641 
L 132.485509 141.152307 
L 134.598088 136.993691 
L 140.306932 126.672751 
L 142.845962 122.158284 
L 142.612526 122.132296 
L 144.144575 119.595698 
L 146.14299 116.290265 
L 146.132663 115.993159 
L 146.369803 115.300235 
L 147.257165 113.161005 
L 147.397303 112.454319 
L 148.341241 110.804798 
L 149.872273 108.62573 
L 155.039463 102.13619 
L 156.24611 100.975577 
L 157.556069 100.033265 
L 160.257205 98.376003 
L 172.457923 91.196689 
L 177.794681 87.57621 
L 178.619544 86.686243 
L 179.964759 84.967369 
L 177.589415 84.462128 
L 175.699594 83.785066 
L 174.581686 83.188383 
L 173.686961 82.501823 
L 173.103777 81.763049 
L 172.917587 81.018622 
L 172.999803 80.660066 
L 174.220543 79.738537 
L 176.630331 78.304537 
L 187.438741 72.221093 
L 189.189277 70.770802 
L 192.592171 67.756621 
L 193.404489 67.207038 
L 195.974273 66.138527 
L 200.332115 64.665053 
L 202.366561 63.879619 
L 203.50263 63.031304 
L 204.817891 61.719785 
L 206.49446 60.015946 
L 207.687588 59.109181 
L 207.795476 57.826595 
L 208.082636 56.640471 
L 208.560169 55.59077 
L 209.239013 54.720099 
L 210.128406 54.069978 
L 211.235148 53.676838 
L 212.563244 53.568 
L 217.75828 54.018003 
L 220.165478 54.517359 
L 222.763547 55.308236 
L 225.557883 56.388179 
L 228.374925 57.528477 
L 238.088613 60.6241 
L 240.832562 61.227765 
L 243.213902 61.455302 
L 247.145737 61.665765 
L 248.983245 62.012163 
L 251.675519 62.885781 
L 254.508608 64.054485 
L 258.860693 66.139633 
L 261.633548 67.46659 
L 264.183499 68.562748 
L 266.919805 70.036079 
L 269.896155 71.973207 
L 272.324335 73.778369 
L 276.602729 77.207917 
L 281.709882 81.012947 
L 285.063244 83.523614 
L 288.512191 86.319819 
L 292.268396 89.081352 
L 298.247234 93.187974 
L 299.186335 93.604464 
L 300.066074 93.901678 
L 302.487691 95.250727 
L 304.751047 96.241346 
L 305.350176 96.377882 
L 306.568047 96.614911 
L 307.576947 97.012054 
L 308.661135 97.642621 
L 309.810209 98.534491 
L 311.802079 100.484587 
L 313.793932 102.724869 
L 315.403919 104.869057 
L 318.55354 109.683289 
L 320.432467 112.865191 
L 322.948444 117.585837 
L 325.507533 122.428871 
L 331.192525 132.872439 
L 332.105504 135.001097 
L 332.97966 137.879468 
L 334.896419 144.67866 
L 338.117588 152.91873 
L 339.992491 157.15672 
L 340.440169 159.216849 
L 340.839245 162.166563 
L 341.351674 168.237101 
L 341.962393 175.043315 
L 342.361821 176.471077 
L 343.682671 180.080517 
L 343.809982 181.496246 
L 343.712196 183.772183 
L 343.2522 187.520658 
L 342.388585 194.378432 
L 342.139465 197.349282 
L 342.134324 198.223723 
L 342.37565 198.805434 
L 342.960273 199.469205 
L 344.040478 200.169605 
L 345.536836 201.157088 
L 346.05888 201.686854 
L 346.446484 202.349882 
L 346.797373 203.545556 
L 347.450287 207.021642 
L 347.822306 207.790107 
L 348.077818 208.1433 
L 348.822329 208.750692 
L 349.726184 209.840815 
L 350.676191 211.509434 
L 352.301913 214.67386 
L 353.191509 215.515796 
L 353.920983 216.445408 
L 354.495711 217.446368 
L 355.088746 219.050192 
L 355.401548 220.74065 
L 355.497152 222.485462 
L 355.49366 223.074865 
L 355.10172 225.475017 
L 354.782419 227.27881 
L 354.39755 228.489194 
L 353.779496 229.703479 
L 352.853325 230.91859 
L 351.552063 232.134375 
L 350.742089 232.744236 
L 348.173105 234.011923 
L 335.828111 239.722012 
L 331.904062 241.916414 
L 329.935154 243.237848 
L 329.203699 243.829953 
L 323.079155 246.813349 
L 318.607195 249.161427 
L 314.013642 251.793104 
L 309.472535 254.656682 
L 305.179117 257.634083 
L 301.36005 260.515503 
L 293.525766 266.631327 
L 287.7856 270.397694 
L 286.383222 271.46243 
L 282.827222 273.559506 
L 278.907706 276.007644 
L 278.472463 276.464214 
L 278.385189 276.744937 
L 281.439111 277.236354 
L 282.911117 277.638368 
L 284.285384 278.180549 
L 285.378018 278.832672 
L 285.995403 279.532372 
L 286.064544 279.874184 
L 285.941601 280.195677 
L 285.602784 280.486251 
L 285.602784 280.486251 
" clip-path="url(#p28715c9e16)" style="fill: none; stroke: #1f77b4; stroke-width: 1.5; stroke-linecap: square"/>
   </g>
  </g>
 </g>
 <defs>
  <clipPath id="p28715c9e16">
   <rect x="104.889133" y="41.472" width="262.541734" height="266.112"/>
  </clipPath>
 </defs>
</svg>
