<?xml version="1.0" encoding="utf-8" standalone="no"?>
<!DOCTYPE svg PUBLIC "-//W3C//DTD SVG 1.1//EN"
  "http://www.w3.org/Graphics/SVG/1.1/DTD/svg11.dtd">
<svg xmlns:xlink="http://www.w3.org/1999/xlink" width="460.8pt" height="345.6pt" viewBox="0 0 460.8 345.6" xmlns="http://www.w3.org/2000/svg" version="1.1">
 <metadata>
  <rdf:RDF xmlns:dc="http://purl.org/dc/elements/1.1/" xmlns:cc="http://creativecommons.org/ns#" xmlns:rdf="http://www.w3.org/1999/02/22-rdf-syntax-ns#">
   <cc:Work>
    <dc:type rdf:resource="http://purl.org/dc/dcmitype/StillImage"/>
    <dc:date>2023-09-01T22:40:57.864044</dc:date>
    <dc:format>image/svg+xml</dc:format>
    <dc:creator>
     <cc:Agent>
      <dc:title>Matplotlib v3.6.2, https://matplotlib.org/</dc:title>
     </cc:Agent>
    </dc:creator>
   </cc:Work>
  </rdf:RDF>
 </metadata>
 <defs>
  <style type="text/css">*{stroke-linejoin: round; stroke-linecap: butt}</style>
 </defs>
 <g id="figure_1">
  <g id="patch_1">
   <path d="M 0 345.6 
L 460.8 345.6 
L 460.8 0 
L 0 0 
z
" style="fill: #ffffff"/>
  </g>
  <g id="axes_1">
   <g id="line2d_1">
    <path d="M 374.769807 171.11481 
L 375.373687 179.03332 
L 375.303021 186.891575 
L 374.402459 194.460923 
L 372.418706 201.350286 
L 368.98045 206.991908 
L 363.464724 210.662518 
L 354.867331 211.80853 
L 342.658166 211.240032 
L 329.384003 211.522492 
L 319.531591 213.824671 
L 314.885232 217.534147 
L 313.858769 222.268164 
L 314.905276 228.298416 
L 316.672727 235.869572 
L 317.981835 244.868284 
L 317.946437 254.748636 
L 316.103684 264.626452 
L 312.490446 273.582495 
L 307.522712 281.074546 
L 301.694963 287.068255 
L 295.370956 291.615547 
L 288.833987 294.319918 
L 282.285349 295.488 
L 275.820207 295.253749 
L 269.474526 293.614503 
L 263.228271 290.422266 
L 256.966973 285.480889 
L 250.4666 278.918894 
L 243.624925 271.775281 
L 236.868869 265.861863 
L 230.887854 262.55044 
L 226.282092 264.291513 
L 221.591001 268.066522 
L 216.054655 273.175857 
L 209.219821 278.548151 
L 201.123279 283.223745 
L 192.124883 286.619583 
L 182.711167 288.468585 
L 173.427728 288.682088 
L 164.872968 287.274579 
L 157.657891 284.338259 
L 151.899112 280.234674 
L 146.565521 275.753633 
L 141.593286 270.973642 
L 137.008608 265.918215 
L 132.835663 260.612399 
L 129.093535 255.083359 
L 125.792855 249.360497 
L 122.932939 243.475037 
L 120.500231 237.459145 
L 118.468435 231.344791 
L 117.337383 225.051557 
L 117.204802 218.599088 
L 115.766453 212.468613 
L 112.408152 206.597541 
L 107.69788 200.533911 
L 102.977977 193.947233 
L 99.366227 186.9595 
L 97.318944 179.908152 
L 96.946313 173.103531 
L 98.297256 166.775143 
L 101.099919 160.946098 
L 102.949158 154.841033 
L 105.055584 148.857665 
L 107.361732 142.987346 
L 109.811599 137.215724 
L 112.35329 131.522654 
L 114.941857 125.882105 
L 117.542512 120.262417 
L 120.134256 114.627405 
L 122.71362 108.938806 
L 125.29787 103.160477 
L 128.193782 97.50688 
L 131.596564 92.198458 
L 135.416336 87.22844 
L 139.62228 82.635003 
L 144.171527 78.438066 
L 149.010045 74.633848 
L 154.075164 71.191867 
L 159.300548 68.056553 
L 164.623729 65.154612 
L 169.995044 62.40735 
L 175.446079 59.881081 
L 181.09581 57.890453 
L 186.83649 56.270251 
L 192.644734 55.023911 
L 198.498063 54.1558 
L 204.37422 53.669869 
L 210.250739 53.568 
L 216.104808 53.848212 
L 221.91341 54.502919 
L 227.653717 55.51746 
L 233.303687 56.869077 
L 238.98891 59.893347 
L 244.393587 62.11598 
L 249.513425 62.454406 
L 254.707141 60.855656 
L 260.353352 58.69185 
L 266.266552 57.642042 
L 271.956023 58.402799 
L 277.115556 60.843059 
L 281.638733 64.669434 
L 285.537936 69.596633 
L 289.399061 74.185169 
L 293.203403 78.505744 
L 296.769687 82.960078 
L 300.113921 87.49671 
L 303.259942 92.061656 
L 306.240036 96.600725 
L 309.095512 101.062576 
L 311.876936 105.402765 
L 314.643444 109.588977 
L 317.460222 113.607423 
L 319.753738 118.094915 
L 322.537651 122.040153 
L 327.607036 124.377474 
L 334.546485 126.456595 
L 342.750444 129.371694 
L 351.370553 133.785319 
L 359.410322 139.83549 
L 365.979217 147.156709 
L 370.62589 155.120758 
L 373.438104 163.198759 
L 374.769807 171.11481 
" clip-path="url(#p10711bbb4f)" style="fill: none; stroke: #1f77b4; stroke-width: 1.5; stroke-linecap: square"/>
   </g>
  </g>
 </g>
 <defs>
  <clipPath id="p10711bbb4f">
   <rect x="83.024944" y="41.472" width="306.270112" height="266.112"/>
  </clipPath>
 </defs>
</svg>
