<?xml version="1.0" encoding="utf-8" standalone="no"?>
<!DOCTYPE svg PUBLIC "-//W3C//DTD SVG 1.1//EN"
  "http://www.w3.org/Graphics/SVG/1.1/DTD/svg11.dtd">
<svg xmlns:xlink="http://www.w3.org/1999/xlink" width="460.8pt" height="345.6pt" viewBox="0 0 460.8 345.6" xmlns="http://www.w3.org/2000/svg" version="1.1">
 <metadata>
  <rdf:RDF xmlns:dc="http://purl.org/dc/elements/1.1/" xmlns:cc="http://creativecommons.org/ns#" xmlns:rdf="http://www.w3.org/1999/02/22-rdf-syntax-ns#">
   <cc:Work>
    <dc:type rdf:resource="http://purl.org/dc/dcmitype/StillImage"/>
    <dc:date>2023-11-17T21:04:52.334111</dc:date>
    <dc:format>image/svg+xml</dc:format>
    <dc:creator>
     <cc:Agent>
      <dc:title>Matplotlib v3.6.2, https://matplotlib.org/</dc:title>
     </cc:Agent>
    </dc:creator>
   </cc:Work>
  </rdf:RDF>
 </metadata>
 <defs>
  <style type="text/css">*{stroke-linejoin: round; stroke-linecap: butt}</style>
 </defs>
 <g id="figure_1">
  <g id="patch_1">
   <path d="M 0 345.6 
L 460.8 345.6 
L 460.8 0 
L 0 0 
z
" style="fill: #ffffff"/>
  </g>
  <g id="axes_1">
   <g id="patch_2">
    <path d="M 234.541997 183.8423 
C 235.88009 183.8423 237.163558 183.31067 238.109733 182.364495 
C 239.055908 181.41832 239.587538 180.134852 239.587538 178.796759 
C 239.587538 177.458665 239.055908 176.175197 238.109733 175.229022 
C 237.163558 174.282848 235.88009 173.751217 234.541997 173.751217 
C 233.203903 173.751217 231.920435 174.282848 230.97426 175.229022 
C 230.028086 176.175197 229.496455 177.458665 229.496455 178.796759 
C 229.496455 180.134852 230.028086 181.41832 230.97426 182.364495 
C 231.920435 183.31067 233.203903 183.8423 234.541997 183.8423 
L 234.541997 183.8423 
z
" clip-path="url(#p3e0c4cfefb)" style="fill: none; stroke: #0000ff; stroke-linejoin: miter"/>
   </g>
   <g id="patch_3">
    <path d="M 234.541997 166.182906 
C 235.211043 166.182906 235.852777 165.917091 236.325865 165.444003 
C 236.798952 164.970916 237.064767 164.329182 237.064767 163.660135 
C 237.064767 162.991089 236.798952 162.349354 236.325865 161.876267 
C 235.852777 161.40318 235.211043 161.137365 234.541997 161.137365 
C 233.87295 161.137365 233.231216 161.40318 232.758128 161.876267 
C 232.285041 162.349354 232.019226 162.991089 232.019226 163.660135 
C 232.019226 164.329182 232.285041 164.970916 232.758128 165.444003 
C 233.231216 165.917091 233.87295 166.182906 234.541997 166.182906 
L 234.541997 166.182906 
z
" clip-path="url(#p3e0c4cfefb)" style="fill: none; stroke: #008000; stroke-linejoin: miter"/>
   </g>
   <g id="line2d_1">
    <path d="M 280.248545 289.135903 
L 275.684884 290.596163 
L 268.485858 292.408072 
L 263.646513 293.386612 
L 256.217702 294.480527 
L 251.21872 294.968248 
L 244.096231 295.444874 
L 239.090456 295.464493 
L 231.824413 295.207319 
L 227.059828 294.825476 
L 222.030045 294.162435 
L 208.216647 291.925494 
L 203.031348 290.839444 
L 197.873691 289.539794 
L 191.219438 287.621428 
L 186.283864 285.980329 
L 181.459898 284.248934 
L 178.209046 282.932793 
L 173.153444 280.451702 
L 168.163036 277.686026 
L 163.296983 274.721101 
L 158.559539 271.568707 
L 152.434302 267.043687 
L 147.991029 263.410181 
L 143.683838 259.572948 
L 139.519324 255.504405 
L 134.195786 249.904547 
L 132.944084 248.124703 
L 130.658083 243.629339 
L 128.54143 239.090199 
L 126.608497 234.431147 
L 124.847292 229.752859 
L 123.266425 225.017335 
L 121.877932 220.182862 
L 120.664493 215.350491 
L 119.643813 210.450414 
L 118.811752 205.515722 
L 118.187236 200.487988 
L 117.747247 195.467525 
L 117.501719 190.426253 
L 117.476525 182.911345 
L 117.728087 177.820294 
L 118.174189 172.738305 
L 118.789781 167.739641 
L 119.416189 163.229252 
L 119.83421 158.313725 
L 120.6568 151.699269 
L 121.414093 146.788097 
L 122.377577 141.802018 
L 123.971119 135.096959 
L 125.927427 128.353617 
L 127.61882 123.296574 
L 129.521427 118.237188 
L 131.647784 113.18044 
L 134.013619 108.13323 
L 136.573718 103.11631 
L 139.391128 98.124218 
L 141.43472 94.816782 
L 143.740917 91.538536 
L 144.937902 89.91583 
L 147.949311 86.762569 
L 151.647168 83.787456 
L 157.438881 79.603756 
L 161.304097 76.979633 
L 171.292829 71.056356 
L 177.429746 67.931136 
L 185.61049 64.209158 
L 191.961608 61.83699 
L 200.294134 59.051868 
L 208.883815 56.908954 
L 215.328157 55.642109 
L 217.378757 55.20972 
L 228.166015 53.928356 
L 230.405851 53.850458 
L 232.500302 53.665946 
L 239.033653 53.568 
L 241.307313 53.721248 
L 255.737143 56.737718 
L 260.306838 57.907204 
L 267.059927 59.976 
L 277.756283 63.820456 
L 287.880807 68.28779 
L 289.886951 69.365708 
L 291.763429 70.215001 
L 301.093949 75.419263 
L 306.41918 78.702336 
L 309.895451 81.108406 
L 318.198745 87.21991 
L 321.390263 89.755795 
L 324.501422 93.318845 
L 328.899113 99.034414 
L 332.962471 104.9175 
L 336.696223 110.858228 
L 340.061088 117.145295 
L 343.099575 123.384017 
L 345.766406 129.829327 
L 347.346252 134.170414 
L 350.13352 142.614242 
L 351.772433 149.168447 
L 353.065942 155.744727 
L 354.02863 162.303846 
L 354.777896 173.397041 
L 354.870159 177.71703 
L 354.824205 184.046091 
L 353.561587 200.352496 
L 352.737158 206.239897 
L 352.108673 210.094432 
L 351.341851 213.957349 
L 350.814683 215.951319 
L 349.020131 220.317916 
L 347.007342 224.643381 
L 343.6247 231.008283 
L 341.15717 235.143291 
L 338.605124 239.142366 
L 334.505975 244.943132 
L 331.559109 248.688251 
L 328.53834 252.288736 
L 325.448979 255.744476 
L 319.25406 262.169529 
L 310.595752 270.585207 
L 307.580807 273.190062 
L 304.527337 275.693907 
L 301.279386 278.108988 
L 296.262641 281.53026 
L 292.657002 283.665803 
L 288.910918 285.669616 
L 287.052441 286.625577 
L 280.664304 289.192185 
L 280.664304 289.192185 
" clip-path="url(#p3e0c4cfefb)" style="fill: none; stroke: #1f77b4; stroke-width: 1.5; stroke-linecap: square"/>
   </g>
  </g>
 </g>
 <defs>
  <clipPath id="p3e0c4cfefb">
   <rect x="105.576652" y="41.472" width="261.166695" height="266.112"/>
  </clipPath>
 </defs>
</svg>
