<?xml version="1.0" encoding="utf-8" standalone="no"?>
<!DOCTYPE svg PUBLIC "-//W3C//DTD SVG 1.1//EN"
  "http://www.w3.org/Graphics/SVG/1.1/DTD/svg11.dtd">
<svg xmlns:xlink="http://www.w3.org/1999/xlink" width="460.8pt" height="345.6pt" viewBox="0 0 460.8 345.6" xmlns="http://www.w3.org/2000/svg" version="1.1">
 <metadata>
  <rdf:RDF xmlns:dc="http://purl.org/dc/elements/1.1/" xmlns:cc="http://creativecommons.org/ns#" xmlns:rdf="http://www.w3.org/1999/02/22-rdf-syntax-ns#">
   <cc:Work>
    <dc:type rdf:resource="http://purl.org/dc/dcmitype/StillImage"/>
    <dc:date>2023-11-17T21:04:44.004559</dc:date>
    <dc:format>image/svg+xml</dc:format>
    <dc:creator>
     <cc:Agent>
      <dc:title>Matplotlib v3.6.2, https://matplotlib.org/</dc:title>
     </cc:Agent>
    </dc:creator>
   </cc:Work>
  </rdf:RDF>
 </metadata>
 <defs>
  <style type="text/css">*{stroke-linejoin: round; stroke-linecap: butt}</style>
 </defs>
 <g id="figure_1">
  <g id="patch_1">
   <path d="M 0 345.6 
L 460.8 345.6 
L 460.8 0 
L 0 0 
z
" style="fill: #ffffff"/>
  </g>
  <g id="axes_1">
   <g id="patch_2">
    <path d="M 236.588662 182.33094 
C 237.939254 182.33094 239.234711 181.794344 240.189724 180.839331 
C 241.144737 179.884319 241.681333 178.588861 241.681333 177.238269 
C 241.681333 175.887677 241.144737 174.59222 240.189724 173.637207 
C 239.234711 172.682194 237.939254 172.145598 236.588662 172.145598 
C 235.23807 172.145598 233.942612 172.682194 232.987599 173.637207 
C 232.032587 174.59222 231.495991 175.887677 231.495991 177.238269 
C 231.495991 178.588861 232.032587 179.884319 232.987599 180.839331 
C 233.942612 181.794344 235.23807 182.33094 236.588662 182.33094 
L 236.588662 182.33094 
z
" clip-path="url(#pb92582d74e)" style="fill: none; stroke: #0000ff; stroke-linejoin: miter"/>
   </g>
   <g id="patch_3">
    <path d="M 236.588662 164.506591 
C 237.263958 164.506591 237.911687 164.238293 238.389193 163.760787 
C 238.866699 163.28328 239.134997 162.635552 239.134997 161.960255 
C 239.134997 161.284959 238.866699 160.637231 238.389193 160.159724 
C 237.911687 159.682218 237.263958 159.41392 236.588662 159.41392 
C 235.913366 159.41392 235.265637 159.682218 234.788131 160.159724 
C 234.310624 160.637231 234.042326 161.284959 234.042326 161.960255 
C 234.042326 162.635552 234.310624 163.28328 234.788131 163.760787 
C 235.265637 164.238293 235.913366 164.506591 236.588662 164.506591 
L 236.588662 164.506591 
z
" clip-path="url(#pb92582d74e)" style="fill: none; stroke: #008000; stroke-linejoin: miter"/>
   </g>
   <g id="line2d_1">
    <path d="M 271.99558 288.600617 
L 269.066952 289.705692 
L 262.302322 291.757411 
L 260.49581 292.210227 
L 247.707698 294.63922 
L 243.984136 295.086574 
L 239.424631 295.162401 
L 235.605402 295.322483 
L 232.076671 295.488 
L 227.589788 295.124016 
L 225.369938 294.887047 
L 218.801955 294.842654 
L 215.574038 294.795986 
L 208.704046 294.259298 
L 201.725746 293.385991 
L 196.185053 292.163257 
L 190.606608 290.616541 
L 188.742447 290.024804 
L 184.905344 288.521131 
L 181.381038 287.454419 
L 170.973417 284.448332 
L 169.173884 283.707681 
L 167.422183 283.196272 
L 158.436872 279.727572 
L 156.62039 278.807088 
L 152.96176 277.286131 
L 151.114602 276.497746 
L 149.277942 275.535732 
L 145.530118 273.832769 
L 143.683406 272.758517 
L 137.945014 269.877179 
L 134.071414 267.74482 
L 130.224112 265.333184 
L 128.50438 263.714096 
L 122.672689 251.644525 
L 120.558162 246.849369 
L 118.682145 241.906382 
L 116.98515 236.918775 
L 116.126247 234.521205 
L 115.479386 231.877711 
L 114.01842 226.991692 
L 111.745631 216.988225 
L 110.775123 212.087032 
L 109.536182 202.058012 
L 108.936573 189.603356 
L 108.931116 184.718832 
L 109.250902 179.714756 
L 109.06875 177.58729 
L 107.789052 169.653281 
L 107.469697 167.671104 
L 107.46457 165.494512 
L 107.138773 163.517205 
L 106.960988 157.150922 
L 106.764864 152.950152 
L 106.891299 150.761821 
L 106.843649 148.636026 
L 107.631771 135.482064 
L 108.179481 131.005784 
L 109.740068 121.941025 
L 110.880286 117.375645 
L 111.298112 115.059843 
L 112.141262 112.793932 
L 114.008793 105.818219 
L 115.514122 101.144092 
L 116.542105 98.876657 
L 118.06577 94.081184 
L 120.592201 89.661568 
L 122.069609 87.557806 
L 123.918593 85.663529 
L 127.826784 82.049513 
L 132.207223 78.79779 
L 139.396237 74.485413 
L 144.282987 71.812867 
L 149.241517 69.308161 
L 156.840927 65.896904 
L 164.560051 62.875629 
L 169.764595 61.083593 
L 177.719918 58.782259 
L 180.278678 58.037601 
L 185.644961 56.831664 
L 193.702342 55.353589 
L 201.800064 54.308127 
L 207.197357 53.844447 
L 212.698241 53.644391 
L 218.095156 53.572128 
L 220.730925 53.568 
L 228.898618 54.047079 
L 234.273953 54.58175 
L 242.365093 55.812108 
L 247.710111 56.875227 
L 250.429129 57.526231 
L 254.146456 57.663428 
L 262.834209 57.738393 
L 268.173348 58.010757 
L 277.177026 58.679633 
L 292.263183 60.94389 
L 304.093087 63.59244 
L 306.113135 64.079474 
L 316.402169 67.341979 
L 326.995304 71.45331 
L 328.8546 73.101979 
L 331.931174 77.800098 
L 336.213812 85.075611 
L 338.862344 90.019135 
L 342.518572 97.554837 
L 344.691155 102.77115 
L 347.648643 110.614713 
L 349.36015 115.98339 
L 350.878014 121.413994 
L 352.206614 126.884186 
L 353.887187 135.035917 
L 354.757978 140.521249 
L 355.397118 146.112861 
L 355.839626 151.716894 
L 356.081646 157.334211 
L 356.122414 162.958793 
L 356.519905 164.72089 
L 358.847899 172.662536 
L 360.604547 179.2664 
L 360.90981 181.084209 
L 361.717453 184.526131 
L 362.921029 189.800874 
L 363.990221 195.324384 
L 364.612542 199.149153 
L 364.757767 201.166208 
L 365.449263 207.195267 
L 365.555136 209.284802 
L 364.916838 211.588167 
L 362.134707 216.513129 
L 356.47535 225.940051 
L 354.902424 228.242779 
L 353.558226 230.446028 
L 345.290371 241.259133 
L 340.065996 247.314299 
L 338.274719 249.259899 
L 332.40798 254.94662 
L 328.099948 258.601705 
L 321.629611 263.743524 
L 315.270486 268.446599 
L 310.863567 271.383502 
L 303.969236 275.488503 
L 299.188329 278.018968 
L 294.153878 280.398723 
L 289.225569 282.564342 
L 283.937407 284.591863 
L 276.267466 287.21661 
L 271.572426 288.657318 
L 271.572426 288.657318 
" clip-path="url(#pb92582d74e)" style="fill: none; stroke: #1f77b4; stroke-width: 1.5; stroke-linecap: square"/>
   </g>
  </g>
 </g>
 <defs>
  <clipPath id="pb92582d74e">
   <rect x="93.82535" y="41.472" width="284.6693" height="266.112"/>
  </clipPath>
 </defs>
</svg>
