<?xml version="1.0" encoding="utf-8" standalone="no"?>
<!DOCTYPE svg PUBLIC "-//W3C//DTD SVG 1.1//EN"
  "http://www.w3.org/Graphics/SVG/1.1/DTD/svg11.dtd">
<svg xmlns:xlink="http://www.w3.org/1999/xlink" width="460.8pt" height="345.6pt" viewBox="0 0 460.8 345.6" xmlns="http://www.w3.org/2000/svg" version="1.1">
 <metadata>
  <rdf:RDF xmlns:dc="http://purl.org/dc/elements/1.1/" xmlns:cc="http://creativecommons.org/ns#" xmlns:rdf="http://www.w3.org/1999/02/22-rdf-syntax-ns#">
   <cc:Work>
    <dc:type rdf:resource="http://purl.org/dc/dcmitype/StillImage"/>
    <dc:date>2024-01-03T17:20:12.087621</dc:date>
    <dc:format>image/svg+xml</dc:format>
    <dc:creator>
     <cc:Agent>
      <dc:title>Matplotlib v3.6.2, https://matplotlib.org/</dc:title>
     </cc:Agent>
    </dc:creator>
   </cc:Work>
  </rdf:RDF>
 </metadata>
 <defs>
  <style type="text/css">*{stroke-linejoin: round; stroke-linecap: butt}</style>
 </defs>
 <g id="figure_1">
  <g id="patch_1">
   <path d="M 0 345.6 
L 460.8 345.6 
L 460.8 0 
L 0 0 
z
" style="fill: #ffffff"/>
  </g>
  <g id="axes_1">
   <g id="patch_2">
    <path d="M 246.587831 188.250602 
C 247.87303 188.250602 249.105764 187.739987 250.014537 186.831213 
C 250.923311 185.92244 251.433926 184.689706 251.433926 183.404507 
C 251.433926 182.119307 250.923311 180.886573 250.014537 179.9778 
C 249.105764 179.069027 247.87303 178.558412 246.587831 178.558412 
C 245.302631 178.558412 244.069897 179.069027 243.161124 179.9778 
C 242.252351 180.886573 241.741736 182.119307 241.741736 183.404507 
C 241.741736 184.689706 242.252351 185.92244 243.161124 186.831213 
C 244.069897 187.739987 245.302631 188.250602 246.587831 188.250602 
L 246.587831 188.250602 
z
" clip-path="url(#pa5773f0fc6)" style="fill: none; stroke: #0000ff; stroke-linejoin: miter"/>
   </g>
   <g id="patch_3">
    <path d="M 246.587831 171.289269 
C 247.23043 171.289269 247.846797 171.033961 248.301184 170.579575 
C 248.755571 170.125188 249.010878 169.508821 249.010878 168.866221 
C 249.010878 168.223621 248.755571 167.607254 248.301184 167.152868 
C 247.846797 166.698481 247.23043 166.443174 246.587831 166.443174 
C 245.945231 166.443174 245.328864 166.698481 244.874477 167.152868 
C 244.420091 167.607254 244.164783 168.223621 244.164783 168.866221 
C 244.164783 169.508821 244.420091 170.125188 244.874477 170.579575 
C 245.328864 171.033961 245.945231 171.289269 246.587831 171.289269 
L 246.587831 171.289269 
z
" clip-path="url(#pa5773f0fc6)" style="fill: none; stroke: #008000; stroke-linejoin: miter"/>
   </g>
   <g id="line2d_1">
    <path d="M 280.447955 289.353717 
L 274.002794 291.241599 
L 267.429734 292.738872 
L 261.20801 293.872744 
L 254.907501 294.662866 
L 249.006481 295.218688 
L 242.950076 295.459635 
L 236.984597 295.456465 
L 231.000462 295.176962 
L 225.021054 294.629696 
L 219.041696 293.807957 
L 213.069688 292.710152 
L 207.145968 291.375525 
L 204.183081 290.597473 
L 201.096063 289.557504 
L 191.957598 285.905675 
L 189.050889 284.708086 
L 180.379263 280.517803 
L 174.724483 277.397377 
L 166.419335 272.006176 
L 161.052421 267.811623 
L 155.844736 263.536526 
L 150.800128 258.936873 
L 145.935258 254.024138 
L 141.26579 248.804201 
L 136.816629 243.263736 
L 130.669928 234.272152 
L 126.850176 227.988147 
L 123.322213 221.400843 
L 121.67254 217.998008 
L 118.63443 210.96581 
L 115.9225 203.669648 
L 114.714425 199.914548 
L 112.546051 192.227388 
L 110.916413 184.251299 
L 110.75565 180.076497 
L 111.018568 175.835855 
L 111.701434 171.560289 
L 112.769545 163.189743 
L 113.438638 159.039658 
L 114.381608 154.90487 
L 116.529931 146.742287 
L 117.735089 142.715325 
L 120.407173 134.771995 
L 121.874197 130.856387 
L 123.471383 126.986209 
L 125.323164 123.192414 
L 127.049676 119.400522 
L 128.905188 115.659572 
L 130.88799 111.974363 
L 133.113353 108.391974 
L 137.916446 101.447806 
L 140.269838 97.989715 
L 142.851229 94.658633 
L 145.64938 91.468588 
L 148.551845 88.370519 
L 154.752002 82.530347 
L 157.944615 79.731181 
L 164.684863 74.523777 
L 168.303424 72.198705 
L 171.990242 69.993765 
L 175.909712 68.072296 
L 179.886668 66.28626 
L 191.816217 61.422321 
L 200.011967 58.886918 
L 208.24782 56.786325 
L 216.505186 55.118708 
L 224.846284 54.013489 
L 233.289992 53.57991 
L 237.508084 53.568 
L 241.745704 53.748706 
L 245.997087 54.127355 
L 250.217117 54.621872 
L 258.61203 56.104112 
L 262.7724 57.083458 
L 266.883505 58.173941 
L 270.957539 59.417185 
L 274.988397 60.809209 
L 278.958306 62.308072 
L 282.881462 63.969211 
L 286.735926 65.733252 
L 290.528625 67.634843 
L 294.246095 69.635859 
L 297.897641 71.786047 
L 301.466893 74.030906 
L 304.954725 76.385256 
L 308.285646 78.436004 
L 311.470536 80.033378 
L 314.64117 81.967382 
L 317.755157 84.005636 
L 320.808794 86.146479 
L 323.798429 88.388113 
L 326.715776 90.842899 
L 329.554722 93.393067 
L 332.279145 96.374531 
L 334.872788 99.696802 
L 337.35252 103.095293 
L 341.983581 109.96479 
L 346.168144 116.966324 
L 349.874946 124.201856 
L 351.530343 127.95423 
L 353.044618 131.80634 
L 354.557299 135.273691 
L 357.052823 142.871452 
L 359.025549 150.630877 
L 359.795082 154.60186 
L 360.442308 158.568396 
L 360.945012 162.576482 
L 361.324729 166.573137 
L 361.51305 170.691053 
L 361.56435 174.80904 
L 361.491244 178.899881 
L 361.269222 183.005279 
L 360.910642 187.098108 
L 360.444025 191.128192 
L 359.800202 195.206121 
L 358.167814 203.190515 
L 355.988659 211.06635 
L 354.729469 214.908318 
L 351.921587 222.338667 
L 350.526246 225.750857 
L 347.299353 232.541833 
L 345.646935 235.725665 
L 342.115788 241.85987 
L 340.33328 244.734466 
L 338.18723 247.771982 
L 335.939265 250.739997 
L 331.338608 256.324728 
L 326.160747 261.736407 
L 323.745314 264.140236 
L 318.465132 268.83443 
L 313.212435 273.058019 
L 310.538004 275.033699 
L 307.471308 277.039359 
L 300.68581 280.876442 
L 293.994324 284.171418 
L 287.198282 287.001287 
L 280.448941 289.353594 
L 280.448941 289.353594 
" clip-path="url(#pa5773f0fc6)" style="fill: none; stroke: #1f77b4; stroke-width: 1.5; stroke-linecap: square"/>
   </g>
  </g>
 </g>
 <defs>
  <clipPath id="pa5773f0fc6">
   <rect x="98.215215" y="41.472" width="275.88957" height="266.112"/>
  </clipPath>
 </defs>
</svg>
