<?xml version="1.0" encoding="utf-8" standalone="no"?>
<!DOCTYPE svg PUBLIC "-//W3C//DTD SVG 1.1//EN"
  "http://www.w3.org/Graphics/SVG/1.1/DTD/svg11.dtd">
<svg xmlns:xlink="http://www.w3.org/1999/xlink" width="460.8pt" height="345.6pt" viewBox="0 0 460.8 345.6" xmlns="http://www.w3.org/2000/svg" version="1.1">
 <metadata>
  <rdf:RDF xmlns:dc="http://purl.org/dc/elements/1.1/" xmlns:cc="http://creativecommons.org/ns#" xmlns:rdf="http://www.w3.org/1999/02/22-rdf-syntax-ns#">
   <cc:Work>
    <dc:type rdf:resource="http://purl.org/dc/dcmitype/StillImage"/>
    <dc:date>2024-01-03T17:20:12.159654</dc:date>
    <dc:format>image/svg+xml</dc:format>
    <dc:creator>
     <cc:Agent>
      <dc:title>Matplotlib v3.6.2, https://matplotlib.org/</dc:title>
     </cc:Agent>
    </dc:creator>
   </cc:Work>
  </rdf:RDF>
 </metadata>
 <defs>
  <style type="text/css">*{stroke-linejoin: round; stroke-linecap: butt}</style>
 </defs>
 <g id="figure_1">
  <g id="patch_1">
   <path d="M 0 345.6 
L 460.8 345.6 
L 460.8 0 
L 0 0 
z
" style="fill: #ffffff"/>
  </g>
  <g id="axes_1">
   <g id="patch_2">
    <path d="M 234.655963 183.160614 
C 236.010946 183.160614 237.310615 182.622273 238.268733 181.664155 
C 239.226851 180.706037 239.765191 179.406368 239.765191 178.051385 
C 239.765191 176.696402 239.226851 175.396733 238.268733 174.438615 
C 237.310615 173.480497 236.010946 172.942157 234.655963 172.942157 
C 233.30098 172.942157 232.001311 173.480497 231.043193 174.438615 
C 230.085075 175.396733 229.546735 176.696402 229.546735 178.051385 
C 229.546735 179.406368 230.085075 180.706037 231.043193 181.664155 
C 232.001311 182.622273 233.30098 183.160614 234.655963 183.160614 
L 234.655963 183.160614 
z
" clip-path="url(#pad03f44b82)" style="fill: none; stroke: #0000ff; stroke-linejoin: miter"/>
   </g>
   <g id="patch_3">
    <path d="M 234.655963 165.278314 
C 235.333455 165.278314 235.983289 165.009144 236.462348 164.530085 
C 236.941407 164.051026 237.210577 163.401192 237.210577 162.7237 
C 237.210577 162.046209 236.941407 161.396374 236.462348 160.917315 
C 235.983289 160.438256 235.333455 160.169086 234.655963 160.169086 
C 233.978472 160.169086 233.328637 160.438256 232.849578 160.917315 
C 232.370519 161.396374 232.101349 162.046209 232.101349 162.7237 
C 232.101349 163.401192 232.370519 164.051026 232.849578 164.530085 
C 233.328637 165.009144 233.978472 165.278314 234.655963 165.278314 
L 234.655963 165.278314 
z
" clip-path="url(#pad03f44b82)" style="fill: none; stroke: #008000; stroke-linejoin: miter"/>
   </g>
   <g id="line2d_1">
    <path d="M 275.127504 289.434495 
L 271.227513 290.632391 
L 267.293008 291.699629 
L 263.328181 292.635219 
L 259.337254 293.438307 
L 255.306818 294.106465 
L 251.260456 294.640248 
L 247.282706 295.050493 
L 239.296026 295.474329 
L 235.298821 295.488 
L 227.492793 295.164754 
L 219.89988 294.386463 
L 212.472745 293.157254 
L 205.312142 291.533742 
L 198.361726 289.515632 
L 191.640046 287.129372 
L 185.431214 284.599362 
L 179.424543 281.777833 
L 173.673617 278.735062 
L 170.827459 277.070203 
L 165.097799 273.295399 
L 159.516462 269.090775 
L 154.198266 264.583911 
L 149.286176 260.064686 
L 144.73164 255.594093 
L 142.524854 253.256964 
L 140.293521 250.579702 
L 136.03307 244.891035 
L 134.044072 242.04102 
L 132.126049 239.059141 
L 130.288558 235.947375 
L 126.895882 229.503765 
L 123.89575 222.972408 
L 121.307494 216.094116 
L 120.146165 212.787962 
L 119.10556 209.299549 
L 117.355354 202.183218 
L 116.007522 195.080606 
L 115.436976 191.658209 
L 114.698563 184.501873 
L 114.33191 177.408777 
L 114.277282 173.897821 
L 114.435855 170.202352 
L 115.587565 156.243207 
L 117.410938 145.927753 
L 118.143483 142.573282 
L 120.009295 135.811928 
L 122.148655 129.201571 
L 124.609825 122.702991 
L 127.387043 116.323062 
L 132.192045 106.975796 
L 133.936348 103.932071 
L 135.839976 100.910309 
L 141.972539 92.10972 
L 144.177718 89.265296 
L 148.992458 83.736345 
L 154.224279 78.457707 
L 156.936017 75.912142 
L 162.671274 71.048703 
L 165.749061 68.762503 
L 168.900081 66.56214 
L 172.572485 64.645584 
L 176.464379 62.923488 
L 180.401117 61.3291 
L 184.437843 59.893663 
L 188.512961 58.5923 
L 192.617392 57.423391 
L 201.183348 55.660484 
L 205.419671 54.944535 
L 209.671451 54.368952 
L 218.257933 53.679277 
L 222.582876 53.568 
L 226.893415 53.591671 
L 235.398147 53.993211 
L 243.914088 55.021497 
L 252.161511 56.449618 
L 260.267786 58.401667 
L 268.102212 60.752375 
L 271.875553 62.023779 
L 279.269171 64.910198 
L 286.394677 68.177746 
L 293.23629 71.801307 
L 296.560229 73.764136 
L 302.848822 77.649649 
L 305.741245 79.337445 
L 311.465725 83.086923 
L 317.019794 87.168554 
L 322.39301 91.646168 
L 325.007418 94.107953 
L 327.57521 96.972145 
L 330.052035 99.907881 
L 336.950906 108.648581 
L 341.039424 115.355905 
L 342.975773 118.464302 
L 351.167493 135.180193 
L 352.407409 138.919482 
L 354.346147 146.904781 
L 355.791487 154.914127 
L 357.66044 170.224586 
L 358.042718 177.711778 
L 357.855324 188.871538 
L 357.221375 196.254257 
L 356.586814 200.065094 
L 355.838443 203.850324 
L 354.910264 207.657574 
L 353.661649 211.576769 
L 350.724826 219.312229 
L 349.033206 223.120861 
L 347.220477 226.866874 
L 345.292031 230.544646 
L 343.237261 234.157727 
L 341.068087 237.696779 
L 338.796386 241.153667 
L 336.41638 244.529536 
L 333.930868 247.821027 
L 328.726887 254.110252 
L 325.936767 257.133313 
L 320.149336 262.863596 
L 317.067205 265.594744 
L 313.906308 268.218339 
L 310.658201 270.735076 
L 307.332492 273.140752 
L 300.676191 277.572902 
L 297.16573 279.632547 
L 293.594152 281.573335 
L 289.956609 283.394381 
L 286.274065 285.092078 
L 282.522713 286.667072 
L 275.208846 289.433793 
L 275.208846 289.433793 
" clip-path="url(#pad03f44b82)" style="fill: none; stroke: #1f77b4; stroke-width: 1.5; stroke-linecap: square"/>
   </g>
  </g>
 </g>
 <defs>
  <clipPath id="pad03f44b82">
   <rect x="102.08901" y="41.472" width="268.14198" height="266.112"/>
  </clipPath>
 </defs>
</svg>
