<?xml version="1.0" encoding="utf-8"?>
<!-- Generator: Adobe Illustrator 28.1.0, SVG Export Plug-In . SVG Version: 6.00 Build 0)  -->
<svg version="1.1" id="Layer_1" xmlns="http://www.w3.org/2000/svg" xmlns:xlink="http://www.w3.org/1999/xlink" x="0px" y="0px"
	 viewBox="0 0 595.28 841.89" style="enable-background:new 0 0 595.28 841.89;" xml:space="preserve">
<style type="text/css">
	.st0{fill:none;stroke:#000000;stroke-width:2;stroke-miterlimit:10;}
</style>
<path class="st0" d="M180.99,198.85l29.24-12.97c11.32-5.02,24.23-5.01,35.54,0.01l158.97,70.65c13.3,5.91,22.79,18.04,25.33,32.36
	L458.14,447c3.46,19.47-6.56,38.84-24.45,47.27L293.7,560.24c-21.11,9.95-46.32,1.59-57.31-19.01l-46.26-86.75
	c-8.51-15.96-6.34-35.52,5.48-49.21l101.2-117.31c0.55-0.64,1.13-1.27,1.72-1.88l59.06-60.91c14.27-14.72,16.42-37.36,5.18-54.5
	l-28-42.69c-8.53-13-23.3-20.5-38.83-19.72l-134.91,6.81c-21.81,1.1-39.47,18.1-41.41,39.84
	C116.65,188.17,150.47,212.38,180.99,198.85z"/>
</svg>
