<?xml version="1.0" encoding="utf-8"?>
<!-- Generator: Adobe Illustrator 28.1.0, SVG Export Plug-In . SVG Version: 6.00 Build 0)  -->
<svg version="1.1" id="Layer_1" xmlns="http://www.w3.org/2000/svg" xmlns:xlink="http://www.w3.org/1999/xlink" x="0px" y="0px"
	 viewBox="0 0 595.28 841.89" style="enable-background:new 0 0 595.28 841.89;" xml:space="preserve">
<style type="text/css">
	.st0{fill:#FFFFFF;stroke:#000000;stroke-miterlimit:10;}
</style>
<path class="st0" d="M100.83,275.66c2.82-4.14,19.35-19.87,43.11-22.47c19.4-2.12,42.52,4.63,43.11,12.38
	c0.42,5.49-10.53,10.44-17.89,13.76c-19.07,8.62-48.02,15.87-52.74,7.34c-3.25-5.88,5.88-17.7,12.84-23.39
	c6.02-4.92,12.08-6.6,14.83-7.34c9.45-2.52,16.84-0.91,21.71,0.15c7.07,1.54,8.46,3.39,9.02,4.43c1.96,3.67-0.53,8.34-1.38,9.94
	c-0.65,1.22-3.86,6.87-9.48,7.95c-6.92,1.33-9.61-5.8-17.43-6.57c-7.36-0.73-10.01,5.09-19.87,10.09
	c-17.74,8.99-43.72,7.49-37.45,2.75c0.65-0.49,4.47-1.2,9.02-5.81C99.73,277.35,100.58,276.03,100.83,275.66z"/>
</svg>
