<?xml version="1.0" encoding="utf-8"?>
<!-- Generator: Adobe Illustrator 28.1.0, SVG Export Plug-In . SVG Version: 6.00 Build 0)  -->
<svg version="1.1" id="Layer_1" xmlns="http://www.w3.org/2000/svg" xmlns:xlink="http://www.w3.org/1999/xlink" x="0px" y="0px"
	 viewBox="0 0 595.28 841.89" style="enable-background:new 0 0 595.28 841.89;" xml:space="preserve">
<style type="text/css">
	.st0{fill:#FFFFFF;stroke:#000000;stroke-miterlimit:10;}
</style>
<path class="st0" d="M62.31,494.64L62.31,494.64c0,16.84,13.65,30.5,30.5,30.5h349.91c16.84,0,30.5-13.65,30.5-30.5V415.3
	c0-16.84-13.65-30.5-30.5-30.5h-97.29c-1.94,0-3.87,0.17-5.78,0.51l-28.46,5.08c-4.63,0.83-8.8,3.34-11.69,7.06l-5.07,6.52
	c-1.99,2.56-2.29,6.06-0.75,8.92l6.87,12.81c0.46,0.86,1.01,1.67,1.64,2.41l10.27,12.13c2.47,2.92,3.43,6.82,2.59,10.55l-1.27,5.66
	c-0.91,4.06-4.27,7.11-8.4,7.63l-5.08,0.64c-1.73,0.22-3.48-0.09-5.02-0.88l-9.21-4.72c-1.57-0.8-1.3-3.13,0.41-3.56l10.08-2.52
	c5.58-1.39,7.86-8.08,4.3-12.6l-2.65-3.37c-0.36-1.1-6.69-5.46-7.34-6.42l-14.6-20.34c-2.28-3.4-1.97-7.9,0.76-10.95
	c6.72-7.5,18.21-20.53,16.9-20.53c-0.87,0-9.54-11.01-18.38-22.55c-12.02-15.69-13.53-37.04-3.86-54.28l16.56-29.53
	c4.28-7.63,4.53-16.88,0.69-24.73l-9.27-18.93c-0.87-1.77-2.13-3.32-3.69-4.52l-14.47-11.19c-2.15-1.66-3.66-4.03-4.25-6.69
	l-1.86-8.36c-0.79-3.55,2.64-6.59,6.07-5.37l29.83,10.55c4,1.41,8.43,0.8,11.89-1.65l10.76-7.61c3.55-2.51,7.76-3.94,12.11-4.1
	l16.39-0.63c4.22-0.16,7.92-2.87,9.36-6.84l1.67-16.56c0.22-2.23,3.22-2.79,4.23-0.79l11.15,17.64c0.25,0.4,0.47,0.83,0.66,1.26
	l7.56,18.03c0.28,6.09,1.18,13.07,0.19,19.91l-3.31,23.05c-1.49,10.36,0.66,20.92,6.08,29.88l5.89,9.74
	c0.14,0.23,0.27,0.47,0.4,0.71l13.7,19.11c3.17,4.42,4.79,9.75,4.61,15.19l-0.66,20.56c-1.06,4.67-3.35,8.96-6.66,12.43
	c-6.46,6.78-17.16,16.83-18.56,17.56c-6.11,3.21-24,5.61-29.49,7.02c-0.83,0.21-1.66,0.36-2.51,0.44l-42.48,3.94
	c-0.49,0.05-0.98,0.07-1.47,0.07H92.81c-16.84,0-30.5,13.65-30.5,30.5V494.64z"/>
</svg>
