<?xml version="1.0" encoding="utf-8"?>
<!-- Generator: Adobe Illustrator 28.1.0, SVG Export Plug-In . SVG Version: 6.00 Build 0)  -->
<svg version="1.1" id="Layer_1" xmlns="http://www.w3.org/2000/svg" xmlns:xlink="http://www.w3.org/1999/xlink" x="0px" y="0px"
	 viewBox="0 0 595.28 841.89" style="enable-background:new 0 0 595.28 841.89;" xml:space="preserve">
<style type="text/css">
	.st0{fill:#FFFFFF;stroke:#000000;stroke-miterlimit:10;}
</style>
<path class="st0" d="M155.18,486.84c2.38,0.82,9.22-43.9,44.03-61.91c4.95-2.56,20.15-10.43,35.31-4.82
	c17.72,6.56,26.6,28.28,27.06,44.94c0.53,19.23-10.23,29.64-6.19,33.25c5.48,4.9,33.1-7.36,48.15-30.96
	c13.76-21.58,8.24-38.88,24.08-49.07c8.01-5.15,17.9-6.18,25.91-4.13c17.41,4.47,27.2,23.85,28.66,38.98
	c0.96,9.91-2.07,13.73-16.51,47.01c-16.72,38.54-16.11,41.4-22.24,45.4c-12.94,8.45-30.94,4.49-66.96-3.44
	c-22.07-4.86-29.94-8.99-45.63-6.88c-17.67,2.38-33.77,11.13-33.02,14.22c0.62,2.54,12.73,1.65,25.91,0.69
	c18.84-1.38,21.77-3.6,41.04-5.5c17.85-1.76,25.95-0.9,26.37-3.21c0.57-3.16-13.94-8.32-23.16-10.78
	c-8.24-2.2-32.18-8.59-37.83,0.46c-2.89,4.62-0.35,12.24,0.23,13.99c1.23,3.69,3.05,6.06,5.5,9.17c7.78,9.86,11.67,14.8,13.53,16.51
	c14.33,13.25,48.15,3.01,57.32,0.23c16.02-4.85,34.02-10.3,48.61-26.6c24.29-27.14,31.44-75.77,10.78-93.55
	c-12.52-10.78-35.08-10.08-45.4-3.21c-1.8,1.19-6.25,4.16-6.42,8.48c-0.2,5,5.46,8.76,6.42,9.4c10.38,6.9,29.2,3.5,38.98-7.11
	c5.49-5.96,3.48-9.13,9.63-15.13c9.73-9.49,21.98-8.57,21.78-10.32c-0.22-1.92-15.17-4.54-28.43,2.52c-3.51,1.87-2.4,2.02-6.19,4.13
	c-12.31,6.84-20.19,3.11-30.96,10.09c-5.34,3.46-5.69,5.85-5.73,6.65c-0.22,3.71,4.08,7.76,8.03,9.17
	c13.64,4.88,25.39-20.83,44.94-18.34c6.48,0.82,12.57,4.58,16.05,9.63c5.23,7.58,3.6,16.66,2.52,22.24
	c-4,20.65-22.42,46.29-42.88,46.32c-7.77,0.01-8.49-3.68-37.15-11.24c-7.51-1.98-13.57-3.34-18.34,0
	c-4.58,3.2-7.46,10.37-5.27,14.68c1.15,2.28,2.96,2.25,4.59,4.13c4.39,5.06,0.7,16.12-2.06,20.87c-9.85,16.91-45.58,18.26-71.08,7.8
	c-8.11-3.33-28.15-11.55-28.43-25.68c-0.17-8.43,6.71-17.93,14.9-20.41c8-2.42,11.84,3.5,19.95,0.69
	c7.38-2.56,11.21-9.88,14.45-16.05c1.08-2.06,3.52-7.06,5.96-20.18c3.01-16.15,4.51-24.23,2.06-29.81
	c-6.29-14.34-26.51-17.02-29.58-17.43c-2.7-0.36-18.48-2.19-31.64,8.03c-3.77,2.92-11.18,8.68-10.32,14.9
	c1.24,8.89,18.69,13.74,30.73,13.53c2.58-0.04,12.42-0.45,22.01-6.88c2.96-1.98,12.21-8.18,11.01-13.53
	c-1.4-6.22-16.1-7.63-20.18-8.03c-9.5-0.91-11.23,1.25-19.26,1.15c-19.29-0.25-32.84-13.01-34.39-10.78
	c-0.81,1.16,2.68,4.87,4.36,6.65c1.86,1.97,8.69,9.23,19.49,11.01c8.5,1.4,9.9-2.16,25.68-3.44c9.03-0.73,15.55-1.26,16.97,1.61
	c1.84,3.72-4.9,13.26-13.76,15.82c-7.96,2.3-11.14-2.9-24.76-3.44c-7.54-0.3-14.58-0.58-19.72,3.67
	c-8.97,7.41-7.08,24.44-3.67,34.39c3.36,9.81,7.02,9.29,11.46,20.18c5.75,14.06,1.82,20.24,5.27,30.73
	c5.04,15.27,20.23,22.91,33.02,29.35c4.62,2.32,29.76,14.54,64.2,10.78c50.51-5.52,81-41.02,85.99-47.01
	c24.39-29.29,48.36-84.15,25.68-114.19c-14.91-19.75-46.34-23.97-55.72-25.22c-13.44-1.8-13.86,0.81-41.96,0.92
	c-34.79,0.13-38.07-3.85-58.7-2.06c-17.32,1.5-37.28,3.23-54.34,15.82C154.17,440.09,152.81,486.03,155.18,486.84z"/>
</svg>
