<?xml version="1.0" encoding="utf-8"?>
<!-- Generator: Adobe Illustrator 28.1.0, SVG Export Plug-In . SVG Version: 6.00 Build 0)  -->
<svg version="1.1" id="Layer_2" xmlns="http://www.w3.org/2000/svg" xmlns:xlink="http://www.w3.org/1999/xlink" x="0px" y="0px"
	 viewBox="0 0 612 792" style="enable-background:new 0 0 612 792;" xml:space="preserve">
<style type="text/css">
	.st0{fill:#FFFFFF;stroke:#000000;stroke-miterlimit:10;}
</style>
<path class="st0" d="M200.74,135.58c4.15,1.99,6.05,9.06,7.93,13.52c2.41,6.19,5.77,12.32,10.02,17.12
	c4.34,5.07,10.05,9.25,15.48,13.28c6.94,5.44,14.74,11.1,23.29,12.76c7.66,1.91,16.82-0.3,24.22,1.65c9.5,4-3.11,15.13-7.27,19.59
	c-4.44,4.5-8.87,9.15-12.71,14.17c-8.06,10.28-13.3,23.61-22.48,33.02c-11.47,12.57-30.37,15.95-46.12,9.7
	c-10.37-3.7-21.47-11.33-27.04-20.15c-5.55-12.27,11.59-9.41,18.05-6.78c61.55,22.59,24.98,80.45,57.1,122.32
	c11.84,17.17,17.53,37.76,18.46,58.45c0.84,16.07,0.72,32.38-3.38,47.92c-3.53,12.77-9.36,25.35-19.75,33.88
	c-14.93,12.45-37.72,14.6-55.3,6.54c-5.89-2.6-12.64-9.99-2.01-12.74c18.01-3.48,37.23,4.8,55.02,7.72
	c12.83,2.23,25.7,1.76,39.12,1.7c15.15-1.09,38.04,3.77,50.28-6.23c10.78-11.36,10.26-29.61,11.15-44.37
	c0.61-23.6-4.16-47.22-11.59-69.37c-5.99-18.9,1.06-26.87,12.85-7.52c5.86,10.52,9.36,22.56,12.21,34.42
	c2.78,11.53,5.06,23.14,6.3,34.82c0.42,1.81,1.14,13.12,2.4,11.4c3.45-25.29-1.4-54.33-10.07-78.6
	c-4.51-13.6-11.44-26.37-15.31-40.21c-6.59-24.13-0.97-48.61,4.43-72.56c5.46-21.61-7.05-34.82-10.62-54.56
	c-3.6-21.49,3.57-42.97,2.06-64.64c-0.21-24.93,15.73-2.85,26.03,2.35c8.33,4.84,18.26,4.85,27.61,3.65
	c8.32-1.03,16.71-3.57,22.48-9.9c5.24-5.36,9.02-13.71,12.51-15.8c9.17-5.17,10.18,26.19,12.03,31.52
	c2.68,15.84,8.04,31.17,7.38,47.3c-2.69,23.69-1.08,30.43,12.81,49.71c8.01,12.07,12.9,26.31,22.27,37.32
	c6.2,7.39,14.38,12.88,21.78,18.94c19.9,15.98,28.37,41.07,32.43,65.37c3.84,24.5,0.81,49.93-3.22,74.29
	c-6.54,35.56-26.06,65.6-60.77,78.89c-27.01,11.62-59.41,12.96-85.89-0.89c-12.9-7.12-30.35-17.97-29.24-34.47
	c3.01-15.87,24.27-15.44,36.94-11.96c11.99,2.73,22.23,8.96,33.24,14.15c9.77,4.9,20.36,8.03,31.17,9.41
	c25.17,4.05,50.35,0.2,75.46-1c12.12-0.26,23.69-0.07,35.93-0.13c10.82,0.26,23.41-0.62,32.7,0.72c3.38,0.71,3.76,2.38,3.85,5.25
	c-0.05,32.45,0.11,195.91,0.01,262.55c-12.11,4.96-112.49,5.69-226.07,5.22c-35.7-0.15-72.7-0.42-108.68-0.71
	C144.25,782.71,39,781.51,22.41,783.2c-0.84-0.02-1.45-0.04-1.88-0.2c-1.11-0.03-1.14-3.31-1.11-5.19
	c-0.07-70.19-0.07-190.1,0.09-263.54c0.52-5.3,5.2-4.08,11.85-4.61c9.7-0.18,21.3-0.14,31.39-0.25
	c44.2-1.96,106.58,6.22,105.29,62.54c-0.74,18.88-9.62,36.59-14.15,54.7c-11.83,40.68-17.33,100.7,34.28,114.48
	c12.95,3.11,28.76,0.9,38.06-9.08c6.37-6.22,9.38-20.01-1.1-23.54c-10.38-3.32-25.57,3.8-35.25-3.2
	c-23.81-16.78-6.89-62.41,0.69-84.87c8.96-23.8,19.46-51.44,6.08-75.64c-24.14-46.06-79.06-23.24-110.6-51.03
	c-12.57-11.24-16.57-28.63-16.97-45.02c-0.39-34.37,16.08-65.57,28.21-96.87c8.03-22.7,13.4-46.37,22.92-68.41
	c7.07-18.71,19.15-35.78,26.43-54.39c8.59-26.37,6.12-35.84,26.96-58.3c5.54-6.42,10.5-13.65,14.54-21.18
	C190.84,144.75,195.02,134.38,200.74,135.58"/>
</svg>
